<svg width="24" height="24" viewBox="0 0 24 24" fill="none" xmlns="http://www.w3.org/2000/svg">
<path fill-rule="evenodd" clip-rule="evenodd" d="M19 21H14C12.895 21 12 20.105 12 19V14C12 12.895 12.895 12 14 12H19C20.105 12 21 12.895 21 14V19C21 20.105 20.105 21 19 21Z" stroke="#4A4A59" stroke-width="1.5" stroke-linecap="round" stroke-linejoin="round"/>
<path fill-rule="evenodd" clip-rule="evenodd" d="M10 21H5C3.895 21 3 20.105 3 19V14C3 12.895 3.895 12 5 12H10C11.105 12 12 12.895 12 14V19C12 20.105 11.105 21 10 21Z" stroke="#4A4A59" stroke-width="1.5" stroke-linecap="round" stroke-linejoin="round"/>
<path fill-rule="evenodd" clip-rule="evenodd" d="M14.5 12H9.5C8.395 12 7.5 11.105 7.5 10V5C7.5 3.895 8.395 3 9.5 3H14.5C15.605 3 16.5 3.895 16.5 5V10C16.5 11.105 15.605 12 14.5 12Z" stroke="#4A4A59" stroke-width="1.5" stroke-linecap="round" stroke-linejoin="round"/>
<path d="M6 18H8" stroke="#4A4A59" stroke-width="1.5" stroke-linecap="round" stroke-linejoin="round"/>
<path d="M10 9H12" stroke="#4A4A59" stroke-width="1.5" stroke-linecap="round" stroke-linejoin="round"/>
<path d="M15 18H17" stroke="#4A4A59" stroke-width="1.5" stroke-linecap="round" stroke-linejoin="round"/>
</svg>
