<svg width="120" height="120" viewBox="0 0 120 120" fill="none" xmlns="http://www.w3.org/2000/svg">
<path opacity="0.5" fill-rule="evenodd" clip-rule="evenodd" d="M60 120C93.1371 120 120 93.1371 120 60C120 26.8629 93.1371 0 60 0C26.8629 0 0 26.8629 0 60C0 93.1371 26.8629 120 60 120ZM77.3657 50.6409C77.3657 55.2528 75.4045 58.8398 72.0052 61.1823C76.4505 63.6713 79 67.7707 79 73.2611C79 82.924 71.2861 89 59.6498 89C48.0789 89 40.4303 82.924 40.4303 73.2611C40.4303 67.7707 42.9798 63.6713 47.3598 61.1823C43.9604 58.8398 42.0646 55.2528 42.0646 50.6409C42.0646 41.6367 49.2556 36 59.6498 36C70.1747 36 77.3657 41.6367 77.3657 50.6409ZM66.8407 51.1533C66.8407 47.1271 63.9644 44.7113 59.6498 44.7113C55.4006 44.7113 52.5896 47.1271 52.5896 51.1533C52.5896 55.0331 55.3352 57.4489 59.6498 57.4489C64.0297 57.4489 66.8407 55.0331 66.8407 51.1533ZM51.1514 72.895C51.1514 77.4337 54.42 80.2887 59.6498 80.2887C64.945 80.2887 68.2789 77.4337 68.2789 72.895C68.2789 68.3564 64.945 65.5746 59.6498 65.5746C54.42 65.5746 51.1514 68.3564 51.1514 72.895ZM13 37.8785C13 37.3262 13.4477 36.8785 14 36.8785H31.7424C32.2947 36.8785 32.7424 37.3262 32.7424 37.8785V87.1216C32.7424 87.6738 32.2947 88.1216 31.7424 88.1216H23.1521C22.5998 88.1216 22.1521 87.6738 22.1521 87.1216V46.395H14C13.4477 46.395 13 45.9473 13 45.395V37.8785ZM92.9307 50.6436C92.9307 48.6313 94.562 47 96.5743 47C98.5865 47 100.218 48.6313 100.218 50.6436V57.9307H107.505C109.517 57.9307 111.149 59.562 111.149 61.5743C111.149 63.5865 109.517 65.2178 107.505 65.2178H100.218V72.505C100.218 74.5172 98.5865 76.1485 96.5743 76.1485C94.562 76.1485 92.9307 74.5172 92.9307 72.505V65.2178H85.6436C83.6313 65.2178 82 63.5865 82 61.5743C82 59.562 83.6313 57.9307 85.6436 57.9307H92.9307V50.6436Z" fill="#9393A5"/>
</svg>
