<svg width="24" height="24" viewBox="0 0 24 24" fill="none" xmlns="http://www.w3.org/2000/svg">
<path d="M18.5027 16.6339L21.0037 19.135" stroke="#474752" stroke-width="1.5" stroke-linecap="round" stroke-linejoin="round"/>
<path d="M21.0037 16.6339L18.5027 19.135" stroke="#474752" stroke-width="1.5" stroke-linecap="round" stroke-linejoin="round"/>
<path d="M12.5002 12.0671V8.99878" stroke="#474752" stroke-width="1.5" stroke-linecap="round" stroke-linejoin="round"/>
<path d="M12.5002 15.6775C12.4574 15.6775 12.4164 15.6946 12.3863 15.7251C12.3562 15.7555 12.3396 15.7968 12.3401 15.8396C12.3407 15.9281 12.4117 16 12.5002 16.0016C12.5897 16.0016 12.6623 15.9291 12.6623 15.8396C12.6623 15.7501 12.5897 15.6775 12.5002 15.6775" stroke="#474752" stroke-width="1.5" stroke-linecap="round" stroke-linejoin="round"/>
<path d="M20.5495 13.5187L15.8206 5.39727C15.1306 4.21768 13.8667 3.49268 12.5002 3.49268C11.1336 3.49268 9.86971 4.21768 9.1798 5.39727L3.47742 15.1793C2.83849 16.2785 2.83737 17.6357 3.47451 18.7359C4.11164 19.8361 5.28936 20.5107 6.5607 20.5036H15.5374" stroke="#474752" stroke-width="1.5" stroke-linecap="round" stroke-linejoin="round"/>
</svg>
