<svg width="22" height="22" viewBox="0 0 22 22" fill="none" xmlns="http://www.w3.org/2000/svg">
<g clip-path="url(#clip0_172_32150)">
<mask id="mask0_172_32150" style="mask-type:luminance" maskUnits="userSpaceOnUse" x="0" y="0" width="22" height="22">
<path d="M22 11C22 4.92487 17.0751 0 11 0C4.92487 0 0 4.92487 0 11C0 17.0751 4.92487 22 11 22C17.0751 22 22 17.0751 22 11Z" fill="white"/>
</mask>
<g mask="url(#mask0_172_32150)">
<path d="M22 0H0V22H22V0Z" fill="#509E2F"/>
<path d="M22 0H0V14.6667H22V0Z" fill="#EF3340"/>
<path d="M22 0H0V7.33333H22V0Z" fill="#00B5E2"/>
<path d="M10.8167 14.3C11.25 14.3 11.6791 14.2146 12.0795 14.0488C12.4799 13.8829 12.8437 13.6398 13.1501 13.3334C13.4565 13.027 13.6996 12.6632 13.8655 12.2628C14.0313 11.8624 14.1167 11.4333 14.1167 11C14.1167 10.5666 14.0313 10.1375 13.8655 9.7371C13.6996 9.33672 13.4565 8.97293 13.1501 8.6665C12.8437 8.36007 12.4799 8.11699 12.0795 7.95115C11.6791 7.78531 11.25 7.69995 10.8167 7.69995C9.94145 7.69995 9.10208 8.04763 8.48321 8.6665C7.86434 9.28537 7.51666 10.1247 7.51666 11C7.51666 11.8752 7.86434 12.7145 8.48321 13.3334C9.10208 13.9523 9.94145 14.3 10.8167 14.3Z" fill="white"/>
<path d="M11.55 13.75C12.2793 13.75 12.9788 13.4603 13.4945 12.9445C14.0103 12.4288 14.3 11.7293 14.3 11C14.3 10.2707 14.0103 9.57118 13.4945 9.05546C12.9788 8.53973 12.2793 8.25 11.55 8.25C10.8206 8.25 10.1212 8.53973 9.60544 9.05546C9.08972 9.57118 8.79999 10.2707 8.79999 11C8.79999 11.7293 9.08972 12.4288 9.60544 12.9445C10.1212 13.4603 10.8206 13.75 11.55 13.75Z" fill="#EF3340"/>
<path d="M14.4833 9.16663L14.8344 10.153L15.7795 9.70379L15.3303 10.6489L16.3167 11L15.3303 11.351L15.7795 12.2961L14.8344 11.847L14.4833 12.8333L14.1322 11.847L13.1872 12.2961L13.6363 11.351L12.65 11L13.6363 10.6489L13.1872 9.70379L14.1322 10.153L14.4833 9.16663Z" fill="white"/>
</g>
</g>
<defs>
<clipPath id="clip0_172_32150">
<rect width="22" height="22" fill="white"/>
</clipPath>
</defs>
</svg>
