<svg width="24" height="24" viewBox="0 0 24 24" fill="none" xmlns="http://www.w3.org/2000/svg">
<g clip-path="url(#clip0_11343_161161)">
<path fill-rule="evenodd" clip-rule="evenodd" d="M20.926 15.9992V8.00119C20.926 7.28619 20.545 6.62619 19.926 6.26919L13 2.27019C12.381 1.91319 11.619 1.91319 11 2.27019L4.07401 6.26919C3.45501 6.62619 3.07401 7.28719 3.07401 8.00119V15.9982C3.07401 16.7132 3.45501 17.3732 4.07401 17.7302L11 21.7302C11.619 22.0872 12.381 22.0872 13 21.7302L19.926 17.7312C20.545 17.3742 20.926 16.7132 20.926 15.9992Z" stroke="#CB112D" stroke-width="1.5" stroke-linecap="round" stroke-linejoin="round"/>
<path d="M6.17 12.6304L9.17 14.3704" stroke="#CB112D" stroke-width="1.5" stroke-linecap="round" stroke-linejoin="round"/>
<path d="M3.34201 7.00098L12 12L20.658 7.00098" stroke="#CB112D" stroke-width="1.5" stroke-linecap="round" stroke-linejoin="round"/>
<path d="M12 22V12" stroke="#CB112D" stroke-width="1.5" stroke-linecap="round" stroke-linejoin="round"/>
<path d="M16.33 9.50002L7.54001 4.27002" stroke="#CB112D" stroke-width="1.5" stroke-linecap="round" stroke-linejoin="round"/>
</g>
<defs>
<clipPath id="clip0_11343_161161">
<rect width="24" height="24" fill="white"/>
</clipPath>
</defs>
</svg>
