<svg width="24" height="24" viewBox="0 0 24 24" fill="none" xmlns="http://www.w3.org/2000/svg">
<path fill-rule="evenodd" clip-rule="evenodd" d="M20.9262 15.9992V8.00119C20.9262 7.28619 20.5452 6.62619 19.9262 6.26919L13.0002 2.27019C12.3812 1.91319 11.6192 1.91319 11.0002 2.27019L4.07422 6.26919C3.45522 6.62619 3.07422 7.28719 3.07422 8.00119V15.9982C3.07422 16.7132 3.45522 17.3732 4.07422 17.7302L11.0002 21.7302C11.6192 22.0872 12.3812 22.0872 13.0002 21.7302L19.9262 17.7312C20.5452 17.3742 20.9262 16.7132 20.9262 15.9992Z" stroke="#808A98" stroke-width="1.5" stroke-linecap="round" stroke-linejoin="round"/>
<path d="M6.17041 12.6304L9.17041 14.3704" stroke="#808A98" stroke-width="1.5" stroke-linecap="round" stroke-linejoin="round"/>
<path d="M3.34229 7.00098L12.0003 12L20.6583 7.00098" stroke="#808A98" stroke-width="1.5" stroke-linecap="round" stroke-linejoin="round"/>
<path d="M12 22V12" stroke="#808A98" stroke-width="1.5" stroke-linecap="round" stroke-linejoin="round"/>
<path d="M16.33 9.50002L7.54004 4.27002" stroke="#808A98" stroke-width="1.5" stroke-linecap="round" stroke-linejoin="round"/>
</svg>
