<svg width="24" height="24" viewBox="0 0 24 24" fill="none" xmlns="http://www.w3.org/2000/svg">
<path d="M12.0002 2.99609V7.99818" stroke="#242424" stroke-width="1.5" stroke-linecap="round" stroke-linejoin="round"/>
<path d="M6.99805 17.0022H8.99888" stroke="#242424" stroke-width="1.5" stroke-linecap="round" stroke-linejoin="round"/>
<path d="M21.0041 9.99888C21.0041 8.89385 20.1083 7.99805 19.0032 7.99805H4.99742C3.89239 7.99805 2.99658 8.89385 2.99658 9.99888" stroke="#242424" stroke-width="1.5" stroke-linecap="round" stroke-linejoin="round"/>
<path fill-rule="evenodd" clip-rule="evenodd" d="M19.0033 21.0036H5.24752C4.00436 21.0036 2.99658 19.9958 2.99658 18.7527V8.49839C2.99627 7.95808 3.10587 7.42335 3.31872 6.92673L4.41317 4.36266C4.76708 3.53364 5.58163 2.99586 6.48304 2.99609H17.5166C18.418 2.99586 19.2326 3.53364 19.5865 4.36266L20.687 6.92673C20.898 7.42375 21.0058 7.95844 21.0041 8.49839V19.0028C21.0041 20.1078 20.1083 21.0036 19.0033 21.0036Z" stroke="#242424" stroke-width="1.5" stroke-linecap="round" stroke-linejoin="round"/>
</svg>
