<svg width="24" height="24" viewBox="0 0 24 24" fill="none" xmlns="http://www.w3.org/2000/svg">
<path d="M20 10L21 9" stroke="#CB112D" stroke-width="1.5" stroke-linecap="round" stroke-linejoin="round"/>
<path d="M21 15L20 14" stroke="#CB112D" stroke-width="1.5" stroke-linecap="round" stroke-linejoin="round"/>
<path d="M21 12H22" stroke="#CB112D" stroke-width="1.5" stroke-linecap="round" stroke-linejoin="round"/>
<path d="M4 14L3 15" stroke="#CB112D" stroke-width="1.5" stroke-linecap="round" stroke-linejoin="round"/>
<path d="M3 9L4 10" stroke="#CB112D" stroke-width="1.5" stroke-linecap="round" stroke-linejoin="round"/>
<path d="M3 12H2" stroke="#CB112D" stroke-width="1.5" stroke-linecap="round" stroke-linejoin="round"/>
<path d="M7 15V18C7 19.105 7.895 20 9 20H15C16.105 20 17 19.105 17 18V16" stroke="#CB112D" stroke-width="1.5" stroke-linecap="round" stroke-linejoin="round"/>
<path d="M13.12 17.5H10.88" stroke="#CB112D" stroke-width="1.5" stroke-linecap="round" stroke-linejoin="round"/>
<path fill-rule="evenodd" clip-rule="evenodd" d="M17 13V6C17 4.895 16.105 4 15 4H9C7.895 4 7 4.895 7 6V12L10.333 13L13.666 12L17 13Z" stroke="#CB112D" stroke-width="1.5" stroke-linecap="round" stroke-linejoin="round"/>
</svg>
