<svg width="24" height="24" viewBox="0 0 24 24" fill="none" xmlns="http://www.w3.org/2000/svg">
<path d="M9 21H8C5.23858 21 3 18.7614 3 16V8C3 5.23858 5.23858 3 8 3H16C18.7614 3 21 5.23858 21 8V10" stroke="#A73AFD" stroke-width="1.5" stroke-linecap="round" stroke-linejoin="round"/>
<path d="M7 8.5045L7.82972 9.25L9.5 7.75" stroke="#A73AFD" stroke-width="1.5" stroke-linecap="round" stroke-linejoin="round"/>
<path d="M13 9H17" stroke="#A73AFD" stroke-width="1.5" stroke-linecap="round" stroke-linejoin="round"/>
<path d="M7 13.5045L7.82972 14.25L9.5 12.75" stroke="#A73AFD" stroke-width="1.5" stroke-linecap="round" stroke-linejoin="round"/>
<path fill-rule="evenodd" clip-rule="evenodd" d="M20.5 22H13.625C13.0037 22 12.5 21.4963 12.5 20.875V15.9539C12.5 15.5487 12.5821 15.1476 12.7413 14.775L13.1756 13.7588C13.3723 13.2985 13.8245 13 14.325 13H19.674C20.1743 13 20.6265 13.2983 20.8233 13.7584L21.2583 14.7752C21.4178 15.1481 21.5 15.5495 21.5 15.9551V21C21.5 21.5523 21.0523 22 20.5 22Z" stroke="#A73AFD" stroke-width="1.5" stroke-linecap="round" stroke-linejoin="round"/>
<path d="M17 13V16.3843" stroke="#A73AFD" stroke-width="1.5" stroke-linecap="round" stroke-linejoin="round"/>
<path d="M21.5 20.8828V17.3828C21.5 16.8305 21.0523 16.3828 20.5 16.3828H13.5C12.9477 16.3828 12.5 16.8305 12.5 17.3828V20.8828" stroke="#A73AFD" stroke-width="1.5" stroke-linecap="round" stroke-linejoin="round"/>
</svg>
