<svg width="24" height="24" viewBox="0 0 24 24" fill="none" xmlns="http://www.w3.org/2000/svg">
<path fill-rule="evenodd" clip-rule="evenodd" d="M19.596 13.4111L13.908 14.9351C12.898 15.2061 11.86 14.6061 11.589 13.5961L10.065 7.90809C9.79397 6.89809 10.394 5.86009 11.404 5.58909L17.092 4.06509C18.102 3.79409 19.14 4.39409 19.411 5.40409L20.935 11.0921C21.206 12.1021 20.606 13.1401 19.596 13.4111V13.4111Z" stroke="#A73AFD" stroke-width="1.5" stroke-linecap="round" stroke-linejoin="round"/>
<path fill-rule="evenodd" clip-rule="evenodd" d="M9.75 22C11.2688 22 12.5 20.7688 12.5 19.25C12.5 17.7312 11.2688 16.5 9.75 16.5C8.23122 16.5 7 17.7312 7 19.25C7 20.7688 8.23122 22 9.75 22Z" stroke="#A73AFD" stroke-width="1.5" stroke-linecap="round" stroke-linejoin="round"/>
<path d="M2 4.63384L3.666 4.18784C4.733 3.90184 5.83 4.53484 6.116 5.60184" stroke="#A73AFD" stroke-width="1.5" stroke-linecap="round" stroke-linejoin="round"/>
<path d="M6.11597 5.60156L9.05997 16.5876" stroke="#A73AFD" stroke-width="1.5" stroke-linecap="round" stroke-linejoin="round"/>
<path d="M21.5499 16.1094L12.4099 18.5494" stroke="#A73AFD" stroke-width="1.5" stroke-linecap="round" stroke-linejoin="round"/>
</svg>
