<?xml version="1.0" encoding="utf-8"?>
<!-- Generator: Adobe Illustrator 24.3.0, SVG Export Plug-In . SVG Version: 6.00 Build 0)  -->
<svg version="1.1" id="Слой_1" xmlns="http://www.w3.org/2000/svg" xmlns:xlink="http://www.w3.org/1999/xlink" x="0px" y="0px" style="enable-background:new 0 0 24 24;" xml:space="preserve" viewBox="0 0 32 32" width="32" height="32">
<style type="text/css">
	.st0{fill:none;stroke:#4A4A59;stroke-width:1.5;stroke-linecap:round;stroke-linejoin:round;}
</style>
<path class="st0" d="M19.6,13.4l-5.7,1.5c-1,0.3-2-0.3-2.3-1.3l-1.5-5.7c-0.3-1,0.3-2,1.3-2.3l5.7-1.5c1-0.3,2,0.3,2.3,1.3l1.5,5.7
	C21.2,12.1,20.6,13.1,19.6,13.4L19.6,13.4z"/>
<path class="st0" d="M9.8,22c1.5,0,2.8-1.2,2.8-2.8s-1.2-2.8-2.8-2.8c-1.5,0-2.8,1.2-2.8,2.8S8.2,22,9.8,22z"/>
<path class="st0" d="M2,4.6l1.7-0.4c1.1-0.3,2.2,0.3,2.5,1.4"/>
<path class="st0" d="M6.1,5.6l2.9,11"/>
<path class="st0" d="M21.5,16.1l-9.1,2.4"/>
</svg>
