<svg width="24" height="24" viewBox="0 0 24 24" fill="none" xmlns="http://www.w3.org/2000/svg">
<path fill-rule="evenodd" clip-rule="evenodd" d="M9.70298 4.09499L3.52898 7.52499C2.23098 8.24599 2.23098 10.112 3.52898 10.833L9.70298 14.263C11.131 15.056 12.868 15.056 14.297 14.263L20.471 10.833C21.769 10.112 21.769 8.24599 20.471 7.52499L14.297 4.09499C12.868 3.30199 11.132 3.30199 9.70298 4.09499Z" stroke="#474752" stroke-width="1.419" stroke-linecap="round" stroke-linejoin="round"/>
<path d="M5.99097 12.2V16.124C5.99097 17.073 6.46597 17.958 7.25497 18.483L8.86197 19.552C10.763 20.816 13.237 20.816 15.137 19.552L16.744 18.483C17.534 17.958 18.008 17.072 18.008 16.124V12.2" stroke="#474752" stroke-width="1.4167" stroke-linecap="round" stroke-linejoin="round"/>
</svg>
