<svg width="41" height="40" viewBox="0 0 41 40" fill="none" xmlns="http://www.w3.org/2000/svg">
<path d="M31.3369 27.7227L35.5053 31.8911" stroke="white" stroke-width="1.5" stroke-linecap="round" stroke-linejoin="round"/>
<path d="M35.5053 27.7227L31.3369 31.8911" stroke="white" stroke-width="1.5" stroke-linecap="round" stroke-linejoin="round"/>
<path d="M21.3337 20.1109V14.9971" stroke="white" stroke-width="1.5" stroke-linecap="round" stroke-linejoin="round"/>
<path d="M21.333 26.129C21.2617 26.129 21.1933 26.1576 21.1432 26.2083C21.093 26.2591 21.0653 26.3278 21.0662 26.3991C21.0671 26.5466 21.1855 26.6665 21.333 26.6692C21.4822 26.6692 21.6031 26.5483 21.6031 26.3991C21.6031 26.2499 21.4822 26.129 21.333 26.129" stroke="white" stroke-width="1.5" stroke-linecap="round" stroke-linejoin="round"/>
<path d="M34.7486 22.5303L26.867 8.99463C25.7171 7.02865 23.6106 5.82031 21.333 5.82031C19.0555 5.82031 16.9489 7.02865 15.799 8.99463L6.29509 25.2981C5.2302 27.13 5.22834 29.392 6.29023 31.2257C7.35212 33.0594 9.31498 34.1836 11.4339 34.1719H26.3951" stroke="white" stroke-width="1.5" stroke-linecap="round" stroke-linejoin="round"/>
</svg>
