<svg width="22" height="22" viewBox="0 0 22 22" fill="none" xmlns="http://www.w3.org/2000/svg">
<g clip-path="url(#clip0_6029_132557)">
<g clip-path="url(#clip1_6029_132557)">
<rect width="22" height="22" fill="#EFEFF4"/>
<path d="M21.9999 9.625H12.375V0H9.57637V9.625H0V11.9167H9.57637V22H12.375V11.9167H21.9999V9.625Z" fill="#FF4B55"/>
<path d="M7.33268 14.957C6.87868 15.0026 6.43392 15.0483 5.98853 15.0941C6.03433 14.6487 6.08002 14.2039 6.12576 13.75C5.7094 13.8038 5.2893 13.8038 4.87294 13.75C4.91858 14.2039 4.96432 14.6488 5.01017 15.0941C4.56473 15.0484 4.11992 15.0026 3.66602 14.957C3.71986 15.3733 3.71986 15.7934 3.66602 16.2097C4.12002 16.1641 4.56478 16.1183 5.01017 16.0725C4.96437 16.518 4.91863 16.9627 4.87294 17.4167C5.2893 17.3628 5.7094 17.3628 6.12576 17.4167C6.08012 16.9627 6.03433 16.5179 5.98853 16.0725C6.43397 16.1183 6.87873 16.164 7.33268 16.2097C7.27889 15.7935 7.27889 15.3733 7.33268 14.957Z" fill="#FF4B55"/>
<path d="M7.33268 5.79045C6.87868 5.83609 6.43392 5.88183 5.98853 5.92763C6.03433 5.4822 6.08002 5.03744 6.12576 4.5835C5.7094 4.63734 5.2893 4.63734 4.87294 4.5835C4.91858 5.03744 4.96432 5.48225 5.01017 5.92763C4.56473 5.88189 4.11992 5.83614 3.66602 5.79045C3.71986 6.20676 3.71986 6.6269 3.66602 7.04321C4.12002 6.99757 4.56478 6.95182 5.01017 6.90603C4.96437 7.35146 4.91863 7.79622 4.87294 8.25016C5.2893 8.19632 5.7094 8.19632 6.12576 8.25016C6.08012 7.79622 6.03433 7.35141 5.98853 6.90603C6.43397 6.95177 6.87873 6.99751 7.33268 7.04321C7.27889 6.62695 7.27889 6.20676 7.33268 5.79045Z" fill="#FF4B55"/>
<path d="M18.3327 14.957C17.8787 15.0026 17.4339 15.0483 16.9885 15.0941C17.0343 14.6487 17.08 14.2039 17.1258 13.75C16.7094 13.8038 16.2893 13.8038 15.8729 13.75C15.9186 14.2039 15.9643 14.6488 16.0102 15.0941C15.5647 15.0484 15.1199 15.0026 14.666 14.957C14.7199 15.3733 14.7199 15.7934 14.666 16.2097C15.12 16.1641 15.5648 16.1183 16.0102 16.0725C15.9644 16.518 15.9186 16.9627 15.8729 17.4167C16.2893 17.3628 16.7094 17.3628 17.1258 17.4167C17.0801 16.9627 17.0343 16.5179 16.9885 16.0725C17.434 16.1183 17.8787 16.164 18.3327 16.2097C18.2789 15.7935 18.2789 15.3733 18.3327 14.957Z" fill="#FF4B55"/>
<path d="M18.3327 5.79045C17.8787 5.83609 17.4339 5.88183 16.9885 5.92763C17.0343 5.4822 17.08 5.03744 17.1258 4.5835C16.7094 4.63734 16.2893 4.63734 15.8729 4.5835C15.9186 5.03744 15.9643 5.48225 16.0102 5.92763C15.5647 5.88189 15.1199 5.83614 14.666 5.79045C14.7199 6.20676 14.7199 6.6269 14.666 7.04321C15.12 6.99757 15.5648 6.95182 16.0102 6.90603C15.9644 7.35146 15.9186 7.79622 15.8729 8.25016C16.2893 8.19632 16.7094 8.19632 17.1258 8.25016C17.0801 7.79622 17.0343 7.35141 16.9885 6.90603C17.434 6.95177 17.8787 6.99751 18.3327 7.04321C18.2789 6.62695 18.2789 6.20676 18.3327 5.79045Z" fill="#FF4B55"/>
</g>
</g>
<defs>
<clipPath id="clip0_6029_132557">
<path d="M0 11C0 4.92487 4.92487 0 11 0C17.0751 0 22 4.92487 22 11C22 17.0751 17.0751 22 11 22C4.92487 22 0 17.0751 0 11Z" fill="white"/>
</clipPath>
<clipPath id="clip1_6029_132557">
<rect width="22" height="22" fill="white"/>
</clipPath>
</defs>
</svg>
