<svg width="22" height="22" viewBox="0 0 22 22" fill="none" xmlns="http://www.w3.org/2000/svg">
<circle cx="11" cy="11" r="11" fill="#ED192D"/>
<path d="M11.4084 5.81188C11.42 4.91139 12.2187 4.29139 12.2528 3.08975C12.8258 3.81014 11.8788 5.15793 12.215 5.94032C12.3676 5.05164 13.2532 4.5645 13.4748 3.38353C13.9284 4.18363 12.782 5.36756 12.9916 6.19276C13.2812 5.33951 14.2322 4.99553 14.6358 3.86476C14.9587 4.72539 13.6411 5.71593 13.7191 6.56328C14.1388 5.76612 15.1317 5.5757 15.7072 4.52168C15.8915 5.42217 14.4353 6.19422 14.3797 7.04304C14.9191 6.32117 15.9294 6.2887 16.6629 5.33802C16.7038 6.25622 15.145 6.79062 14.9572 7.62025C15.6027 6.99138 16.6058 7.11833 17.4791 6.29313C17.3758 7.20691 15.7524 7.49034 15.4372 8.28159C16.1731 7.76196 17.144 8.04244 18.1358 7.36486C17.8907 8.25059 16.243 8.27716 15.8079 9.00936C16.6163 8.61078 17.5313 9.04038 18.6166 8.52518C18.236 9.36219 16.6043 9.13041 16.0602 9.78585C16.9208 9.51865 17.7574 10.0855 18.91 9.74746C18.4031 10.5151 16.8277 10.0309 16.1879 10.5919C17.08 10.4634 17.8172 11.1543 19.0088 11.0008C18.3879 11.6784 16.9077 10.955 16.1878 11.4097C17.0891 11.42 17.7091 12.2187 18.91 12.2526C18.1907 12.8269 16.8422 11.8791 16.0599 12.2157C16.9483 12.3678 17.4359 13.2535 18.6166 13.4749C17.8165 13.9296 16.6325 12.7826 15.8075 12.9922C16.661 13.2815 17.004 14.2322 18.1356 14.6367C17.2744 14.9585 16.2846 13.6417 15.4368 13.72C16.2345 14.1392 16.4244 15.1327 17.4791 15.7084C16.5778 15.8915 15.8062 14.4359 14.9567 14.3798C15.6791 14.9201 15.7112 15.9299 16.6629 16.6635C15.744 16.7049 15.2098 15.146 14.3792 14.957C15.0086 15.6036 14.8822 16.606 15.7072 17.4799C14.7933 17.3765 14.5094 15.7527 13.7188 15.4383C14.2392 16.1734 13.9575 17.1448 14.6358 18.1368C13.7492 17.8918 13.7229 16.2428 12.9912 15.8088C13.3899 16.6163 12.9599 17.5316 13.4748 18.6166C12.6375 18.2372 12.8691 16.6045 12.2145 16.0612C12.4819 16.9219 11.9141 17.7574 12.2528 18.9103C11.4853 18.404 11.9693 16.8289 11.4079 16.1882C11.5374 17.0798 10.8455 17.8179 10.9999 19.0092C10.3213 18.3877 11.0458 16.9086 10.5913 16.1882C10.5795 17.0902 9.78099 17.7102 9.74689 18.9103C9.17382 18.1914 10.121 16.8421 9.78483 16.0598C9.63233 16.9484 8.74646 17.4356 8.52518 18.6166C8.07139 17.8165 9.21796 16.6325 9.00819 15.8088C8.71841 16.662 7.76743 17.0045 7.36398 18.1368C7.04114 17.2747 8.35866 16.2856 8.28057 15.4368C7.86103 16.2354 6.86813 16.4244 6.2924 17.4799C6.10832 16.5779 7.56445 15.8073 7.62011 14.957C7.0807 15.6789 6.07023 15.7114 5.33685 16.6635C5.29596 15.7439 6.85499 15.2109 7.04262 14.3798C6.39692 15.0087 5.39398 14.8832 4.52065 15.7084C4.62399 14.7932 6.24738 14.5097 6.5627 13.72C5.82651 14.2396 4.85561 13.9576 3.86403 14.6367C4.10908 13.7495 5.75683 13.7229 6.19187 12.9922C5.3835 13.3908 4.46869 12.9597 3.38308 13.4749C3.7638 12.6379 5.39531 12.8697 5.93959 12.2157C5.07881 12.4829 4.24239 11.9146 3.08976 12.2526C3.59669 11.4865 5.17196 11.9692 5.8119 11.4082C4.91982 11.5381 4.1826 10.8458 2.99115 11.0008C3.6119 10.3217 5.09209 11.0465 5.81204 10.5919C4.91067 10.5801 4.29081 9.78142 3.08991 9.74746C3.80912 9.17469 5.15764 10.1209 5.93974 9.78585C5.05135 9.63232 4.56405 8.74661 3.38323 8.52518C4.18334 8.07198 5.36712 9.21898 6.19217 9.00936C5.33863 8.71854 4.9957 7.76787 3.86403 7.36486C4.7254 7.04157 5.7152 8.35983 6.56299 8.28159C5.76525 7.86087 5.57541 6.86885 4.5208 6.29313C5.42188 6.10861 6.1935 7.56563 7.04291 7.62025C6.3206 7.08143 6.28842 6.07022 5.33685 5.33802C6.25565 5.29668 6.79004 6.85556 7.62041 7.04304C6.99139 6.39794 7.11761 5.39412 6.29255 4.52168C7.20647 4.62502 7.49035 6.24737 8.28101 6.56328C7.76079 5.82665 8.04245 4.85677 7.36398 3.86476C8.2506 4.10981 8.27688 5.75728 9.00878 6.19276C8.60991 5.3838 9.03993 4.46854 8.52518 3.38353C9.36219 3.76439 9.13057 5.3956 9.78542 5.94032C9.51793 5.07969 10.0858 4.24268 9.74703 3.08975C10.5144 3.59757 10.0305 5.17268 10.5919 5.81188C10.4623 4.92025 11.154 4.18362 10.9999 2.99084C11.6785 3.61233 10.9541 5.09297 11.4084 5.81188Z" fill="#FDE012"/>
<path d="M10.9994 15.2314C13.3365 15.2314 15.2311 13.3375 15.2311 11.0006C15.2311 8.6623 13.3365 6.76831 10.9994 6.76831C8.66209 6.76831 6.76752 8.6623 6.76752 11.0006C6.76752 13.3375 8.66209 15.2314 10.9994 15.2314Z" fill="#ED192D"/>
<path d="M10.9988 7.31006C12.0788 7.31006 13.0492 7.77211 13.7241 8.51169C12.665 8.61798 11.7654 8.86745 10.9988 9.24831C10.2323 8.86745 9.33241 8.61798 8.27338 8.51169C8.94845 7.77211 9.91891 7.31006 10.9988 7.31006Z" fill="#FDE012"/>
<path d="M10.7193 9.39888C10.6343 9.44612 10.551 9.49485 10.4695 9.54651C9.78129 9.18041 8.95787 8.94568 7.97943 8.8763C8.02401 8.81282 8.07096 8.7523 8.11923 8.69177C9.1359 8.78182 9.99446 9.0254 10.7193 9.39888Z" fill="#FDE012"/>
<path d="M11.2812 9.39888C11.3659 9.44612 11.4493 9.49485 11.5308 9.54651C12.2189 9.18041 13.0426 8.94568 14.0209 8.8763C13.9765 8.81282 13.9294 8.7523 13.8811 8.69177C12.8646 8.78182 12.006 9.0254 11.2812 9.39888Z" fill="#FDE012"/>
<path d="M7.85417 9.06543C7.81476 9.12891 7.7777 9.19387 7.74213 9.2603C8.65354 9.28096 9.41807 9.49057 10.0455 9.83748C10.1112 9.78729 10.1782 9.74006 10.2462 9.69282C9.5902 9.33558 8.79747 9.11267 7.85417 9.06543Z" fill="#FDE012"/>
<path d="M7.80726 12.8559C7.48957 12.3097 7.30756 11.6764 7.30756 11.0003C7.30756 10.4482 7.42728 9.92709 7.64295 9.45765C8.52455 9.45175 9.26265 9.64515 9.86451 9.97877C8.97243 10.7095 8.3133 11.6823 7.80726 12.8559Z" fill="#FDE012"/>
<path d="M9.6696 14.443C9.50368 14.3796 9.34366 14.3043 9.19043 14.2172C9.27797 12.831 9.73146 11.5098 10.6355 10.5518C10.7025 10.6167 10.7675 10.6831 10.829 10.7525C9.98758 11.7357 9.6234 13.0864 9.6696 14.443Z" fill="#FDE012"/>
<path d="M14.142 9.06543C14.1811 9.12891 14.2185 9.19387 14.2537 9.2603C13.3426 9.28096 12.5779 9.49057 11.9506 9.83748C11.8849 9.78729 11.8178 9.74006 11.7499 9.69282C12.4058 9.33558 13.1987 9.11267 14.142 9.06543Z" fill="#FDE012"/>
<path d="M14.191 12.8559C14.5087 12.3097 14.6907 11.6764 14.6907 11.0003C14.6907 10.4482 14.5713 9.92709 14.3553 9.45765C13.474 9.45175 12.7358 9.64515 12.1338 9.97877C13.026 10.7095 13.6851 11.6823 14.191 12.8559Z" fill="#FDE012"/>
<path d="M10.9999 10.9575C11.7576 11.9377 12.0415 13.2766 11.8965 14.5801C11.6094 14.6525 11.309 14.6909 10.9999 14.6909C10.6905 14.6909 10.3899 14.6525 10.1031 14.5801C9.95783 13.2766 10.2418 11.9377 10.9999 10.9575Z" fill="#FDE012"/>
<path d="M12.3311 14.443C12.497 14.3796 12.657 14.3043 12.8104 14.2172C12.7227 12.831 12.2694 11.5098 11.3653 10.5518C11.2983 10.6167 11.2334 10.6831 11.1718 10.7525C12.0131 11.7357 12.3774 13.0864 12.3311 14.443Z" fill="#FDE012"/>
<path d="M10.4181 10.354C10.339 10.2905 10.2502 10.2226 10.1648 10.1636C9.22839 10.9932 8.61208 12.1196 8.22162 13.4275C8.36599 13.5928 8.52527 13.7434 8.69651 13.8807C8.93832 12.5063 9.4795 11.2619 10.4181 10.354Z" fill="#FDE012"/>
<path d="M11.5829 10.354C11.6619 10.2905 11.7508 10.2226 11.8361 10.1636C12.7726 10.9932 13.3889 12.1196 13.7793 13.4275C13.6349 13.5928 13.4756 13.7434 13.3042 13.8807C13.0627 12.5063 12.5214 11.2619 11.5829 10.354Z" fill="#FDE012"/>
<path d="M10.9982 9.55371C11.0443 9.58176 11.2045 9.68216 11.2446 9.70873C11.1821 9.74711 11.0376 9.84453 10.9982 9.87258C10.9588 9.84453 10.8144 9.74711 10.7519 9.70873C10.7922 9.68216 10.952 9.58176 10.9982 9.55371Z" fill="#FDE012"/>
<path d="M10.5325 9.86255C10.4698 9.90979 10.3741 9.98212 10.3378 10.0146C10.4282 10.0736 10.5496 10.1652 10.5882 10.1962C10.6351 10.1548 10.7286 10.0722 10.7813 10.0338C10.7176 9.98802 10.5812 9.8906 10.5325 9.86255Z" fill="#FDE012"/>
<path d="M11.4657 9.86255C11.5281 9.90979 11.6239 9.98212 11.6603 10.0146C11.5698 10.0736 11.4483 10.1652 11.4096 10.1962C11.3629 10.1548 11.2694 10.0722 11.2167 10.0338C11.2804 9.98802 11.417 9.8906 11.4657 9.86255Z" fill="#FDE012"/>
<path d="M10.9994 10.2079C11.0396 10.2418 11.1595 10.3481 11.1911 10.3806C11.134 10.4293 11.0458 10.5134 10.9994 10.5651C10.9529 10.5134 10.8647 10.4293 10.8076 10.3806C10.8392 10.3481 10.9591 10.2418 10.9994 10.2079Z" fill="#FDE012"/>
</svg>
