<svg width="22" height="22" viewBox="0 0 22 22" fill="none" xmlns="http://www.w3.org/2000/svg">
<circle cx="11" cy="11" r="11" fill="#00AFCA"/>
<path d="M11.7739 4.99765C11.9768 5.03604 12.0781 4.92237 12.1084 4.76884C12.1483 4.56217 12.0618 3.52588 12.0618 3.52588C12.0618 3.52588 11.5913 4.44999 11.551 4.65518C11.5213 4.81018 11.5712 4.95632 11.7739 4.99765Z" fill="#FEC50C"/>
<path d="M12.515 5.22578C12.707 5.30402 12.8276 5.21248 12.8869 5.06781C12.966 4.87443 13.0803 3.8396 13.0803 3.8396C13.0803 3.8396 12.4412 4.653 12.3623 4.84639C12.3031 4.99253 12.3244 5.14606 12.515 5.22578Z" fill="#FEC50C"/>
<path d="M13.1994 5.59776C13.3727 5.71143 13.5086 5.64648 13.5947 5.5151C13.7094 5.3409 14.0197 4.34888 14.0197 4.34888C14.0197 4.34888 13.2373 5.02055 13.1226 5.19474C13.0365 5.32613 13.0276 5.48114 13.1994 5.59776Z" fill="#FEC50C"/>
<path d="M13.7981 6.0952C13.9458 6.24135 14.0922 6.20445 14.2016 6.09374C14.348 5.94612 14.8433 5.03381 14.8433 5.03381C14.8433 5.03381 13.9458 5.5372 13.7999 5.6863C13.6899 5.79702 13.6517 5.94758 13.7981 6.0952Z" fill="#FEC50C"/>
<path d="M14.2856 6.70369C14.4027 6.87641 14.5533 6.86904 14.6824 6.78195C14.8541 6.66532 15.5147 5.86963 15.5147 5.86963C15.5147 5.86963 14.5381 6.18554 14.3665 6.30216C14.2376 6.38925 14.1708 6.5295 14.2856 6.70369Z" fill="#FEC50C"/>
<path d="M14.6512 7.39748C14.7328 7.58939 14.8819 7.613 15.025 7.55247C15.2158 7.47276 16.0167 6.82324 16.0167 6.82324C16.0167 6.82324 14.9984 6.93838 14.8074 7.01957C14.6643 7.0801 14.5722 7.20409 14.6512 7.39748Z" fill="#FEC50C"/>
<path d="M14.8792 8.15026C14.9222 8.35545 15.0639 8.40564 15.2163 8.37612C15.4191 8.33478 16.3292 7.85651 16.3292 7.85651C16.3292 7.85651 15.3079 7.76941 15.1051 7.80927C14.9534 7.84027 14.8392 7.94359 14.8792 8.15026Z" fill="#FEC50C"/>
<path d="M14.9542 8.93252C14.9569 9.14215 15.086 9.2204 15.2412 9.2204C15.4478 9.2204 16.4325 8.93252 16.4325 8.93252C16.4325 8.93252 15.4478 8.64319 15.2412 8.64319C15.086 8.64319 14.9542 8.7229 14.9542 8.93252Z" fill="#FEC50C"/>
<path d="M14.8784 9.71513C14.8411 9.92032 14.9526 10.0237 15.1045 10.0547C15.3073 10.0945 16.3285 10.0074 16.3285 10.0074C16.3285 10.0074 15.4183 9.52912 15.2155 9.48778C15.0633 9.45678 14.9189 9.50846 14.8784 9.71513Z" fill="#FEC50C"/>
<path d="M14.6531 10.4663C14.5765 10.6612 14.6661 10.7837 14.8091 10.8442C15.0003 10.9254 16.0184 11.0406 16.0184 11.0406C16.0184 11.0406 15.2177 10.3925 15.0267 10.3113C14.8837 10.2508 14.7322 10.2729 14.6531 10.4663Z" fill="#FEC50C"/>
<path d="M14.2874 11.1601C14.1751 11.3358 14.2395 11.4745 14.3682 11.5616C14.5399 11.6783 15.5165 11.9942 15.5165 11.9942C15.5165 11.9942 14.8559 11.1985 14.6843 11.0819C14.5551 10.9948 14.4023 10.9859 14.2874 11.1601Z" fill="#FEC50C"/>
<path d="M13.7972 11.7683C13.653 11.9174 13.6892 12.0665 13.799 12.1773C13.945 12.3264 14.8424 12.8283 14.8424 12.8283C14.8424 12.8283 14.3471 11.9174 14.2008 11.7698C14.0913 11.6576 13.9432 11.6192 13.7972 11.7683Z" fill="#FEC50C"/>
<path d="M13.199 12.2671C13.0287 12.3852 13.0359 12.5387 13.1222 12.6686C13.2369 12.8428 14.0192 13.5145 14.0192 13.5145C14.0192 13.5145 13.709 12.5225 13.5941 12.3483C13.508 12.2169 13.3706 12.1505 13.199 12.2671Z" fill="#FEC50C"/>
<path d="M12.5147 12.6378C12.3252 12.7205 12.3029 12.8711 12.3622 13.0172C12.4411 13.2106 13.0801 14.024 13.0801 14.024C13.0801 14.024 12.9656 12.9892 12.8867 12.7958C12.8275 12.6511 12.7055 12.5566 12.5147 12.6378Z" fill="#FEC50C"/>
<path d="M8.80893 12.2673C8.63565 12.1521 8.49953 12.2171 8.41325 12.3485C8.29852 12.5227 7.98837 13.5147 7.98837 13.5147C7.98837 13.5147 8.77103 12.843 8.88532 12.6688C8.97145 12.5389 8.9803 12.3839 8.80893 12.2673Z" fill="#FEC50C"/>
<path d="M8.20931 11.7684C8.06125 11.6207 7.9151 11.6577 7.80542 11.7698C7.65927 11.9175 7.16415 12.8283 7.16415 12.8283C7.16415 12.8283 8.06125 12.3264 8.20725 12.1773C8.31708 12.0666 8.35531 11.916 8.20931 11.7684Z" fill="#FEC50C"/>
<path d="M7.7183 11.1599C7.60138 10.9872 7.4508 10.9945 7.32208 11.0816C7.14995 11.1983 6.48935 11.9939 6.48935 11.9939C6.48935 11.9939 7.46601 11.678 7.63755 11.5614C7.76687 11.4743 7.83329 11.3341 7.7183 11.1599Z" fill="#FEC50C"/>
<path d="M7.35289 10.4663C7.2717 10.2744 7.12216 10.2507 6.97912 10.3113C6.78825 10.3925 5.9874 11.0405 5.9874 11.0405C5.9874 11.0405 7.00569 10.9254 7.19671 10.8442C7.33976 10.7837 7.43187 10.6611 7.35289 10.4663Z" fill="#FEC50C"/>
<path d="M7.12845 9.71513C7.08549 9.50846 6.94362 9.45678 6.79172 9.48778C6.58889 9.52912 5.6788 10.0074 5.6788 10.0074C5.6788 10.0074 6.6996 10.0945 6.90243 10.0547C7.05478 10.0237 7.16875 9.92032 7.12845 9.71513Z" fill="#FEC50C"/>
<path d="M7.05313 8.93252C7.05047 8.7229 6.9213 8.64319 6.76659 8.64319C6.55993 8.64319 5.57529 8.93252 5.57529 8.93252C5.57529 8.93252 6.55993 9.2204 6.76659 9.2204C6.9213 9.2204 7.05313 9.14215 7.05313 8.93252Z" fill="#FEC50C"/>
<path d="M7.12845 8.15026C7.16624 7.94359 7.05478 7.84027 6.90243 7.80927C6.6996 7.76941 5.6788 7.85651 5.6788 7.85651C5.6788 7.85651 6.58889 8.33478 6.79172 8.37612C6.94363 8.40564 7.088 8.35545 7.12845 8.15026Z" fill="#FEC50C"/>
<path d="M7.35289 7.39748C7.4298 7.20262 7.33976 7.0801 7.19671 7.01957C7.00569 6.93838 5.9874 6.82324 5.9874 6.82324C5.9874 6.82324 6.78825 7.47276 6.97912 7.55247C7.12216 7.613 7.27362 7.59086 7.35289 7.39748Z" fill="#FEC50C"/>
<path d="M7.7183 6.70369C7.83108 6.52802 7.76687 6.38925 7.63755 6.30216C7.46601 6.18554 6.48935 5.86963 6.48935 5.86963C6.48935 5.86963 7.14995 6.66532 7.32208 6.78195C7.4508 6.86904 7.60345 6.87789 7.7183 6.70369Z" fill="#FEC50C"/>
<path d="M8.20931 6.09532C8.35369 5.94623 8.31708 5.79714 8.20725 5.68642C8.06125 5.53733 7.16415 5.0354 7.16415 5.0354C7.16415 5.0354 7.65927 5.94624 7.80542 6.09386C7.9151 6.20458 8.06287 6.24442 8.20931 6.09532Z" fill="#FEC50C"/>
<path d="M14.4782 8.9354C14.4782 10.8869 12.9208 12.468 11.0001 12.468C9.07898 12.468 7.52158 10.8869 7.52158 8.9354C7.52158 6.98679 9.07898 5.40576 11.0001 5.40576C12.9208 5.40576 14.4782 6.98679 14.4782 8.9354Z" fill="#FEC50C"/>
<path d="M11.0026 4.92172C11.2089 4.91876 11.2868 4.78738 11.2868 4.62943C11.2868 4.41981 11.0026 3.42041 11.0026 3.42041C11.0026 3.42041 10.7188 4.41981 10.7188 4.62943C10.7188 4.78738 10.7963 4.92172 11.0026 4.92172Z" fill="#FEC50C"/>
<path d="M11.7767 12.8653C11.5745 12.9096 11.5241 13.0528 11.5539 13.2078C11.5943 13.413 12.0647 14.3371 12.0647 14.3371C12.0647 14.3371 12.1512 13.3008 12.1113 13.0956C12.0811 12.9406 11.9793 12.824 11.7767 12.8653Z" fill="#FEC50C"/>
<path d="M11.0026 12.9434C10.7963 12.9448 10.7188 13.0762 10.7188 13.2342C10.7188 13.4438 11.0026 14.4432 11.0026 14.4432C11.0026 14.4432 11.2868 13.4438 11.2868 13.2342C11.2868 13.0762 11.2089 12.9434 11.0026 12.9434Z" fill="#FEC50C"/>
<path d="M10.2325 12.8652C10.0296 12.8268 9.9287 12.9405 9.89847 13.0955C9.85806 13.3007 9.94463 14.337 9.94463 14.337C9.94463 14.337 10.4151 13.4129 10.4555 13.2077C10.4857 13.0527 10.4351 12.9065 10.2325 12.8652Z" fill="#FEC50C"/>
<path d="M9.4929 12.638C9.30118 12.5598 9.1801 12.6513 9.12081 12.796C9.04191 12.9894 8.92792 14.0242 8.92792 14.0242C8.92792 14.0242 9.56649 13.2108 9.64554 13.0174C9.70482 12.8713 9.68373 12.7178 9.4929 12.638Z" fill="#FEC50C"/>
<path d="M8.80893 5.59777C8.97912 5.47819 8.97145 5.32613 8.88532 5.19474C8.77103 5.02055 7.98837 4.34888 7.98837 4.34888C7.98837 4.34888 8.29852 5.3409 8.41325 5.5151C8.49953 5.64648 8.63697 5.71291 8.80893 5.59777Z" fill="#FEC50C"/>
<path d="M9.4929 5.22578C9.68255 5.14311 9.70482 4.99253 9.64554 4.84639C9.56649 4.653 8.92792 3.8396 8.92792 3.8396C8.92792 3.8396 9.04191 4.87443 9.12081 5.06781C9.1801 5.21248 9.30206 5.30697 9.4929 5.22578Z" fill="#FEC50C"/>
<path d="M10.2325 4.99765C10.4347 4.95337 10.4857 4.81018 10.4555 4.65518C10.4151 4.44999 9.94463 3.52588 9.94463 3.52588C9.94463 3.52588 9.85806 4.56216 9.89847 4.76736C9.9287 4.92236 10.0299 5.03751 10.2325 4.99765Z" fill="#FEC50C"/>
<path fill-rule="evenodd" clip-rule="evenodd" d="M10.8829 15.0972L10.8231 15.2197L10.7562 15.3762L10.7162 15.45L10.683 15.5179L10.6561 15.5725L10.6228 15.605L10.5429 15.5371L10.4561 15.4766L10.3628 15.4293L10.2627 15.3895L10.1561 15.3615L10.0493 15.3349L9.94239 15.3142L9.82916 15.3009L9.59563 15.2802L9.36254 15.2743L9.13579 15.2611L8.92248 15.233L8.80217 15.2138L8.68894 15.1858L8.62886 15.1651L8.56907 15.1459L8.51563 15.1179L8.46884 15.0913L8.39577 15.0441L8.3221 14.9894L8.24209 14.9289L8.16887 14.861L8.01534 14.7119L7.86211 14.5628L7.70859 14.4211L7.56849 14.2927L7.50207 14.2454L7.43504 14.1967L7.37525 14.1701L7.31517 14.1495L7.20195 14.1229L7.10186 14.089L7.00163 14.055L6.90154 14.0078L6.81489 13.9679L6.72823 13.9133L6.64822 13.8587L6.575 13.8055L6.49499 13.7435L6.42812 13.683L6.36169 13.6151L6.29482 13.5472L6.16816 13.4055L6.04829 13.2564L5.80796 12.9375L5.55464 12.6142L5.40776 12.4577L5.25453 12.3027L5.16803 12.2201L5.08122 12.1462L4.98792 12.0784L4.88769 12.0045L4.86761 12.0104L4.84769 12.0311L4.82761 12.0577L4.81447 12.0916L4.79425 12.1536L4.7876 12.1802L4.74096 12.1595L4.70095 12.1389L4.65415 12.1197L4.61415 12.1049H4.52749L4.48085 12.1197L4.43405 12.1389L4.48085 12.2009L4.54093 12.2821L4.60072 12.3765L4.65415 12.4784L4.70759 12.5862L4.7476 12.688L4.76103 12.7426L4.77446 12.7825L4.78081 12.8298V12.8711H4.42106L4.47406 12.9523L4.53428 13.0334L4.60072 13.1147L4.82082 13.3376L4.89448 13.3981L4.96091 13.4453L4.88769 13.4527L4.7876 13.4601L4.68796 13.4734L4.61415 13.4793L4.67438 13.5339L4.7476 13.5885L4.82761 13.649L4.91426 13.7096L5.00092 13.7642L5.08757 13.8114L5.16803 13.838L5.2411 13.8587L5.27446 13.866L5.30132 13.8719L5.32111 13.8793L5.34133 13.9V13.9266L5.33469 13.9399L5.32111 13.9812L5.31432 14.021L5.30768 14.0491V14.0683L5.31432 14.1022L5.32111 14.1303L5.33469 14.1436L5.35432 14.1568L5.38134 14.1701L5.41455 14.1775L5.44777 14.1908L5.48142 14.2041L5.51464 14.2174L5.54121 14.2381L5.54785 14.2454V14.2587L5.54121 14.2646L5.51464 14.2853L5.48762 14.306L5.4612 14.3325L5.43463 14.3665V14.3945L5.42798 14.4211L5.43463 14.4551L5.44112 14.4949L5.55464 14.5362L5.67451 14.5761L5.72795 14.5894L5.78139 14.6101L5.8214 14.6307L5.85476 14.6514L5.63465 14.8271L5.69474 14.8817L5.76796 14.9215L5.8614 14.9688L5.9547 15.0027L6.06128 15.0367L6.16136 15.0573L6.24802 15.078H6.32803L6.25481 15.1312L6.16136 15.1932L6.06128 15.2463L5.98806 15.3009L6.05493 15.3482L6.14793 15.3954L6.25481 15.45L6.38147 15.5105L6.67479 15.639L6.99498 15.7674L7.32861 15.8899L7.65515 15.9977L7.80203 16.0449L7.93533 16.0789L8.0552 16.1128L8.16222 16.1335L7.94876 16.1128L7.74859 16.0863L7.54871 16.0523L7.36182 16.0125L7.17508 15.9578L6.99498 15.9032L6.82153 15.8427L6.65486 15.7748L6.32803 15.639L6.02127 15.5046L5.87483 15.4426L5.72795 15.3821L5.44777 15.2743L5.48142 15.2537L5.52143 15.2404L5.57443 15.2197L5.63465 15.2064L5.76131 15.1651L5.87483 15.1253L5.67451 15.0913L5.40112 15.0367L5.26767 14.9968L5.15459 14.9629L5.10779 14.9422L5.06779 14.9215L5.03457 14.9009L5.01435 14.8817V14.8743L5.02099 14.8669L5.04137 14.861L5.06115 14.8477L5.11458 14.8271L5.18766 14.8064L5.34812 14.7592L5.48142 14.7119L5.15459 14.6514L4.90112 14.6101L4.80783 14.5894L4.73417 14.5628L4.70759 14.5495L4.68117 14.5289L4.66094 14.5156L4.64751 14.4949L4.66759 14.4816L4.72781 14.4683L4.81447 14.4551L4.91426 14.4344L5.02099 14.4211L5.11458 14.3945L5.16123 14.3798L5.20124 14.3665L5.22766 14.3458L5.25453 14.3266L5.20124 14.306L5.1478 14.2853L5.08122 14.272L5.01435 14.2587L4.86127 14.2381L4.70759 14.2174L4.62773 14.1967L4.55437 14.1834L4.48085 14.1568L4.40762 14.1303L4.34076 14.0963L4.28097 14.0491L4.22753 14.0019L4.18752 13.9399L4.20096 13.9339L4.22753 13.9266H4.26074L4.31418 13.9339L4.43405 13.9399L4.5675 13.9472L4.71438 13.9605H4.90112L4.95456 13.9546L4.99457 13.9399L5.02099 13.9266L4.86127 13.8587L4.64751 13.7642L4.52749 13.7037L4.40099 13.6431L4.27433 13.5752L4.14752 13.5073L4.02765 13.432L3.91398 13.3509L3.80769 13.2696L3.71425 13.1885L3.67425 13.1412L3.63394 13.1014L3.60722 13.06L3.5808 13.0128L3.55379 12.9729L3.54079 12.9242L3.53415 12.8844L3.52736 12.8371H3.57416L3.6276 12.843L3.68059 12.8637L3.73388 12.8844L3.84076 12.9523L3.96078 13.0202L4.01422 13.0541L4.07385 13.0866L4.13408 13.1147L4.18752 13.1353L4.24775 13.1486L4.30075 13.1545H4.36098L4.41442 13.1353L4.25395 13.0128L4.07385 12.8563L3.86748 12.6747L3.66081 12.471L3.45414 12.254L3.26061 12.037L3.17395 11.9233L3.08715 11.8141L3.01364 11.7064L2.94721 11.6045L2.93378 11.5779V11.5307L2.94042 11.51L2.94721 11.4893L2.96729 11.4761L2.98722 11.4554L3.00729 11.4421L3.06029 11.4288H3.11373L3.14694 11.4347L3.17395 11.4421L3.20038 11.4628L3.48071 11.7462L3.6276 11.9027L3.78732 12.0577L3.94734 12.2009L4.10766 12.3352L4.18752 12.3898L4.26074 12.4371L4.34076 12.4784L4.41442 12.505L4.36098 12.471L4.22088 12.3293L4.13408 12.2275L3.94055 11.9898L3.72724 11.7137L3.6208 11.5646L3.52072 11.4155L3.42727 11.2664L3.33383 11.1247L3.25382 10.9889L3.18739 10.8664L3.14059 10.7512L3.10074 10.6568L3.09395 10.6228V10.5682L3.10074 10.549L3.11373 10.5283L3.12716 10.5077L3.14059 10.4944L3.16052 10.4811L3.20717 10.4678L3.24718 10.4545H3.34062L3.36704 10.4604L3.38727 10.4678L3.41384 10.4811L3.43392 10.5017L3.48736 10.549L3.54079 10.6169L3.66081 10.7719L3.78732 10.9682L3.93435 11.1779L4.08744 11.3949L4.16745 11.4967L4.24775 11.5971L4.33441 11.6857L4.42741 11.7669L4.31418 11.544L4.18752 11.2871L4.12065 11.1439L4.06087 11.0022L4.00078 10.8531L3.94734 10.704L3.90055 10.549L3.8539 10.3999L3.82068 10.2508L3.79411 10.1017L3.78068 9.96L3.77389 9.82417L3.78068 9.75628L3.78732 9.69575L3.79411 9.63523L3.80725 9.57321L3.82068 9.55402L3.82733 9.53337L3.84755 9.51269L3.86069 9.4994L3.90734 9.47874L3.95399 9.46545H4.00078L4.04079 9.47284L4.06087 9.47874L4.07385 9.48611L4.08065 9.4994L4.08744 9.52008L4.15431 9.7356L4.2141 9.9659L4.27433 10.2036L4.33441 10.4339L4.39419 10.6641L4.47406 10.8797L4.51406 10.9815L4.56086 11.0834L4.61415 11.1779L4.67438 11.2723L4.63452 11.076L4.60751 10.9003L4.58108 10.7379L4.5675 10.5889L4.55437 10.4604L4.54772 10.3453L4.55437 10.2508L4.56086 10.1696L4.57429 10.1017L4.59452 10.0471L4.60751 10.0264L4.62094 10.0072L4.63452 9.99394L4.65415 9.97916L4.67438 9.97326H4.73417L4.7876 9.99394L4.84104 10.0205L4.88769 10.2375L4.93449 10.4471L4.98792 10.6435L5.04771 10.8324L5.11458 11.0228L5.18766 11.2118L5.26767 11.4081L5.36111 11.6045L5.42798 11.7329L5.49442 11.8613L5.56823 11.9898L5.6413 12.1197L5.80132 12.3633L5.88782 12.4843L5.97463 12.6068L6.1348 12.8091L6.30146 12.9995L6.47492 13.1885L6.65486 13.3641L6.84176 13.5413L7.03499 13.7037L7.23516 13.8587L7.44183 14.0078L7.58193 14.1022L7.72881 14.1908L7.88189 14.2779L8.02878 14.3606L8.26231 14.4757L8.48877 14.5835L8.72895 14.678L8.96927 14.7665L9.19557 14.8404L9.42911 14.9009L9.66944 14.9555L9.90253 15.0027L10.1495 15.0367L10.3892 15.0647L10.6362 15.0839L10.8829 15.0972Z" fill="#FEC50C"/>
<path fill-rule="evenodd" clip-rule="evenodd" d="M11.4911 17.1548L11.6043 17.1696L11.6577 17.1888L11.6712 17.1962V17.2021H11.6577L11.6447 17.2094L11.5379 17.2301H11.4512L11.1709 17.2094L10.8309 17.2021L10.4641 17.1962L10.0841 17.2021L9.90399 17.2094L9.72389 17.2227L9.56402 17.236L9.41049 17.2508L9.28383 17.2714L9.17061 17.298L9.13016 17.3113L9.09015 17.3246L9.05694 17.3379L9.03051 17.3585L9.0435 17.2906L9.07037 17.2227L9.02372 17.236L8.97708 17.2508L8.93707 17.2714L8.89707 17.2906L8.86356 17.3113L8.83684 17.3379L8.8172 17.3718L8.81041 17.4058L8.79019 17.3585L8.77675 17.3187L8.77041 17.2714L8.76376 17.2301L8.77041 17.1962L8.77675 17.1548L8.78339 17.1209L8.80377 17.0884L8.8172 17.0604L8.84363 17.0264L8.89707 16.9732L8.97029 16.9245L9.0503 16.8773C9.09355 16.9053 9.14197 16.9245 9.19039 16.9393C9.23246 16.9437 9.28206 16.9378 9.33048 16.9245C9.41167 16.9983 9.52062 16.9895 9.59059 16.9113C9.60314 16.898 9.61864 16.8758 9.6238 16.8581C9.63473 16.8182 9.63251 16.7681 9.6238 16.7223L9.70367 16.7149L9.79711 16.7016L9.8972 16.6751L10.0041 16.6485L10.1107 16.6278L10.2107 16.6012L10.3042 16.5865L10.3841 16.5806L10.3508 16.6071L10.271 16.6677L10.1775 16.743L10.1107 16.7902L10.1972 16.8109L10.271 16.8242L10.2175 16.8847L10.1107 17.0072L10.0707 17.0604L10.1241 17.081L10.1775 17.0943L10.2372 17.1076H10.3576L10.4173 17.0943L10.4775 17.081L10.5241 17.0545L10.5777 17.081L10.6307 17.1017L10.7376 17.1282L10.8575 17.1415L10.9841 17.1548H11.4911Z" fill="#FEC50C"/>
<path fill-rule="evenodd" clip-rule="evenodd" d="M9.44254 16.7698L9.46217 16.7771L9.48225 16.783L9.48899 16.8035L9.49558 16.824L9.48899 16.8446L9.48225 16.8636L9.46217 16.8783H9.41631L9.40283 16.8636L9.3895 16.8446L9.3829 16.824L9.3895 16.8035L9.40283 16.783L9.41631 16.7771L9.44254 16.7698Z" fill="#FEC50C"/>
<path fill-rule="evenodd" clip-rule="evenodd" d="M9.43425 16.7963L9.44716 16.8035L9.4539 16.8166L9.44716 16.8311L9.43425 16.8369L9.4209 16.8311L9.41415 16.8166L9.4209 16.8035L9.43425 16.7963Z" fill="#FEC50C"/>
<path d="M9.44154 16.891C9.40788 16.891 9.37997 16.8629 9.37997 16.8289C9.37997 16.7935 9.40788 16.7668 9.44154 16.7668C9.4752 16.7668 9.50252 16.7935 9.50252 16.8289C9.50252 16.8629 9.4752 16.891 9.44154 16.891Z" fill="#FEC50C"/>
<path fill-rule="evenodd" clip-rule="evenodd" d="M14.411 17.4871L14.3642 17.5078L14.3175 17.5152L14.2775 17.5211L14.2439 17.5152L14.2105 17.5078L14.1774 17.4945L14.1504 17.4812L14.1172 17.4606L14.0638 17.4192L14.0108 17.3794L13.9838 17.3587L13.9505 17.3454L13.924 17.338H13.8905L13.8307 17.4665L13.7507 17.6303L13.7238 17.6702L13.6972 17.7041L13.6704 17.7248L13.6439 17.7455L13.6106 17.7588H13.5769L13.5437 17.7455L13.5037 17.7248L13.4903 17.7041L13.4773 17.6835L13.4638 17.6569L13.4503 17.6229L13.4373 17.5624L13.4305 17.5211L13.3905 17.555L13.3506 17.6023L13.3168 17.6569L13.2769 17.7174L13.2303 17.7779L13.1835 17.8252L13.1569 17.8532L13.1237 17.8739L13.0901 17.8872L13.0502 17.9005H13.0303L12.9972 17.9064L12.9634 17.9005L12.937 17.8872L12.857 17.7927L12.7703 17.6968L12.7102 17.7927L12.6436 17.8739L12.61 17.9064L12.5768 17.9418L12.5436 17.9684L12.5102 17.9891L12.4833 18.0023L12.4501 18.0082H12.4169L12.3899 18.0023L12.3635 17.9891L12.3432 17.9684L12.3167 17.9344L12.3032 17.8931L12.2902 17.8532L12.2632 17.7853L12.2566 17.7514L12.2436 17.7248L12.23 17.7115H12.2166L12.0365 18.0082L12.0101 18.0363L11.9633 18.0555L11.8564 18.0835H11.7966L11.7499 18.0702L11.7365 18.0629L11.7167 18.0422L11.7099 18.0289V18.0023L11.7365 17.7041L11.7167 17.7115L11.6897 17.7248L11.6633 17.7381L11.6363 17.7647L11.5833 17.8252L11.5232 17.8931L11.463 17.9684L11.3898 18.0289L11.3565 18.0555L11.3233 18.0835L11.2829 18.1042L11.2497 18.1101L11.2029 18.1175L11.1696 18.1101L11.1562 18.1042L11.1432 18.0894L11.1364 18.0702V18.0496L11.1432 17.961L11.1562 17.8739L11.1629 17.8252L11.1494 17.7455L11.123 17.6968L11.083 17.7588L11.0161 17.8459L10.9361 17.9344L10.8495 18.023L10.756 18.0894L10.7162 18.1042L10.6828 18.1175L10.6694 18.1101H10.6497L10.6294 18.0894L10.6164 18.0702L10.6097 18.0496V18.023L10.6029 17.9891L10.6097 17.7307L10.4426 17.8459L10.2427 17.9743L10.1961 17.995L10.1426 18.023L10.0959 18.0363L10.0429 18.0496L9.99621 18.0629H9.94956L9.90276 18.0555L9.86276 18.0422L9.88254 17.9891L9.90276 17.9418L9.92254 17.8931L9.94956 17.8532L9.97598 17.8134L10.0026 17.772L10.0361 17.7381L10.0694 17.7041L10.1426 17.6495L10.2293 17.5949L10.316 17.555L10.4162 17.5211L10.5161 17.4945L10.6294 17.4739L10.743 17.4532L10.8562 17.4399L11.1032 17.4266L11.3565 17.4192H11.863L11.9898 17.4133L12.1101 17.4059L12.23 17.4L12.3432 17.3853L12.4568 17.3661L12.557 17.3454L12.6568 17.3188L12.7501 17.2775L12.8367 17.2362L12.9104 17.183L12.9836 17.1284L13.0437 17.0546L12.9768 16.9188L13.0303 16.9129L13.0837 16.8981L13.1369 16.8716L13.1835 16.8376L13.2037 16.8243L13.2235 16.8036L13.2369 16.7771L13.2504 16.7564L13.2572 16.7298V16.6826L13.2437 16.6545L13.357 16.6339L13.4773 16.6206L13.6039 16.6147H13.7372L14.0108 16.628L14.2907 16.6486L14.5775 16.6826L14.8572 16.7092L15.1308 16.7357L15.3841 16.749V16.845L15.3777 16.8848L15.3509 16.966L15.3379 17L15.3177 17.0265L15.2912 17.0605L15.2444 17.1078L15.1842 17.1491L15.1241 17.1756L15.0577 17.1889L14.9843 17.2037L14.9107 17.1963L14.8442 17.1889L14.7707 17.1697L14.7041 17.1358L14.6373 17.1019L14.5843 17.0546L14.5308 17V17.1151L14.5106 17.2642L14.4975 17.338L14.4774 17.4059L14.464 17.434L14.444 17.4532L14.4306 17.4739L14.411 17.4871ZM9.04892 16.8509L9.20215 16.9188L9.24216 16.8848L9.2956 16.845L9.35583 16.811L9.40911 16.7771L9.60914 16.6959L9.78245 16.6147L9.86911 16.5807L9.94277 16.5394L10.016 16.4995L10.0762 16.4582L10.2293 16.3564L10.3828 16.2545L10.5293 16.16L10.6627 16.0655L10.7628 15.9844L10.8428 15.9105L10.9295 15.8294L11.0229 15.7408L11.0561 15.7068L11.096 15.6803L11.1428 15.6537L11.1962 15.6256L11.3099 15.5725L11.423 15.5311L11.5765 15.4898L11.7432 15.45L11.9165 15.416L12.1101 15.382L12.3432 15.3555L12.5768 15.3215L12.8167 15.2935L13.0502 15.2536L13.1301 15.2403L13.2037 15.2197L13.2836 15.199L13.3636 15.1783L13.4435 15.078L13.5701 14.9348L13.6569 14.8477L13.757 14.7665L13.8707 14.6779L14.004 14.5893L14.2039 14.4683L14.4172 14.3605L14.6373 14.2454L14.8506 14.1435L15.0509 14.0417L15.2376 13.9472L15.3909 13.866L15.5107 13.7848L15.5444 13.6829L15.5912 13.5811L15.6508 13.4792L15.7245 13.3788L15.8045 13.2696L15.9046 13.1618L16.011 13.0393L16.1443 12.9109L16.2644 12.8031L16.3915 12.6939L16.458 12.6466L16.5249 12.5994L16.6712 12.5182L16.7449 12.4842L16.8181 12.4577L16.8981 12.437L16.9713 12.4163L17.0516 12.4104L17.1248 12.4031L17.2047 12.4104L17.2781 12.4237L17.2717 12.5049L17.2515 12.5861L17.2251 12.6673L17.1913 12.7559L17.1446 12.843L17.0848 12.9315L17.0112 13.026L16.9247 13.1205L16.9915 13.1146L17.0516 13.1013L17.0984 13.0865L17.1446 13.0659L17.1851 13.0541L17.2313 13.0393L17.2915 13.0334L17.3584 13.026L17.3647 13.0733V13.1205L17.3584 13.1677L17.3449 13.2091L17.3247 13.2489L17.2981 13.2903L17.2717 13.3242L17.2381 13.3582L17.0984 13.494L16.9582 13.6224L17.0382 13.6283L17.1248 13.6564L17.2115 13.6829L17.2781 13.6962L17.1981 13.7567L17.1048 13.8188L17.0112 13.8793L16.9047 13.9398L16.7979 14.0018L16.6916 14.0682L16.5845 14.1435L16.4845 14.2247L16.5311 14.2306L16.5913 14.2586L16.6178 14.2646L16.6448 14.2778L16.6646 14.2852L16.6848 14.2778L16.5513 14.3531L16.3847 14.4343L16.3044 14.4742L16.2379 14.5155L16.2046 14.5362L16.1845 14.5554L16.1714 14.5761L16.1579 14.5967L16.1647 14.6233L16.1777 14.6439L16.2046 14.6646L16.2245 14.6853L16.2177 14.7119L16.2046 14.7325L16.1777 14.7532L16.1511 14.7724L16.091 14.8063L16.011 14.8403L15.9312 14.8669L15.8578 14.8949L15.8045 14.9215L15.7645 14.9422L15.8978 15.078L15.8512 15.1252L15.8045 15.1591L15.7645 15.1783L15.7179 15.199L15.6244 15.2123H15.4978L15.5107 15.2743L15.531 15.3348L15.5444 15.4027L15.5574 15.4706L15.4443 15.5577L15.3042 15.6596L15.151 15.7614L14.9777 15.8633L14.8776 15.9164L14.7774 15.9637L14.6709 16.005L14.5573 16.0449L14.4374 16.0862L14.3107 16.1128L14.1774 16.1408L14.0372 16.16L14.2839 16.1674H14.497L14.6975 16.1467L14.8776 16.1261L15.0441 16.0936L15.191 16.0523L15.3374 15.9976L15.4775 15.9445L15.6643 15.8559L15.8444 15.7541L16.0178 15.6463L16.1979 15.5371L16.091 15.4839L15.9846 15.45L15.9312 15.4293L15.8777 15.4027L15.8179 15.3747L15.7579 15.3422L15.8113 15.3009L15.8709 15.2743L15.9446 15.2462L16.0245 15.2256L16.1845 15.1931L16.351 15.1724L16.4979 15.1518L16.6313 15.1385L16.6848 15.1252L16.7314 15.1119L16.758 15.0972L16.7781 15.078L16.758 15.0573L16.7381 15.0499L16.7112 15.0366L16.638 15.0233L16.5445 15.01L16.4512 15.0027L16.3578 14.9894L16.2779 14.9687L16.2245 14.9481L16.5845 14.8669L16.7449 14.8344L16.8779 14.8004L16.9915 14.7665L17.0916 14.7251L17.1383 14.7045L17.1716 14.6853L17.2047 14.6646L17.2313 14.638L17.2115 14.6174L17.1851 14.61L17.1514 14.6041L17.0646 14.5967H16.965L16.8581 14.5893L16.758 14.5834L16.6712 14.5701L16.6178 14.5554L16.6646 14.5362L16.7112 14.5155L16.8715 14.4683L17.0112 14.4269L17.1383 14.3945L17.2581 14.3531L17.3848 14.3133L17.5116 14.2586L17.5717 14.2247L17.6251 14.1908L17.6449 14.1701L17.6651 14.1435L17.6849 14.1228L17.6917 14.1022L17.6849 14.083L17.6651 14.0682L17.6449 14.0623H17.4582L17.3714 14.0682H17.2515L17.2183 14.0623L17.1913 14.049L17.1648 14.0343L17.4316 13.8586L17.6781 13.6962L17.8982 13.5545L18.0918 13.4187L18.1718 13.3508L18.2453 13.2844L18.3051 13.2165L18.3585 13.1485L18.3985 13.0733L18.4317 12.9994L18.452 12.9183V12.8297H18.4053L18.3585 12.8371L18.3051 12.8563L18.2516 12.8769L18.1452 12.9448L18.0317 13.0127L17.9719 13.0467L17.9184 13.0806L17.8582 13.1072L17.7984 13.1279L17.7451 13.1412L17.6917 13.1485H17.6315L17.5785 13.1279L17.7384 13.0053L17.9184 12.8504L18.125 12.6673L18.3321 12.4636L18.5386 12.248L18.7317 12.0311L18.8189 11.9159L18.9054 11.8082L18.9788 11.6989L19.0452 11.597L19.0587 11.5705L19.0655 11.5498L19.0587 11.5232L19.052 11.5026L19.0452 11.4834L19.0255 11.4686L19.0052 11.4494L18.9855 11.4421L18.9584 11.4288L18.932 11.4214H18.8786L18.8522 11.4288L18.8189 11.4347L18.7987 11.4553L18.7721 11.476L18.6518 11.597L18.5117 11.7402L18.3653 11.8952L18.205 12.0517L18.0451 12.1934L17.8852 12.3293L17.8049 12.3839L17.7316 12.4311L17.6517 12.471L17.5848 12.5049L17.6315 12.4636L17.7716 12.3219L17.8582 12.22L18.0518 11.9838L18.2651 11.7063L18.3719 11.5572L18.4717 11.4081L18.572 11.2664L18.6585 11.1173L18.7385 10.9815L18.8055 10.8604L18.8589 10.7453L18.892 10.6493L18.8988 10.6154V10.5622L18.892 10.5416L18.8786 10.5209L18.8651 10.5017L18.8522 10.4869L18.8319 10.481L18.7919 10.4604L18.7453 10.4471H18.6518L18.6254 10.4545L18.605 10.4604L18.5786 10.4736L18.5584 10.4943L18.5054 10.5416L18.452 10.6095L18.3321 10.7645L18.205 10.9608L18.0652 11.1719L17.9117 11.3874L17.825 11.4893L17.7451 11.5911L17.6583 11.6782L17.565 11.7609L17.6849 11.5365L17.8049 11.2797L17.8718 11.1379L17.9319 10.9947L17.9917 10.8457L18.0451 10.6966L18.0918 10.5416L18.1384 10.3925L18.1718 10.2433L18.1986 10.0943L18.2118 9.95255L18.2184 9.81674L18.2118 9.74883L18.205 9.68831L18.1986 9.62778L18.1852 9.56726L18.1784 9.54658L18.165 9.52592L18.1318 9.49198L18.085 9.47278L18.0383 9.45801H17.9917L17.9517 9.4654L17.9382 9.47278L17.9184 9.47869L17.9117 9.49198L17.9049 9.51263L17.8384 9.73554L17.7782 9.95994L17.7181 10.1961L17.6583 10.4264L17.5983 10.6567L17.5182 10.8737L17.4782 10.9815L17.4316 11.0759L17.3782 11.1778L17.3184 11.2664L17.3584 11.07L17.3848 10.8944L17.4114 10.732L17.4248 10.5829L17.4382 10.4545L17.445 10.3378L17.4382 10.2433L17.4316 10.1622L17.4182 10.0943L17.3984 10.0411L17.3848 10.0204L17.3714 9.99978L17.3584 9.98649L17.3381 9.97911L17.3184 9.9732L17.2981 9.96584H17.2781L17.2581 9.9732L17.2047 9.98649L17.1514 10.0131L17.1048 10.2301L17.058 10.4397L17.005 10.636L16.9447 10.8265L16.8779 11.0154L16.8046 11.2059L16.7246 11.4022L16.6313 11.597L16.5648 11.7255L16.4979 11.8554L16.4247 11.9838L16.351 12.1122L16.1911 12.3558L16.1045 12.4783L16.0178 12.5994L15.8578 12.8031L15.6908 12.9921L15.5175 13.1825L15.3374 13.3582L15.151 13.5338L14.9575 13.6962L14.7576 13.8527L14.5506 14.0018L14.4105 14.0963L14.2639 14.1908L13.9703 14.3664L13.7372 14.4742L13.5037 14.5834L13.2634 14.672L13.0236 14.7591L12.8233 14.8196L12.6234 14.8816L12.4169 14.9289L12.2098 14.9761L12.0033 15.01L11.79 15.0366L11.583 15.0647L11.3695 15.078L11.3497 15.0839L11.3295 15.0912L11.2897 15.1119L11.243 15.1444L11.1764 15.2064L11.0898 15.2876L10.9828 15.3953L10.8562 15.5371L10.7362 15.6803L10.5963 15.8353L10.5225 15.9105L10.4493 15.9844L10.3628 16.0523L10.2759 16.1202L10.2095 16.1674L10.1426 16.2073L10.0694 16.2427L9.99577 16.2752L9.83589 16.3431L9.67602 16.4051L9.51555 16.4656L9.37561 16.5187L9.31582 16.5468L9.25559 16.5807L9.20215 16.6073L9.16215 16.6339L9.08892 16.7092L9.06885 16.7431L9.05571 16.7771L9.04892 16.8243V16.8509Z" fill="#FEC50C"/>
<path d="M9.43422 16.8425C9.42031 16.8425 9.40918 16.831 9.40918 16.818C9.40918 16.8036 9.42031 16.7936 9.43422 16.7936C9.44754 16.7936 9.45866 16.8036 9.45866 16.818C9.45866 16.831 9.44754 16.8425 9.43422 16.8425Z" fill="#FEC50C"/>
<path d="M9.43422 16.8425C9.42031 16.8425 9.40918 16.831 9.40918 16.818C9.40918 16.8036 9.42031 16.7936 9.43422 16.7936C9.44754 16.7936 9.45866 16.8036 9.45866 16.818C9.45866 16.831 9.44754 16.8425 9.43422 16.8425Z" stroke="#00AFCA" stroke-width="0.9156"/>
</svg>
