<?xml version="1.0" encoding="utf-8"?>
<!-- Generator: Adobe Illustrator 24.3.0, SVG Export Plug-In . SVG Version: 6.00 Build 0)  -->
<svg version="1.1" id="Слой_1" xmlns="http://www.w3.org/2000/svg" xmlns:xlink="http://www.w3.org/1999/xlink" x="0px" y="0px"
	 viewBox="0 0 32 32" style="enable-background:new 0 0 32 32;" xml:space="preserve" width="32px" height="32px">
<style type="text/css">
	.st0{fill:#FF0000;}
	.st1{fill:none;stroke:#FFFFFF;stroke-width:1.3125;stroke-linecap:round;stroke-linejoin:round;}
	.st2{fill:none;stroke:#FFFFFF;stroke-width:1.5;stroke-linecap:round;stroke-linejoin:round;}
</style>
<path class="st0" d="M4,0h24c2.2,0,4,1.8,4,4v24c0,2.2-1.8,4-4,4H4c-2.2,0-4-1.8-4-4V4C0,1.8,1.8,0,4,0z"/>
<path class="st1" d="M26,22.5c0,1.9-1.6,3.5-3.5,3.5S19,24.4,19,22.5s1.6-3.5,3.5-3.5S26,20.6,26,22.5z"/>
<path class="st1" d="M20,25L25,20"/>
<path class="st2" d="M10.3,22.3h6"/>
<path class="st2" d="M21.7,16c0-2.9-2.6-5.3-5.7-5.3H8.3"/>
<path class="st2" d="M11.7,7.3l-3.3,3.3l3.3,3.3"/>
</svg>
