<svg width="24" height="24" viewBox="0 0 24 24" fill="none" xmlns="http://www.w3.org/2000/svg">
<path d="M9.50928 18.0024V18.5147C9.50928 19.1751 9.77179 19.8085 10.239 20.2754C10.7062 20.7422 11.3398 21.0042 12.0003 21.0037V21.0037C12.6609 21.004 13.2945 20.7417 13.7617 20.2747C14.2289 19.8077 14.4914 19.1742 14.4914 18.5137V18.0024" stroke="#4A4A59" stroke-width="1.5" stroke-linecap="round" stroke-linejoin="round"/>
<path fill-rule="evenodd" clip-rule="evenodd" d="M17.9494 18.0028C19.0837 18.0028 20.0032 17.0833 20.0032 15.949V15.949C20.0028 15.3728 19.774 14.8202 19.367 14.4123L18.0024 13.0488V8.99908C18.0024 5.68399 15.315 2.99658 11.9999 2.99658V2.99658C8.68483 2.99658 5.99742 5.68399 5.99742 8.99908V13.0488L4.63285 14.4123C4.22583 14.8202 3.99704 15.3728 3.99658 15.949V15.949C3.99658 16.4937 4.21297 17.0161 4.59814 17.4013C4.98331 17.7864 5.50572 18.0028 6.05044 18.0028H17.9494Z" stroke="#4A4A59" stroke-width="1.5" stroke-linecap="round" stroke-linejoin="round"/>
</svg>
