<svg width="24" height="24" viewBox="0 0 24 24" fill="none" xmlns="http://www.w3.org/2000/svg">
<path fill-rule="evenodd" clip-rule="evenodd" d="M9.1418 3.21953L21.2038 9.44512C21.5343 9.61567 21.7429 9.95547 21.7455 10.3274C21.748 10.6992 21.544 11.0418 21.2158 11.2169L16.714 13.6179C16.1341 13.9272 15.4393 13.9321 14.8552 13.6309L2.79616 7.40327C2.46567 7.23272 2.25707 6.89292 2.25452 6.52103C2.25203 6.14914 2.45601 5.80654 2.78415 5.63153L7.28603 3.23053C7.86541 2.92286 8.55881 2.91875 9.1418 3.21953Z" stroke="#199854" stroke-width="1.5" stroke-linecap="round" stroke-linejoin="round"/>
<path fill-rule="evenodd" clip-rule="evenodd" d="M14.8582 3.21953L2.79616 9.44512C2.46567 9.61567 2.25707 9.95547 2.25452 10.3274C2.25203 10.6992 2.45601 11.0418 2.78415 11.2169L7.28603 13.6179C7.86588 13.9272 8.56068 13.9321 9.1448 13.6309L21.2038 7.40327C21.5343 7.23272 21.7429 6.89292 21.7455 6.52103C21.748 6.14914 21.544 5.80654 21.2158 5.63153L16.714 3.23053C16.1346 2.92286 15.4412 2.91875 14.8582 3.21953Z" stroke="#199854" stroke-width="1.5" stroke-linecap="round" stroke-linejoin="round"/>
<path d="M19.108 12.3413V16.2789C19.108 17.018 18.7007 17.6969 18.0485 18.0447L12.9464 20.7688C12.358 21.0825 11.652 21.0825 11.0636 20.7688L5.96148 18.0447C5.30932 17.6969 4.90204 17.018 4.90204 16.2789V12.3413" stroke="#199854" stroke-width="1.5" stroke-linecap="round" stroke-linejoin="round"/>
<path d="M12 21.004V12.1543" stroke="#199854" stroke-width="1.5" stroke-linecap="round" stroke-linejoin="round"/>
</svg>
