<svg width="24" height="24" viewBox="0 0 24 24" fill="none" xmlns="http://www.w3.org/2000/svg">
<path d="M22.0042 16.2689L20.7596 15.0244L19.5141 16.2689" stroke="#323232" stroke-width="1.5" stroke-linecap="round" stroke-linejoin="round"/>
<path d="M13.0234 16.7581L14.2679 18.0026L15.5124 16.7581" stroke="#323232" stroke-width="1.5" stroke-linecap="round" stroke-linejoin="round"/>
<path d="M14.2679 18.0025V14.6831C14.2677 14.2429 14.4425 13.8206 14.7538 13.5093C15.0651 13.1979 15.4874 13.0232 15.9276 13.0234H19.0289" stroke="#323232" stroke-width="1.5" stroke-linecap="round" stroke-linejoin="round"/>
<path d="M20.7596 15.0244V18.3438C20.7569 19.2581 20.0173 19.9991 19.1029 20.0035H16.0247" stroke="#323232" stroke-width="1.5" stroke-linecap="round" stroke-linejoin="round"/>
<path d="M15.0012 3.07337V6.56382C15.0012 7.11634 14.5533 7.56424 14.0008 7.56424H9.99917C9.44665 7.56424 8.99875 7.11634 8.99875 6.56382V2.99634" stroke="#323232" stroke-width="1.5" stroke-linecap="round" stroke-linejoin="round"/>
<path d="M21.0037 9.99925V4.99717C21.0037 3.89214 20.1079 2.99634 19.0029 2.99634H4.99708C3.89205 2.99634 2.99625 3.89214 2.99625 4.99717V18.0026C2.99625 19.1076 3.89205 20.0034 4.99708 20.0034H10.9996" stroke="#323232" stroke-width="1.5" stroke-linecap="round" stroke-linejoin="round"/>
</svg>
