<svg width="22" height="22" viewBox="0 0 22 22" fill="none" xmlns="http://www.w3.org/2000/svg">
<g clip-path="url(#clip0_6029_132557)">
<rect width="22" height="22" rx="11" fill="#6C5656"/>
<mask id="mask0_6029_132557" style="mask-type:luminance" maskUnits="userSpaceOnUse" x="-4" y="0" width="30" height="22">
<path d="M-4 0H25.3333V22H-4V0Z" fill="white"/>
</mask>
<g mask="url(#mask0_6029_132557)">
<path fill-rule="evenodd" clip-rule="evenodd" d="M-4 0H25.3333V22H-4V0Z" fill="#F7FCFF"/>
<path fill-rule="evenodd" clip-rule="evenodd" d="M-4 0V7.33333H25.3333V0H-4Z" fill="#C51918"/>
<path fill-rule="evenodd" clip-rule="evenodd" d="M-4 14.6667V22.0001H25.3333V14.6667H-4Z" fill="#409100"/>
<path fill-rule="evenodd" clip-rule="evenodd" d="M10.6844 7.91074L10.1426 8.29365L10.3337 7.65198L9.80765 7.24698L10.4677 7.23332L10.6844 6.6001L10.9012 7.23332L11.5613 7.24698L11.0352 7.65198L11.2264 8.29365L10.6844 7.91074ZM8.39543 8.47243L7.8535 8.85534L8.04472 8.21369L7.51864 7.80868L8.17873 7.79502L8.39543 7.1618L8.61222 7.79502L9.27232 7.80868L8.74615 8.21369L8.93737 8.85534L8.39543 8.47243ZM6.07315 10.5404L6.61508 10.1575L7.15702 10.5404L6.96589 9.89877L7.49197 9.49378L6.83187 9.48013L6.61508 8.84691L6.39838 9.48013L5.73829 9.49378L6.26437 9.89877L6.07315 10.5404ZM6.0429 12.342L5.50097 12.7249L5.69209 12.0832L5.16602 11.6782L5.82611 11.6645L6.0429 11.0313L6.2596 11.6645L6.91969 11.6782L6.39362 12.0832L6.58474 12.7249L6.0429 12.342ZM14.7206 12.7249L15.2626 12.342L15.8044 12.7249L15.6133 12.0832L16.1393 11.6782L15.4792 11.6645L15.2626 11.0313L15.0458 11.6645L14.3857 11.6782L14.9117 12.0832L14.7206 12.7249ZM14.5631 10.1575L14.0212 10.5404L14.2123 9.89877L13.6862 9.49378L14.3463 9.48013L14.5631 8.84691L14.7798 9.48013L15.4399 9.49378L14.9139 9.89877L15.105 10.5404L14.5631 10.1575ZM12.2675 8.85534L12.8094 8.47243L13.3513 8.85534L13.1602 8.21369L13.6862 7.80868L13.0262 7.79502L12.8094 7.1618L12.5927 7.79502L11.9326 7.80868L12.4587 8.21369L12.2675 8.85534ZM7.61113 15.3584L7.4421 14.7567C8.37719 14.5037 9.45061 14.378 10.6628 14.378C11.8749 14.378 12.9483 14.5037 13.8834 14.7567L13.7145 15.3584C12.838 15.1213 11.8207 15.002 10.6628 15.002C9.50487 15.002 8.48756 15.1213 7.61113 15.3584ZM8.76907 14.3936C8.39598 14.457 8.09092 14.0964 8.09092 14.0964L8.46097 13.9434C8.44924 13.6868 8.60407 13.5278 8.60407 13.5278C8.72928 13.5854 8.90006 13.9005 8.90006 13.9005H9.23556C9.23556 13.9005 9.14215 14.3302 8.76907 14.3936ZM13.1778 14.1587C13.1778 14.1587 12.8727 14.5194 12.4996 14.456C12.1265 14.3926 12.033 13.9629 12.033 13.9629H12.3685C12.3685 13.9629 12.5394 13.6478 12.6646 13.5902C12.6646 13.5902 12.8194 13.7492 12.8076 14.0058L13.1778 14.1587ZM10.616 14.2793C10.2377 14.2902 9.98576 13.8906 9.98576 13.8906L10.3735 13.7907C10.3976 13.5349 10.5731 13.399 10.5731 13.399C10.689 13.4735 10.8143 13.8093 10.8143 13.8093L11.1465 13.8559C11.1465 13.8559 10.9942 14.2685 10.616 14.2793Z" fill="#FFBB00"/>
<path fill-rule="evenodd" clip-rule="evenodd" d="M10.6278 12.5569C10.6278 12.5569 10.1979 13.5408 9.52088 13.6168C8.84374 13.6929 8.49989 13.0573 8.49989 13.0573C8.49989 13.0573 8.45553 13.7183 7.65143 13.9732C6.84724 14.2279 6.42383 13.2098 6.42383 13.2098C6.42383 13.2098 6.84247 13.5844 7.49184 13.4211C8.14111 13.258 8.39741 12.6554 8.39741 12.6554C8.39741 12.6554 8.87793 13.2836 9.52088 12.9695C10.1638 12.6554 10.5195 12.2715 10.5195 11.903V10.8014C10.5195 10.8014 10.3537 10.5157 10.0659 10.5157C9.77809 10.5157 9.69779 10.7183 9.69779 10.7183C9.69779 10.7183 9.5855 9.57214 10.6204 9.50129L10.6203 9.49854C10.63 9.49881 10.6396 9.49918 10.649 9.49964C10.6585 9.49918 10.668 9.49881 10.6776 9.49854L10.6775 9.50129C11.7124 9.57214 11.6002 10.7183 11.6002 10.7183C11.6002 10.7183 11.5199 10.5157 11.2321 10.5157C10.9444 10.5157 10.7785 10.8014 10.7785 10.8014V11.903C10.7785 12.2715 11.1342 12.6554 11.7771 12.9695C12.42 13.2836 12.9005 12.6554 12.9005 12.6554C12.9005 12.6554 13.1568 13.258 13.8062 13.4211C14.4555 13.5844 14.8741 13.2098 14.8741 13.2098C14.8741 13.2098 14.4507 14.2279 13.6466 13.9732C12.8424 13.7183 12.7981 13.0573 12.7981 13.0573C12.7981 13.0573 12.4542 13.6929 11.7771 13.6168C11.1 13.5408 10.6701 12.5569 10.6701 12.5569L10.649 11.2584L10.6278 12.5569ZM10.6183 9.80984C10.1409 9.80984 10.0442 10.2141 10.0442 10.2141C10.4646 10.2141 10.6183 10.3973 10.6183 10.3973C10.6183 10.3973 10.9296 10.2141 11.2429 10.2141C11.2429 10.2141 11.0958 9.80984 10.6183 9.80984Z" fill="#FFBB00"/>
</g>
</g>
<defs>
<clipPath id="clip0_6029_132557">
<rect width="22" height="22" rx="11" fill="white"/>
</clipPath>
</defs>
</svg>
