<svg width="22" height="22" viewBox="0 0 22 22" fill="none" xmlns="http://www.w3.org/2000/svg">
<g clip-path="url(#clip0_19514_55556)">
<circle cx="11" cy="11" r="11" fill="#D9D9D9"/>
<g clip-path="url(#clip1_19514_55556)">
<path d="M0 0H29.5862V22H0V0Z" fill="#00843D"/>
<path d="M16.5306 2.42909C16.8835 2.59312 17.1975 2.82943 17.4516 3.12245C17.7058 3.41547 17.8945 3.75855 18.0053 4.1291C18.1161 4.49965 18.1464 4.88926 18.0943 5.27228C18.0422 5.6553 17.9089 6.02303 17.7031 6.35126C17.4973 6.6795 17.2237 6.96078 16.9003 7.17659C16.5769 7.3924 16.2111 7.53784 15.8269 7.60333C15.4427 7.66883 15.0489 7.65289 14.6714 7.55657C14.2939 7.46025 13.9412 7.28573 13.6367 7.0445C14.2418 7.2969 14.9178 7.32718 15.5434 7.12992C16.169 6.93266 16.7031 6.52077 17.05 5.9682C17.3969 5.41563 17.5337 4.75856 17.436 4.11497C17.3383 3.47137 17.0123 2.88339 16.5167 2.45659L16.5306 2.42909ZM13.9141 4.44576L14.2099 3.49242L13.3917 4.08367H14.4041L13.5812 3.49242L13.9141 4.44576ZM13.9141 3.04326L14.2099 2.08992L13.3917 2.68117H14.4041L13.5812 2.07617L13.9141 3.04326ZM15.3102 3.75826L15.606 2.80492L14.7831 3.39617H15.8002L14.9773 2.80492L15.3102 3.75826ZM12.4902 5.14701L12.8092 4.19367L11.9863 4.78034H13.0034L12.1805 4.19367L12.4902 5.14701ZM13.8909 5.85284L14.2053 4.90409L13.3871 5.49076H14.3995L13.5766 4.90409L13.8909 5.85284Z" fill="white"/>
<path d="M4.00391 0H9.99511V22H4.00391V0Z" fill="#D22630"/>
<path d="M5.45424 0H5.26008L4.87639 0.348333L4.7377 0.1925H4.87639L4.8394 0.055H4.61289L4.14135 0.4675V0.641667H4.3725V0.504167L4.4742 0.605L4.22919 0.815833L4.34476 0.916667L3.99805 1.22833V1.4575L4.5759 0.930417L4.4742 0.81125L4.70072 0.600417L4.50656 0.4125L4.63138 0.275L4.89026 0.513333L5.45424 0ZM4.02116 0V0.39875L4.13673 0.275V0.105417H4.27542L4.40486 0H4.02116ZM5.06592 0H4.92724L4.94573 0.105417L5.06592 0Z" fill="#383739"/>
<path d="M5.43503 0H5.25937L4.88954 0.348333L4.71849 0.174167H4.87567L4.83869 0.0504167H4.63066L4.173 0.485833V0.623333H4.34867V0.449167L4.50584 0.605L4.26083 0.815833L4.36716 0.916667L4.01582 1.265V1.43917L4.54283 0.916667L4.4365 0.815833L4.68151 0.605L4.47348 0.417083L4.64915 0.26125L4.88954 0.504167L5.41654 0H5.43503ZM4.00195 0V0.380417L4.10366 0.26125V0.0870833H4.26083L4.36716 0H4.00195ZM5.04672 0H4.9635V0.06875L5.04672 0Z" fill="#FFC72C"/>
<path d="M4.00267 2.54834V2.77292L4.33551 3.08459L4.2107 3.18542L4.45571 3.41459L4.34938 3.49709V3.35959H4.14135V3.53376L4.61289 3.96917H4.84403L4.87639 3.79501H4.71459L4.85327 3.67126L5.23697 4.01959L4.85327 4.33126L4.71459 4.20751H4.85327L4.81629 4.03792H4.58977L4.13673 4.50542V4.67501H4.36787V4.50542L4.46958 4.60626L4.22457 4.81709L4.34476 4.93626L3.99805 5.24792V5.45876L4.5759 4.93626L4.4742 4.81709L4.70072 4.60626L4.50656 4.41834L4.63138 4.29459L4.89026 4.50542L5.46811 3.98292L4.89026 3.46501L4.63138 3.70792L4.50656 3.58417L4.70072 3.39626L4.46958 3.16709L4.5759 3.07084L4.02116 2.54834H4.00267ZM4.00267 3.58417V4.41834L4.12286 4.28084V4.10667H4.26155L4.38637 4.00126L4.26155 3.89584H4.12286V3.72626L4.00267 3.58417ZM4.96422 3.88209V4.10667L5.08442 4.00126L4.96422 3.88209Z" fill="#383739"/>
<path d="M4.00195 2.58032V2.75449L4.34867 3.08449L4.24696 3.18532L4.49197 3.41449L4.3348 3.53366V3.37782H4.15913V3.51532L4.61217 3.95074H4.8202L4.85718 3.82699H4.68151L4.87567 3.65282L5.27786 4.00116L4.87567 4.34949L4.7 4.17532H4.85718L4.8202 4.06991H4.61217L4.15913 4.48241V4.62449H4.3348V4.45032L4.49197 4.60616L4.24696 4.81699L4.34867 4.93616L4.00195 5.26616V5.44032L4.52433 4.91782L4.41801 4.81699L4.66302 4.60616L4.45499 4.41824L4.63066 4.26241L4.88954 4.50532L5.43503 4.00116L4.87567 3.49699L4.61217 3.73991L4.45499 3.60241L4.66302 3.41449L4.41801 3.18532L4.54283 3.08449L4.00195 2.58032ZM4.00195 3.62074V4.38157L4.10366 4.28074V4.10657H4.26083L4.36716 4.00116L4.26083 3.91407H4.10366V3.73991L4.00195 3.62074ZM4.97737 3.91407V4.06991L5.06983 4.00116L4.97737 3.91407Z" fill="#FFC72C"/>
<path d="M4.00267 6.68701V6.92993L4.33551 7.2416L4.2107 7.34701L4.45571 7.55326L4.34938 7.65868V7.52118H4.14135V7.69076L4.61289 8.10326H4.84403L4.87639 7.96576H4.71459L4.85327 7.82826L5.23697 8.15826L4.85327 8.5066L4.71459 8.35076H4.85327L4.81629 8.19493H4.58977L4.11824 8.62576V8.79993H4.36325V8.66243L4.46958 8.74951L4.22457 8.9741L4.34476 9.07493L3.99805 9.39118V9.61576L4.5759 9.09326L4.4742 8.9741L4.70072 8.74493L4.50656 8.57535L4.63138 8.43785L4.89026 8.66243L5.46811 8.13993L4.89026 7.62201L4.63138 7.86493L4.50656 7.72743L4.70072 7.55326L4.46958 7.3241L4.5759 7.22326L4.02116 6.70535L4.00267 6.68701ZM4.00267 7.72743V8.53868L4.12286 8.41951V8.24534H4.26155L4.38637 8.13993L4.26155 8.02076H4.12286V7.86493L4.00267 7.72743ZM4.96422 8.02076V8.24993L5.08442 8.12618L4.96422 8.02076Z" fill="#383739"/>
<path d="M4.00195 6.70532V6.87491L4.34867 7.22324L4.25159 7.33324L4.4966 7.53949L4.33942 7.67699V7.50741H4.15913V7.67699L4.61217 8.07574H4.8202L4.85718 7.95657H4.68151L4.87567 7.78241L5.27786 8.13074L4.87567 8.49282L4.7 8.31866H4.85718L4.8202 8.19949H4.61217L4.15913 8.63032V8.76782H4.3348V8.59824L4.49197 8.73574L4.24696 8.96032L4.34867 9.06574L4.00195 9.40949V9.58366L4.52433 9.06574L4.41801 8.96032L4.66302 8.73116L4.45499 8.56157L4.63066 8.38741L4.88954 8.66241L5.43503 8.14449L4.87567 7.66324L4.61217 7.90157L4.45499 7.74574L4.66302 7.57616L4.41801 7.34699L4.54283 7.24616L4.00195 6.70532ZM4.00195 7.74116V8.52032L4.10366 8.40116V8.22699H4.26083L4.36716 8.13991L4.26083 8.03907H4.10366V7.86491L4.00195 7.75949V7.74116ZM4.97737 8.05282V8.20866L5.06983 8.12616L4.97737 8.05282Z" fill="#FFC72C"/>
<path d="M4.00267 10.8259V11.0367L4.33551 11.3484L4.2107 11.4492L4.45571 11.6784L4.34938 11.7792V11.6417H4.14135V11.8159L4.61289 12.2284H4.84403L4.87639 12.0725H4.71459L4.85327 11.9534L5.23697 12.2834L4.85327 12.6088L4.71459 12.4713H4.85327L4.81629 12.3155H4.58977L4.11824 12.7509V12.925H4.36325V12.7875L4.46958 12.87L4.22457 13.0992L4.34476 13.2L3.99805 13.5117V13.7409L4.5759 13.2138L4.4742 13.09L4.70072 12.8655L4.50656 12.6913L4.63138 12.5538L4.89026 12.7967L5.46811 12.2788L4.89026 11.7563L4.63138 11.9855L4.50656 11.8617L4.70072 11.6875L4.46958 11.4446L4.5759 11.3438L4.02116 10.8213L4.00267 10.8259ZM4.00267 11.8663V12.6821L4.12286 12.5446V12.3842H4.26155L4.39099 12.2834L4.26617 12.1596H4.12749V12.0084L4.00267 11.8663ZM4.96422 12.1596V12.3888L5.08442 12.265L4.96422 12.1596Z" fill="#383739"/>
<path d="M4.00267 10.8442V11.0184L4.34938 11.3622L4.24768 11.4538L4.49269 11.6738L4.33551 11.8113V11.6417H4.15985V11.7976L4.61289 12.2101H4.82091L4.8579 12.0909H4.68223L4.87639 11.9167L5.27857 12.2651L4.87639 12.6317L4.70072 12.453H4.8579L4.82091 12.3338H4.61289L4.15985 12.7463V12.9067H4.33551V12.7326L4.49269 12.8701L4.24768 13.0992L4.34476 13.2001L3.99805 13.5484V13.718L4.52505 13.2001L4.41873 13.0947L4.66374 12.8701L4.45571 12.6959L4.63138 12.5263L4.89026 12.783L5.43575 12.2651L4.87639 11.7792L4.61289 12.0222L4.45571 11.8663L4.66374 11.6922L4.41873 11.4492L4.54354 11.3484L4.00267 10.8442ZM4.00267 11.8847V12.6638L4.10437 12.5401V12.3751H4.26155L4.36787 12.2834L4.26155 12.1826H4.10437V12.0084L4.00267 11.9076V11.8847ZM4.97809 12.1963V12.3522L5.07055 12.2605L4.97809 12.1963Z" fill="#FFC72C"/>
<path d="M4.00267 14.9692V15.1755L4.33551 15.4872L4.2107 15.5926L4.45571 15.8172L4.34938 15.9042V15.7667H4.14135V15.9363L4.61289 16.3717H4.84403L4.87639 16.2159H4.71459L4.85327 16.0784L5.23697 16.4222L4.85327 16.7522L4.71459 16.6147H4.85327L4.81629 16.4588H4.58977L4.11824 16.8897V17.0638H4.36325V16.908L4.46958 17.0088L4.22457 17.238L4.34476 17.3388L3.99805 17.6505V17.8613L4.5759 17.3388L4.4742 17.238L4.70072 17.0088L4.50656 16.8209L4.63138 16.6972L4.89026 16.9401L5.46811 16.4222L4.89026 15.9042L4.63138 16.1288L4.50656 16.0051L4.70072 15.8172L4.46958 15.588L4.5759 15.4917L4.00267 14.9692ZM4.00267 16.0051V16.8209L4.12286 16.6834V16.5276H4.26155L4.38637 16.4038L4.26155 16.303H4.12286V16.1288L4.00267 16.0051ZM4.96422 16.303V16.5092L5.08442 16.4038L4.96422 16.303Z" fill="#383739"/>
<path d="M4.00195 14.9875V15.1571L4.34404 15.4917L4.24234 15.5971L4.48735 15.8217L4.33018 15.9592V15.785H4.15913V15.9409L4.61217 16.3534H4.8202L4.85718 16.2342H4.68151L4.87567 16.0646L5.27786 16.4084L4.87567 16.775L4.7 16.6009H4.85718L4.8202 16.4771H4.61217L4.15913 16.8942V17.05H4.3348V16.8759L4.49197 17.0134L4.24696 17.2425L4.34867 17.3434L4.00195 17.6917V17.8475L4.52433 17.325L4.41801 17.2334L4.66302 17.0088L4.45499 16.8209L4.63066 16.665L4.88954 16.908L5.43503 16.4038L4.87567 15.8996L4.61217 16.1471L4.45499 16.0096L4.66302 15.8171L4.41801 15.588L4.54283 15.4871L4.00195 14.9875ZM4.00195 16.0234V16.8025L4.10366 16.6971V16.5275H4.26083L4.36716 16.4221L4.26083 16.335H4.10366V16.1609L4.00195 16.0417V16.0234ZM4.97737 16.3167V16.4909L5.06983 16.4038L4.97737 16.3167Z" fill="#FFC72C"/>
<path d="M8.5293 0H8.73732L9.08866 0.348333L9.26433 0.174167H9.12564L9.158 0.0366667H9.38452L9.85605 0.449167V0.623333H9.61567V0.485833L9.50934 0.59125L9.75435 0.7975L9.63416 0.902917L9.98549 1.21458V1.43917L9.40301 0.916667L9.50472 0.7975L9.2782 0.59125L9.47236 0.39875L9.34754 0.26125L9.08866 0.517917L8.5293 0ZM9.99474 0V0.39875L9.85605 0.275V0.105417H9.71737L9.59255 0H9.99474ZM8.8945 0H9.03319L9.01932 0.105417L8.8945 0Z" fill="#383739"/>
<path d="M8.56198 0H8.70067L9.10748 0.348333L9.27852 0.174167H9.12134L9.15833 0.0504167H9.36636L9.82402 0.485833V0.623333H9.64835V0.449167L9.50966 0.605L9.73618 0.815833L9.62986 0.935L9.98119 1.265V1.43917L9.45419 0.916667L9.56051 0.815833L9.3155 0.605L9.52353 0.417083L9.34786 0.26125L9.12134 0.517917L8.55273 0H8.56198ZM9.99506 0V0.380417L9.87487 0.26125V0.0870833H9.71769L9.62523 0H9.99506ZM8.91332 0H9.01964V0.06875L8.91332 0Z" fill="#FFC72C"/>
<path d="M9.99442 2.54834V2.77292L9.6477 3.08459L9.7679 3.18542L9.52289 3.41459L9.62921 3.49709V3.35959H9.83724V3.53376L9.36571 3.96917H9.13919L9.10683 3.79501H9.24551L9.10683 3.67126L8.737 4.01959L9.08834 4.33126L9.24551 4.20751H9.10683L9.13919 4.03792H9.37033L9.83724 4.48709V4.66126H9.61534V4.50542L9.50902 4.60626L9.75403 4.81709L9.63383 4.93626L9.98517 5.24792V5.45876L9.40731 4.93626L9.50902 4.81709L9.2825 4.60626L9.47666 4.41834L9.35184 4.29459L9.09296 4.50542L8.50586 3.98292L9.08372 3.46501L9.34259 3.70792L9.46741 3.58417L9.27325 3.39626L9.50439 3.16709L9.39807 3.06626L9.97592 2.54834H9.99442ZM9.99442 3.58417V4.41834L9.85573 4.28084V4.10667H9.71704L9.59223 4.00126L9.71704 3.89584H9.85573V3.72626L9.99442 3.58417ZM9.019 3.88209L9.03286 4.00126L9.019 4.10667L8.89418 4.00126L9.019 3.88209Z" fill="#383739"/>
<path d="M9.9935 2.58032V2.75449L9.60981 3.06616L9.71613 3.17157L9.48499 3.39616L9.62367 3.51532V3.35949H9.80397V3.49699L9.3463 3.93241H9.13828L9.10592 3.80866H9.27696L9.08743 3.63907L8.68524 3.98282L9.08743 4.33116L9.26309 4.15699H9.10592L9.13828 4.05157H9.3463L9.80397 4.46866V4.60616H9.6283V4.43657L9.48961 4.59241L9.71613 4.79866L9.60981 4.91782L9.96114 5.24782V5.42199L9.42952 4.90407L9.53584 4.79866L9.29083 4.59241L9.49886 4.39991L9.32781 4.24407L9.0828 4.48699L8.52344 3.98282L9.07818 3.47866L9.34168 3.72616L9.49886 3.58866L9.29083 3.39616L9.53584 3.16699L9.41565 3.06616L9.9935 2.58032ZM9.9935 3.62074V4.38157L9.87331 4.28074V4.10657H9.71613L9.62367 4.00116L9.71613 3.91407H9.87331V3.73991L9.9935 3.62074ZM8.99959 3.91407L9.01808 4.00574V4.06991L8.91176 4.00116L8.99959 3.91407Z" fill="#FFC72C"/>
<path d="M9.9937 6.68701V6.92993L9.64698 7.2416L9.76718 7.34701L9.52217 7.55326L9.62849 7.65868V7.52118H9.83652V7.69076L9.36499 8.10326H9.13847L9.08762 7.96576H9.22631L9.08762 7.82826L8.73628 8.13993L9.08762 8.48826L9.2448 8.33243H9.10611L9.13847 8.1766H9.36961L9.83652 8.60743V8.7816H9.61463V8.6441L9.5083 8.73118L9.75331 8.95576L9.63312 9.06118L9.98445 9.37285V9.59743L9.40197 9.07493L9.50368 8.95576L9.27716 8.7266L9.47132 8.55701L9.3465 8.41951L9.08762 8.66243L8.50977 8.13993L9.08762 7.62201L9.3465 7.86493L9.47132 7.72743L9.27716 7.55326L9.5083 7.3241L9.40197 7.22326L9.97983 6.70535L9.9937 6.68701ZM9.9937 7.72743V8.53868L9.85501 8.41951V8.24535H9.71633L9.59151 8.13993L9.71633 8.02076H9.85501V7.86493L9.9937 7.72743ZM9.01828 8.02076L9.03215 8.12618L9.01828 8.24535L8.89346 8.12618L9.01828 8.02076Z" fill="#383739"/>
<path d="M9.9935 6.70532V6.87491L9.62367 7.22324L9.73462 7.32866L9.50348 7.53491L9.64217 7.67241V7.50282H9.82246V7.67241L9.3648 8.07116H9.15677L9.11978 7.95199H9.29545L9.08743 7.79616L8.68524 8.13991L9.08743 8.50657L9.26309 8.33241H9.10592L9.13828 8.20866H9.3463L9.80397 8.64407V8.78157H9.6283V8.60741L9.48961 8.74491L9.71613 8.97407L9.60981 9.07491L9.96114 9.42324V9.59741L9.42952 9.07491L9.53584 8.97407L9.29083 8.74491L9.49886 8.57532L9.32781 8.40116L9.0828 8.66241L8.52344 8.13991L9.07818 7.65866L9.34168 7.89699L9.49886 7.74116L9.29083 7.57157L9.53584 7.34241L9.41565 7.24157L9.9935 6.70532ZM9.9935 7.74116V8.52032L9.87331 8.40116V8.22699H9.71613L9.62367 8.13991L9.71613 8.03907H9.87331V7.86491L9.9935 7.75949V7.74116ZM8.99959 8.05282L9.01808 8.12616V8.20866L8.91176 8.12616L8.99959 8.05282Z" fill="#FFC72C"/>
<path d="M9.99442 10.8259V11.0368L9.6477 11.3484L9.7679 11.4493L9.52289 11.6784L9.62921 11.7793V11.6418H9.83724V11.8159L9.36571 12.2284H9.13919L9.10683 12.0726H9.24551L9.10683 11.9534L8.737 12.2834L9.08834 12.6088L9.24551 12.4713H9.10683L9.13919 12.3155H9.37033L9.83724 12.7509V12.9251H9.61534V12.7876L9.50902 12.8701L9.75403 13.0993L9.63383 13.2001L9.98517 13.5118V13.7409L9.40731 13.2184L9.50902 13.0947L9.2825 12.8701L9.47666 12.6959L9.35184 12.5584L9.09296 12.8013L8.50586 12.2834L9.08372 11.7609L9.34259 11.9901L9.46741 11.8663L9.27325 11.6922L9.50439 11.4493L9.39807 11.3484L9.97592 10.8259H9.99442ZM9.99442 11.8663V12.6822L9.85573 12.5447V12.3843H9.71704L9.59223 12.2834L9.71704 12.1597H9.85573V12.0084L9.99442 11.8663ZM9.019 12.1597L9.03286 12.2651L9.019 12.3843L8.89418 12.2651L9.019 12.1597Z" fill="#383739"/>
<path d="M9.99383 10.8442V11.0184L9.624 11.3622L9.73495 11.4538L9.5038 11.6738L9.64249 11.8113V11.6417H9.82278V11.7976L9.36512 12.2101H9.15709L9.12011 12.0909H9.29578L9.10624 11.9167L8.70405 12.2651L9.10624 12.6317L9.27728 12.453H9.12011L9.15709 12.3338H9.36512L9.82278 12.7463V12.9067H9.64711V12.7326L9.50843 12.8701L9.73495 13.0992L9.62862 13.2001L9.97996 13.5484V13.718L9.45295 13.2001L9.55928 13.0947L9.31427 12.8701L9.5223 12.6959L9.34663 12.5263L9.10624 12.783L8.54688 12.2651L9.10162 11.7792L9.36512 12.0222L9.5223 11.8663L9.31427 11.6922L9.55928 11.4492L9.43446 11.3484L9.99383 10.8442ZM9.99383 11.8847V12.6638L9.87363 12.5401V12.3751H9.71645L9.624 12.2834L9.71645 12.1826H9.87363V12.0084L9.99383 11.9076V11.8847ZM8.99991 12.1963L9.01841 12.2651V12.3522L8.91208 12.2605L8.99991 12.1963Z" fill="#FFC72C"/>
<path d="M9.99494 14.9692V15.1755L9.64822 15.4872L9.76842 15.5926L9.52341 15.8172L9.62973 15.9042V15.7667H9.83776V15.9363L9.36623 16.3717H9.13971L9.10735 16.2159H9.24603L9.10735 16.0784L8.73752 16.4222L9.08886 16.7522L9.24603 16.6147H9.10735L9.13971 16.4588H9.37085L9.83776 16.8897V17.0638H9.61586V16.908L9.50954 17.0088L9.75455 17.238L9.63435 17.3388L9.98569 17.6505V17.8613L9.40783 17.3388L9.50954 17.238L9.28302 17.0088L9.47718 16.8209L9.35236 16.6972L9.09348 16.9401L8.51562 16.4222L9.09348 15.9042L9.35236 16.1288L9.47718 16.0051L9.28302 15.8172L9.51416 15.588L9.40783 15.4872L9.99494 14.9692ZM9.99494 16.0051V16.8209L9.85625 16.6834V16.5276H9.71756L9.59275 16.4038L9.71756 16.303H9.85625V16.1288L9.99494 16.0051ZM9.01952 16.303L9.03338 16.4038L9.01952 16.5092L8.8947 16.4038L9.01952 16.303Z" fill="#383739"/>
<path d="M9.9935 14.9875V15.1571L9.61443 15.4917L9.72075 15.5971L9.48961 15.8217L9.6283 15.9592V15.785H9.80859V15.9409L9.35093 16.3534H9.1429L9.11054 16.2342H9.28158L9.09205 16.0646L8.68986 16.4084L9.09205 16.775L9.26772 16.6009H9.10592L9.13828 16.4771H9.3463L9.80397 16.8942V17.05H9.6283V16.8759L9.48961 17.0134L9.71613 17.2425L9.60981 17.3434L9.96114 17.6917V17.8475L9.42952 17.325L9.53584 17.2334L9.29083 17.0088L9.49886 16.8209L9.32781 16.665L9.0828 16.908L8.52344 16.4038L9.07818 15.8996L9.34168 16.1471L9.49886 16.0096L9.29083 15.8171L9.53584 15.588L9.41565 15.4871L9.9935 14.9875ZM9.9935 16.0234V16.8025L9.87331 16.6971V16.5275H9.71613L9.62367 16.4221L9.71613 16.335H9.87331V16.1609L9.9935 16.0417V16.0234ZM8.99959 16.3167L9.01808 16.4084V16.4909L8.91176 16.4038L8.99959 16.3167Z" fill="#FFC72C"/>
<path d="M4.47462 19.47C4.50698 19.5937 4.61331 19.6808 4.65029 19.8183C4.68265 19.6808 4.71963 19.5571 4.69652 19.4196C4.66416 19.3141 4.57633 19.2454 4.57633 19.1262C4.47462 19.2087 4.45613 19.3325 4.47462 19.47ZM4.45613 19.9925C4.54271 20.1052 4.65743 20.1937 4.78898 20.2491C4.75199 20.1483 4.78898 20.075 4.85832 19.9925C4.90917 19.9008 4.94615 19.8183 4.89068 19.6946C4.8701 19.75 4.84211 19.8024 4.80747 19.8504C4.74869 19.9192 4.71171 20.0037 4.70114 20.0933C4.6318 20.0429 4.61331 19.9741 4.57633 19.9054C4.52194 19.8028 4.43835 19.7183 4.33594 19.6625C4.3683 19.7816 4.38217 19.8871 4.45613 19.9925ZM4.92766 20.3362L4.89068 20.5104L4.70114 20.3729C4.61331 20.2812 4.50698 20.2491 4.43764 20.1437C4.43871 20.2085 4.45517 20.2722 4.48569 20.3295C4.51621 20.3869 4.55993 20.4363 4.61331 20.4737L4.98314 20.7029C4.96464 20.5791 5.0155 20.4737 5.04786 20.3546C5.05905 20.3065 5.0586 20.2566 5.04654 20.2088C5.03449 20.161 5.01117 20.1167 4.97851 20.0796C4.97851 20.1621 4.94615 20.2491 4.92766 20.3179V20.3362ZM5.17267 20.735L5.31136 20.9779C5.19116 20.9412 5.08484 20.8725 4.96464 20.8037C4.83983 20.735 4.70114 20.7029 4.57633 20.5975C4.6046 20.6964 4.6582 20.7863 4.73192 20.8586C4.80563 20.9309 4.89695 20.983 4.997 21.01C5.15418 21.0466 5.27437 21.0283 5.45004 21.1016C5.42806 20.9801 5.38753 20.8627 5.32985 20.7533L5.22352 20.5104C5.19761 20.542 5.17952 20.5792 5.17069 20.619C5.16186 20.6588 5.16254 20.7001 5.17267 20.7396V20.735ZM5.62571 21.065C5.67019 21.1353 5.73024 21.1948 5.80138 21.2391C5.62571 21.2391 5.48703 21.1475 5.31136 21.1337C5.20966 21.1337 5.10333 21.1704 4.997 21.1521C5.13569 21.2391 5.26051 21.3262 5.41306 21.3262C5.60722 21.3583 5.80138 21.3262 6.0279 21.3262C5.93389 21.2568 5.85653 21.1675 5.80138 21.065C5.71355 20.9275 5.62571 20.8358 5.46853 20.8221L5.6442 21.065H5.62571ZM6.24055 21.34C5.94006 21.395 5.6442 21.4637 5.32985 21.4637C5.65863 21.5996 6.02726 21.6061 6.36074 21.4821C6.53641 21.4271 6.69359 21.3766 6.83227 21.3904C7.0403 21.3904 7.28531 21.4958 7.56731 21.7754L7.67363 21.6883C7.47732 21.5258 7.24615 21.41 6.99778 21.3496C6.7494 21.2892 6.4904 21.2859 6.24055 21.34Z" fill="#FFC72C"/>
<path d="M4.75174 2.5804L4.26172 2.29165V1.59498L4.75174 1.29706V0.916647L5.19091 0.65998H5.56074L6.25417 0.26123H7.72423L8.42228 0.65998H8.77362L9.26364 0.916647V1.29706L9.73517 1.59498V2.28248L9.26364 2.5804V2.94706L8.80598 3.22206H8.43615L7.74272 3.60248H6.27266L5.57461 3.22206H5.22327L4.73325 2.94706L4.75174 2.5804Z" fill="#383739"/>
<path d="M6.25521 0.274902L5.56178 0.673652H5.21044L4.75278 0.934902V1.30157L4.28125 1.5949V2.2824L4.75278 2.56199V2.94699L5.21044 3.20365H5.55716L6.25521 3.58407H7.72527L8.42332 3.20365H8.77466L9.22769 2.94699V2.56199L9.69922 2.28699V1.5949L9.22769 1.29699V0.934902L8.77466 0.673652H8.42332L7.72527 0.274902H6.25521ZM6.29219 0.430736H7.68829L8.39096 0.815736H8.73767L9.08901 1.00365V1.38407L9.56054 1.68199V2.1999L9.07052 2.49324V2.8599L8.73767 3.06615H8.39096L7.68829 3.44657H6.29219L5.59414 3.07074H5.2428L4.89147 2.86449V2.49782L4.41994 2.1999V1.68199L4.90996 1.38407V1.00824L5.26129 0.820319H5.60801L6.29219 0.430736Z" fill="#00843D"/>
<path d="M6.98931 1.93882V0.430908H6.29126L5.60708 0.829658H5.26037L4.90903 1.00382V1.38424L4.4375 1.68216V1.92507H6.98931V3.42841H7.68736L8.39003 3.04799H8.73675L9.0511 2.86007V2.47507L9.54112 2.18174V1.93882H6.98931Z" fill="#FFC72C"/>
<path d="M4.4375 1.93877V2.18169L4.92752 2.47502V2.86002L5.24188 3.0296H5.6117L6.30513 3.42835H6.98931V1.92502H9.54112V1.6821L9.0511 1.38419V1.04044L8.73675 0.82502H8.39003L7.68736 0.42627H6.99393V1.93877H4.4375Z" fill="white"/>
<path d="M5.48636 0.97165L5.36616 0.8479L5.25984 0.91665L5.38003 1.0404L5.20898 1.12748H5.5557L5.83307 1.40248L5.92553 1.29707L5.64353 1.0404V0.866234L5.48636 0.97165Z" fill="#383739"/>
<path d="M6.04559 0.916751L5.9254 0.815918L5.81907 0.884668L5.93927 0.985501L5.7636 1.07717H6.11494L6.39231 1.35217L6.48476 1.24675L6.22126 0.985501V0.815918L6.04559 0.916751ZM5.44925 1.26508L5.32905 1.15967L5.20886 1.25133L5.32905 1.35217L5.17188 1.43925H5.52321L5.80058 1.71425L5.88842 1.60883L5.61105 1.35217V1.178L5.44925 1.26508Z" fill="#383739"/>
<path d="M6.98981 0.430908H6.69395L6.53677 0.568408H6.22242L6.00977 0.692158L6.06524 0.815908L6.25478 0.710492H6.34723L6.65696 1.05882L6.98981 0.866325V0.430908Z" fill="#383739"/>
<path d="M5.36251 0.866256L5.46883 0.971673L5.381 1.02209L5.2793 0.935006L5.36251 0.866256ZM5.6445 0.902923V1.04042L5.908 1.29709L5.83866 1.37042L5.56129 1.10917H5.2793L5.62601 0.880007L5.6445 0.902923ZM5.92187 0.82959L6.0282 0.921257L5.94036 0.985423L5.83866 0.88459L5.92187 0.82959ZM6.20387 0.82959V1.00834L6.46737 1.25126L6.39803 1.33834L6.12065 1.04501H5.83866L6.18537 0.834173L6.20387 0.82959Z" fill="#D22630"/>
<path d="M5.33002 1.19174L5.43635 1.28341L5.34389 1.33382L5.24219 1.24674L5.33002 1.19174ZM5.59352 1.19174V1.37507L5.87089 1.61341L5.80155 1.68674L5.52418 1.42549H5.24681L5.59352 1.19174ZM6.98962 0.430908H6.69376L6.53658 0.605075H6.24072L6.02807 0.696742L6.06505 0.797575L6.24072 0.687575H6.36092L6.63829 1.03591L6.98962 0.861741V0.430908Z" fill="#D22630"/>
<path d="M5.48636 2.91051L5.36616 3.01593L5.25984 2.94718L5.38003 2.84176L5.20898 2.73635H5.5557L5.83307 2.4751L5.92553 2.58051L5.63891 2.84176V3.01593L5.48636 2.91051Z" fill="#383739"/>
<path d="M6.04559 2.94708L5.9254 3.06625L5.81907 2.9975L5.93927 2.89208L5.7636 2.79125H6.11494L6.39231 2.53L6.48476 2.61708L6.22126 2.87375V3.04791L6.04559 2.94708ZM5.44925 2.59875L5.32905 2.70416L5.20886 2.63083L5.32905 2.53L5.17188 2.42458H5.52321L5.80058 2.16333L5.88842 2.255L5.61105 2.51166V2.68583L5.44925 2.59875Z" fill="#383739"/>
<path d="M6.98981 3.44684H6.69395L6.53677 3.29101H6.22242L6.00977 3.18559L6.06524 3.04809L6.25478 3.15351H6.34723L6.65696 2.80518L7.0083 3.01601L6.98981 3.44684Z" fill="#383739"/>
<path d="M5.36251 2.99757L5.46883 2.89216L5.381 2.84174L5.2793 2.94716L5.36251 2.99757ZM5.6445 2.97924V2.82341L5.908 2.56216L5.83866 2.49341L5.56129 2.75466H5.2793L5.62601 2.98382L5.6445 2.97924ZM5.92187 3.04799L6.0282 2.94716L5.94036 2.89216L5.83866 2.99757L5.92187 3.04799ZM6.20387 3.02966V2.86007L6.46737 2.61716L6.39803 2.54841L6.12065 2.80507H5.83866L6.18537 3.03424L6.20387 3.02966Z" fill="#D22630"/>
<path d="M5.33002 2.68581L5.43635 2.58039L5.34389 2.52997L5.24219 2.63081L5.33002 2.68581ZM5.59352 2.66747V2.51164L5.87089 2.25039L5.80155 2.18164L5.52418 2.44289H5.24681L5.59352 2.66747ZM6.98962 3.42831H6.69376L6.53658 3.27247H6.24072L6.02807 3.17164L6.06505 3.07997L6.24072 3.17164H6.36092L6.65678 2.82331L6.98962 3.01581V3.42831Z" fill="#D22630"/>
<path d="M5.29277 1.45306L5.15408 1.40723L4.96455 1.52639V1.55848L4.66406 1.93889L4.96455 2.30556V2.33764L5.13559 2.47514L5.29277 2.42931L5.20956 2.35598V2.25056L5.24192 2.21848H5.39909V1.66389H5.22343L5.20956 1.62723V1.51264L5.29277 1.45306Z" fill="#383739"/>
<path d="M4.9775 1.54007L5.15317 1.4209L5.2595 1.45298L5.19015 1.50798V1.62715L5.22251 1.68215H5.37969V2.20007H5.22251L5.19015 2.25048V2.37423L5.2595 2.40632L5.15317 2.46132L4.9775 2.33757V2.30548L4.68164 1.93882L4.9775 1.5584V1.54007Z" fill="#D22630"/>
<path d="M8.4919 0.97165L8.61672 0.8479L8.71842 0.91665L8.61672 1.0404L8.75541 1.12748H8.42256L8.14519 1.40248L8.05273 1.29707L8.33473 1.0404V0.866234L8.4919 0.97165Z" fill="#383739"/>
<path d="M7.93403 0.916751L8.05884 0.815918L8.16055 0.884668L8.05884 0.985501L8.19753 1.07717H7.86006L7.58269 1.35217L7.49023 1.24675L7.77223 0.985501V0.815918L7.93403 0.916751ZM8.53037 1.26508L8.65057 1.15967L8.77539 1.25133L8.65057 1.35217L8.80775 1.43925H8.46103L8.19753 1.73258L8.1097 1.62717L8.38707 1.3705V1.19175L8.53037 1.26508Z" fill="#383739"/>
<path d="M6.99023 0.430908H7.2861L7.46176 0.568408H7.75763L7.98877 0.692158L7.9333 0.815908L7.72527 0.710492H7.63743L7.32308 1.05882L6.99023 0.866325V0.430908Z" fill="#383739"/>
<path d="M8.61781 0.866256L8.51149 0.971673L8.59932 1.02209L8.70565 0.935006L8.61781 0.866256ZM8.35431 0.902923V1.04042L8.07694 1.29709L8.14628 1.37042L8.42366 1.10917H8.70103L8.35431 0.880007V0.902923ZM8.03996 0.82959L7.93363 0.921257L8.02609 0.985423L8.12779 0.88459L8.03996 0.82959ZM7.77646 0.82959V1.00834L7.51758 1.25126L7.58692 1.33834L7.86429 1.04501H8.14166L7.79495 0.834173L7.77646 0.82959Z" fill="#D22630"/>
<path d="M8.64984 1.1918L8.54813 1.28346L8.63134 1.33388L8.73767 1.2468L8.64984 1.1918ZM8.39096 1.1918V1.37513L8.10896 1.61346L8.17831 1.6868L8.45568 1.42555H8.73767L8.39096 1.1918ZM6.99023 0.435547H7.2861L7.44327 0.609714H7.74376L7.95179 0.70138L7.9148 0.802214L7.74376 0.696797H7.63743L7.32308 1.04513L6.99023 0.870964V0.435547Z" fill="#D22630"/>
<path d="M8.4919 2.91051L8.61672 3.01593L8.71842 2.94718L8.61672 2.84176L8.75541 2.73635H8.42256L8.14519 2.4751L8.05273 2.58051L8.33473 2.84176V3.01593L8.4919 2.91051Z" fill="#383739"/>
<path d="M7.93403 2.94708L8.05884 3.06625L8.16055 2.9975L8.05884 2.89208L8.19753 2.79125H7.86006L7.58269 2.53L7.49023 2.61708L7.77223 2.87375V3.04791L7.93403 2.94708ZM8.53037 2.59875L8.64595 2.70416L8.77076 2.63083L8.64595 2.53L8.80312 2.42458H8.46103L8.18366 2.16333L8.0912 2.255L8.36857 2.51166V2.68583L8.53037 2.59875Z" fill="#383739"/>
<path d="M6.99023 3.44684H7.2861L7.46176 3.29101H7.75763L7.98877 3.18559L7.9333 3.04809L7.72527 3.15351H7.63743L7.32308 2.80518L6.99023 3.01601V3.44684Z" fill="#383739"/>
<path d="M8.61781 2.99757L8.50687 2.88757L8.59932 2.84174L8.70565 2.94716L8.61781 2.99757ZM8.35431 2.97924V2.82341L8.07694 2.56216L8.14628 2.49341L8.42366 2.75466H8.70103L8.35431 2.97924ZM8.05845 3.04799L7.95213 2.94716L8.03996 2.89216L8.14628 2.99757L8.05845 3.04799ZM7.79495 3.02966V2.86007L7.51758 2.63091L7.5823 2.56674L7.85967 2.82799H8.13704L7.79033 3.05716L7.79495 3.02966Z" fill="#D22630"/>
<path d="M8.64984 2.68581L8.54813 2.58039L8.63134 2.52997L8.73767 2.63081L8.64984 2.68581ZM8.39096 2.66747V2.51164L8.10896 2.25039L8.17831 2.18164L8.45568 2.44289H8.73767L8.39096 2.66747ZM6.99023 3.42831H7.2861L7.44327 3.27247H7.74376L7.95179 3.17164L7.9148 3.07997L7.74376 3.17164H7.63743L7.32308 2.82331L6.99023 3.01581V3.42831Z" fill="#D22630"/>
<path d="M8.6864 1.45306L8.82509 1.40723L9.01925 1.52639V1.55848L9.31511 1.93889L9.01925 2.30556V2.33764L8.84358 2.47514L8.6864 2.42931L8.77424 2.35598V2.25056L8.73725 2.21848H8.58008V1.66389H8.75575L8.77424 1.62723V1.51264L8.6864 1.45306Z" fill="#383739"/>
<path d="M9.0018 1.54007L8.82613 1.4209L8.7198 1.45298L8.78915 1.50798V1.62715L8.75679 1.68215H8.59961V2.20007H8.75679L8.78915 2.25048V2.37423L8.7198 2.40632L8.82613 2.46132L9.0018 2.33757V2.30548L9.29766 1.93882L9.0018 1.5584V1.54007Z" fill="#D22630"/>
<path d="M5.03407 2.25047L4.96473 2.18172V2.15422L4.78906 1.94339L4.96473 1.73714V1.69589L5.03407 1.62714L5.19125 1.75089H5.09879L5.22361 1.87005H5.50098L5.73212 1.69589V1.24672H6.273L6.92019 0.847969V0.747135L6.81387 0.692135L6.69367 0.783802V0.829635L6.60122 0.710469L6.78151 0.572969L6.97105 0.449219H7.04039L7.21606 0.572969H7.25304L7.42871 0.710469L7.33625 0.829635L7.32238 0.783802L7.19756 0.692135H7.16521L7.05888 0.760885V0.870885L7.70608 1.26964H8.26544V1.7188L8.47347 1.89297H8.75084L8.87566 1.7738H8.80631L8.945 1.65005L9.01897 1.7188V1.75547L9.19001 1.96172L9.01897 2.16797V2.20464L8.945 2.27339L8.80631 2.15422H8.87566L8.75546 2.03047H8.47809L8.26544 2.20464V2.6538H7.68759L7.04039 3.03422V3.13964L7.14671 3.20839H7.16521L7.2854 3.13964V3.08922L7.37786 3.20839L7.21606 3.33214H7.19756L7.00803 3.46964H6.93406L6.75839 3.33214H6.72141L6.55037 3.19464L6.65207 3.08922V3.13964L6.77689 3.20839H6.79538L6.89708 3.13964V3.03422L6.24988 2.6538H5.70901V2.20005L5.48249 2.02589H5.20512L5.08492 2.15422H5.17276L5.03407 2.25047Z" fill="#383739"/>
<path d="M6.99058 3.20822L7.07841 3.25405L6.99058 3.30905V3.20822ZM6.78255 3.29072L6.95822 3.42822H6.99058V3.32739L6.88887 3.25405L6.9952 3.18072V2.97905L6.29715 2.56655H5.78864V2.14947L5.52976 1.93864H5.12757L5.03511 2.06239L4.93341 1.93864H4.80859L4.97964 2.13114V2.16322L5.03511 2.23655L5.13682 2.14489H5.09059V2.13114L5.21078 1.99364H5.50664L5.75165 2.16322V2.61697H6.27404L6.93973 3.01572V3.13489L6.8334 3.20364H6.78255L6.67622 3.13489V3.1028L6.60688 3.17155L6.74557 3.29072H6.78255ZM5.03511 1.8378L5.10446 1.92489H4.94728L5.03511 1.8378ZM6.99058 0.572803L6.92123 0.623219L6.99058 0.673636V0.572803ZM8.8767 1.95697L8.94604 2.02572L9.0385 1.93864L8.8767 1.95697ZM7.1986 0.572803L7.02756 0.435303H6.99058V0.536136L7.0969 0.627803L6.99058 0.691969V0.870719L7.68863 1.28322H8.19714V1.73697L8.46064 1.92489H8.86283L8.94604 1.81947L9.05236 1.92489H9.17718L9.00151 1.75072V1.69572L8.94604 1.64989L8.84434 1.73239H8.89519L8.77499 1.88822H8.47451L8.24799 1.71405V1.24655H7.69325L7.04605 0.866136V0.746969L7.14775 0.673636H7.1986L7.30493 0.746969V0.779053L7.37427 0.691969L7.23559 0.572803H7.1986Z" fill="#FFC72C"/>
<path d="M6.99058 3.30905L6.92123 3.25864L6.99058 3.20364V3.30905ZM5.10446 1.93864L5.03511 2.0303L4.94266 1.93864H5.10446ZM7.1986 3.29072L7.02756 3.42822H6.99058V3.32739L7.0969 3.25864L6.99058 3.1853V2.97905L7.68863 2.56655H8.19714V2.14947L8.46064 1.93864H8.86283L8.94604 2.06239L9.05236 1.93864H9.17718L9.00151 2.13114V2.16322L8.94604 2.23655L8.84434 2.14489H8.89519V2.13114L8.77499 1.99364H8.47451L8.24799 2.16322V2.61697H7.69325L7.02756 3.01572V3.13489L7.12926 3.20364H7.18474L7.28644 3.13489V3.1028L7.35578 3.17155L7.2171 3.29072H7.1986ZM8.94604 1.8378L8.8767 1.92489H9.03387L8.94604 1.8378ZM6.78255 0.572803L6.95822 0.435303H6.99058V0.536136L6.88425 0.627803L6.99058 0.691969V0.870719L6.29253 1.28322H5.78401V1.73697L5.52513 1.91114H5.12295L5.03049 1.80572L4.92879 1.91114H4.80859L4.97964 1.73697V1.68655L5.03511 1.63155L5.13682 1.72322H5.09059L5.21078 1.87447H5.50664L5.75165 1.7003V1.25114H6.27404L6.95822 0.870719V0.751553L6.85189 0.678219H6.79642L6.69009 0.751553V0.783636L6.62075 0.696553L6.75943 0.577386H6.79642L6.78255 0.572803ZM6.99058 0.691969L7.07841 0.641553L6.99058 0.591136V0.691969Z" fill="white"/>
<path d="M6.98972 1.93867V0.902832L6.29167 1.31533H5.80165V1.73242L5.55664 1.92492H6.98972V2.96075L7.68777 2.54825H8.18242V2.1495L8.42743 1.93867H6.98972Z" fill="#00843D"/>
<path d="M5.55664 1.93867L5.80165 2.1495V2.54825H6.29167L6.98972 2.96075V1.92492H8.4228L8.17779 1.73242V1.31992H7.68777L6.99435 0.902832V1.93867H5.55664Z" fill="#D22630"/>
<path d="M6.25497 1.43918L6.13478 1.31543L6.02845 1.4071L6.13478 1.50793L5.99609 1.59501H6.32432L6.60169 1.87001L6.69414 1.76918L6.41677 1.50793V1.32918L6.25497 1.43918ZM7.72504 2.44293L7.84523 2.54835L7.97005 2.47501L7.84523 2.37418L7.98392 2.26876H7.68806L7.39219 2.00751L7.30436 2.09918L7.58173 2.35585V2.53001L7.72504 2.44293ZM6.25497 2.44293L6.13478 2.54835L6.02845 2.47501L6.13478 2.37418L5.99609 2.26876H6.32432L6.60169 2.00751L6.69414 2.09918L6.41677 2.35585V2.53001L6.25497 2.44293ZM7.72504 1.4346L7.84523 1.31543L7.97005 1.4071L7.84523 1.50793L7.98392 1.59501H7.68806L7.39219 1.87001L7.30436 1.76918L7.58173 1.50793V1.32918L7.72504 1.4346Z" fill="#383739"/>
<path d="M7.84412 2.52997L7.74242 2.42455L7.83025 2.37413L7.93196 2.47497L7.84412 2.52997ZM7.58524 2.51163V2.3558L7.30787 2.09455L7.37259 2.0258L7.64996 2.28705H7.93196L7.58524 2.51163ZM6.11518 1.35205L6.2215 1.43913L6.12905 1.48955L6.02734 1.40247L6.11518 1.35205ZM6.37868 1.35205V1.52622L6.65605 1.76913L6.58671 1.83788L6.30934 1.57663H6.03197L6.37868 1.37038V1.35205Z" fill="#D22630"/>
<path d="M7.84412 1.35205L7.74242 1.43913L7.83025 1.48955L7.93196 1.40247L7.84412 1.35205ZM7.58524 1.35205V1.52622L7.30787 1.76913L7.37259 1.83788L7.64996 1.57663H7.93196L7.58524 1.35205ZM6.11518 2.54372L6.2215 2.44288L6.12905 2.39247L6.02734 2.4933L6.11518 2.54372ZM6.37868 2.52997V2.37413L6.65605 2.11288L6.58671 2.04413L6.30934 2.30538H6.03197L6.37868 2.52997Z" fill="#00843D"/>
<path d="M7.72058 1.93877L6.9948 2.42919L6.25977 1.94335L6.99942 1.45752L7.72058 1.93877Z" fill="#383739"/>
<path d="M6.98978 1.47119L6.29173 1.92494H7.68783L6.98978 1.47119ZM6.98978 1.47119V2.38786L7.68321 1.93869H6.28711L6.98516 2.39244L6.98978 1.47119Z" fill="white"/>
<path d="M7.18339 2.09451V2.23201H6.81357V2.09451H6.55469V1.76909H6.81357V1.63159H7.1649V1.76909H7.4284V2.10826L7.18339 2.09451Z" fill="#383739"/>
<path d="M6.81357 1.6499V1.7874H6.55469V1.9249H6.98923V1.6499H6.81357ZM6.98923 1.9249H7.4284V1.7874H7.1649V1.6499H6.98923V1.9249ZM6.55469 1.93865V2.09449H6.81357V2.21824H6.98923V1.94324L6.55469 1.93865ZM6.98923 2.21365H7.1649V2.09449H7.4284V1.93865H6.98923V2.21365Z" fill="#D22630"/>
<path d="M8.24691 7.46625V7.26H8.84325V7.03083H9.42111V5.11042H8.84325V4.88125H8.24691V4.675H7.65518V4.46875H6.3238V4.675H5.73208V4.88583H5.13111V5.11042H4.5625V7.03542H5.13111V7.27375H5.73208V7.44792H6.3238V7.65875H7.65518V7.44792L8.24691 7.46625Z" fill="#383739"/>
<path d="M6.34314 4.48706V4.67498H5.76528V4.88581H5.17818V5.11039H4.5957V7.01706H5.17818V7.22331H5.76991V7.45248H6.36625V7.65873H7.66065V7.44789H8.25237V7.24164H8.84872V7.01248H9.4312V5.11039H8.83947V4.90414H8.21077V4.69331H7.61442V4.49164L6.34314 4.48706ZM6.51881 4.64289H7.48036V4.84914H8.07208V5.05998H8.66843V5.28456H9.26478V6.86123H8.66843V7.10414H8.07208V7.27373H7.48036V7.48456H6.50032V7.27373H5.90859V7.10414H5.31224V6.87498H4.73439V5.30289H5.31687V5.07373H5.91321V4.84914H6.50494L6.51881 4.64289Z" fill="#FFC72C"/>
<path d="M5.94094 7.27363V7.06738H5.33072V6.86113H4.73438V5.3028H5.33072V5.07363H5.94094V4.86738H6.53728V4.66113H7.48035V4.84905H8.07207V5.05988H8.66842V5.28447H9.26476V6.8428H8.66842V7.04905H8.03971V7.27822H7.44336V7.5028H6.5003V7.27363H5.94094Z" fill="#D22630"/>
<path d="M6.0646 5.02338L5.90742 4.90422V5.1288L5.76874 5.21588V5.07838L5.63005 5.21588L5.48675 5.07838V5.21588L5.31108 5.12422V5.31672L5.19088 5.42213V5.30297L5.01522 5.4038L4.87653 5.30297V5.42213L4.71473 5.31672V5.9263H4.53906V6.23797H4.71473V6.84297L4.87191 6.73755V6.87505L5.02908 6.75588L5.18626 6.87505V6.73755L5.30646 6.84297V7.04922L5.48212 6.94838V7.08588L5.62081 6.94838L5.75949 7.08588V6.93005L5.89818 7.01713V7.24172L6.05998 7.11797V7.2738L6.21716 7.1363L6.35584 7.2738V7.10422L6.49453 7.20505V7.44797L6.70718 7.26005V7.4663L6.98455 7.29213L7.26192 7.4663V7.2738L7.47457 7.44797V7.22338L7.61325 7.11797V7.2738L7.75194 7.1363L7.92761 7.2738V7.10422L8.06629 7.22338V6.99422L8.20498 6.91172V7.04922L8.34829 6.91172L8.48697 7.04922V6.93005L8.66264 7.03088V6.82922L8.78283 6.7238V6.8613L8.9585 6.74213L9.09719 6.86588V6.72838L9.25899 6.82922V6.24255H9.43003V5.94463H9.25899V5.33963L9.10181 5.44505V5.31672L8.94001 5.42213L8.78283 5.31672V5.44047L8.66264 5.33505V5.14713L8.48697 5.22963V5.09213L8.34829 5.22963L8.2096 5.09213V5.22963L8.07092 5.14713V4.91797L7.90912 5.04172V4.88588L7.77043 5.02338L7.59476 4.88588V5.04172L7.47457 4.9363V4.71172L7.26654 4.88588V4.67505L6.98917 4.84922L6.70718 4.67505V4.84922L6.49453 4.67505V4.90422L6.35584 5.00505V4.84922L6.21716 4.98672L6.05998 4.84922L6.0646 5.02338Z" fill="#383739"/>
<path d="M4.89072 5.45405V5.31655L5.02941 5.42197L5.17272 5.31655V5.45405L5.3114 5.33489V6.80614L5.17272 6.7053V6.82447L5.03403 6.71905L4.89535 6.82447V6.7053L4.73355 6.80614V6.20114H4.5625V5.93989H4.73355V5.33489L4.89072 5.45405ZM6.08342 4.90405L6.2221 5.02322L6.3423 4.90405V5.05989L6.49947 4.93614V7.19572L6.3423 7.0903V7.24614L6.2221 7.12239L6.08342 7.24614V7.0903L5.92624 7.20947V4.95905L6.08342 5.06447V4.90405ZM7.90019 4.90405L7.77538 5.02322L7.63669 4.90405V5.05989L7.47952 4.93614V7.19572L7.63669 7.0903V7.24614L7.77538 7.12239L7.90019 7.24614V7.0903L8.05737 7.20947V4.95905L7.90019 5.06447V4.90405ZM9.08827 5.45405V5.31655L8.94958 5.42197L8.81089 5.31655V5.45405L8.66759 5.33489V6.80614L8.80627 6.7053V6.82447L8.94496 6.71905L9.08364 6.82447V6.7053L9.24544 6.80614V6.20114H9.42111V5.93989H9.24544V5.33489L9.08827 5.45405Z" fill="#00843D"/>
<path d="M5.50112 5.1288L5.62594 5.22963L5.75076 5.1288V5.24797L5.92642 5.14713V6.9988L5.75076 6.89338V7.03088L5.62594 6.91172L5.50575 7.03088V6.89338L5.33008 6.9988V5.14713L5.50575 5.24797L5.50112 5.1288ZM6.72618 4.89963L6.51815 4.73005V7.43422L6.72618 7.24172V7.44797L6.98968 7.2738L7.25318 7.44797V7.22338L7.46121 7.39755V4.74838L7.25318 4.91797V4.67505L6.98968 4.84922L6.72618 4.67505V4.89963ZM8.47361 5.1288L8.35342 5.22963L8.23322 5.1288V5.24797L8.05756 5.14713V6.9988L8.23322 6.89338V7.03088L8.35342 6.91172L8.4921 7.03088V6.89338L8.64928 6.9988V5.14713L8.47361 5.24797V5.1288Z" fill="#FFC72C"/>
<path d="M4.96563 5.80241L5.03497 5.83908C5.04884 5.83908 5.08582 5.83908 5.10432 5.80241C5.15517 5.752 5.15517 5.64658 5.15517 5.57783L5.06733 5.66491L5.03497 5.57783L4.9795 5.66491L4.91016 5.57783C4.91016 5.64658 4.91016 5.752 4.96563 5.807V5.80241ZM5.59434 5.64658L5.53886 5.59616V5.5045L5.43716 5.6145L5.60821 5.78408L5.82086 5.6145L5.71453 5.50908V5.59616L5.66368 5.64658V5.47241L5.75151 5.40366L5.6267 5.30283L5.5065 5.40366L5.59434 5.49533V5.64658ZM6.16757 5.47241L6.13521 5.422V5.31658L6.01039 5.422L6.22304 5.6145L6.39871 5.44033L6.29239 5.31658V5.422L6.2554 5.45866V5.2845L6.34786 5.2295L6.22304 5.12866L6.09823 5.2295L6.16757 5.30283V5.47241Z" fill="#383739"/>
<path d="M5.03406 5.61464L5.06642 5.68339L5.13576 5.61464C5.13576 5.69714 5.12189 5.77047 5.08953 5.78422C5.08307 5.79276 5.0747 5.79969 5.06507 5.80446C5.05544 5.80924 5.04483 5.81172 5.03406 5.81172C5.02329 5.81172 5.01268 5.80924 5.00305 5.80446C4.99342 5.79969 4.98504 5.79276 4.97859 5.78422C4.94623 5.77047 4.92773 5.69714 4.92773 5.61464L4.99708 5.68339L5.03406 5.61464ZM6.236 5.28464V5.50922L6.30997 5.42214V5.37172L6.37931 5.44047L6.20364 5.61464L6.02797 5.44047L6.12043 5.37172V5.44047L6.18515 5.52756V5.29839L6.11581 5.25256L6.22213 5.16089L6.30997 5.25256L6.236 5.28464Z" fill="white"/>
<path d="M5.64533 5.47246V5.68329L5.73317 5.61454V5.54121L5.80251 5.61454L5.62684 5.78413L5.45117 5.61454L5.52514 5.54121V5.61454L5.59448 5.68329V5.47246L5.52514 5.40371L5.62684 5.33496L5.7193 5.40371L5.64533 5.47246Z" fill="#D22630"/>
<path d="M9.01531 5.80241L8.94597 5.83908C8.9321 5.83908 8.91361 5.83908 8.89974 5.80241C8.82577 5.752 8.82577 5.64658 8.82577 5.57783L8.91361 5.66491L8.94597 5.57783L9.00144 5.66491L9.07078 5.57783C9.07078 5.64658 9.07078 5.752 9.01993 5.807L9.01531 5.80241ZM8.40509 5.64658L8.44208 5.59616V5.5045L8.5484 5.6145L8.37273 5.78408L8.16008 5.6145L8.26641 5.50908V5.59616L8.31726 5.64658V5.47241L8.23405 5.40366L8.35424 5.30283L8.47444 5.40366L8.40509 5.49533V5.64658ZM7.81337 5.47241L7.84573 5.422V5.31658L7.97055 5.422L7.77639 5.6145L7.56836 5.44033L7.68855 5.31658V5.422L7.72554 5.45866V5.2845L7.65619 5.2295L7.77639 5.12866L7.9012 5.2295L7.80875 5.30283L7.81337 5.47241Z" fill="#383739"/>
<path d="M8.94681 5.61464L8.91445 5.68339L8.84511 5.61464C8.84511 5.69714 8.8636 5.77047 8.89596 5.78422C8.90247 5.79193 8.9106 5.79812 8.91979 5.80238C8.92897 5.80663 8.93899 5.80883 8.94912 5.80883C8.95926 5.80883 8.96927 5.80663 8.97846 5.80238C8.98764 5.79812 8.99578 5.79193 9.00228 5.78422C9.03464 5.77047 9.05314 5.69714 9.05314 5.61464L9.00228 5.68339L8.94681 5.61464ZM7.74487 5.28464V5.50922L7.67553 5.42214V5.37172L7.60156 5.44047L7.77723 5.61464L7.9529 5.44047L7.86507 5.37172V5.44047L7.79572 5.52756V5.29839L7.86507 5.25256L7.77723 5.16089L7.67553 5.25256L7.74487 5.28464Z" fill="white"/>
<path d="M8.33595 5.47246V5.68329L8.26661 5.61454V5.54121L8.19727 5.61454L8.37293 5.78413L8.5486 5.61454L8.45614 5.54121V5.61454L8.39142 5.68329V5.47246L8.46077 5.40371L8.35444 5.33496L8.26661 5.40371L8.33595 5.47246Z" fill="#D22630"/>
<path d="M7.21757 5.54579L7.16672 5.44037L7.32389 5.30287L7.16672 5.17912V5.2662L7.11586 5.31662V5.14704L7.25455 5.05537L6.99105 4.84912L6.72755 5.02329L6.86623 5.14704V5.30287L6.82 5.24787V5.16079L6.6582 5.28454L6.83387 5.42204L6.76453 5.50912L7.21757 5.54579Z" fill="#383739"/>
<path d="M6.79598 5.52741L6.85145 5.43574L6.67578 5.29824L6.8006 5.21574V5.26616L6.88381 5.35324V5.14699L6.76362 5.05533L6.99476 4.88574L7.21665 5.05991L7.09646 5.14699V5.37158L7.18429 5.27991V5.23408L7.30449 5.31658L7.12882 5.45408L7.19816 5.54574L6.79598 5.52741Z" fill="#D22630"/>
<path d="M6.87109 5.05998L6.99129 5.14707L7.1161 5.0554L6.99129 4.9729L6.87109 5.05998Z" fill="#383739"/>
<path d="M6.99018 4.99121L7.07801 5.05996L6.99018 5.11038L6.90234 5.05996L6.99018 4.99121Z" fill="#00843D"/>
<path d="M4.96563 6.33873C4.974 6.32854 4.98458 6.32037 4.99659 6.31481C5.0086 6.30925 5.02172 6.30646 5.03497 6.30665C5.04884 6.30665 5.08582 6.30665 5.10432 6.33873C5.15517 6.39373 5.15517 6.49457 5.15517 6.5679L5.06733 6.49457L5.03497 6.56332L4.9795 6.49457L4.91016 6.56332C4.91016 6.49457 4.91016 6.39373 4.96563 6.33873ZM5.59434 6.49457L5.53886 6.54957V6.63665L5.43716 6.53123L5.60821 6.35707L5.82086 6.53123L5.71453 6.63665V6.54498L5.66368 6.49915V6.66873L5.75151 6.73748L5.6267 6.8429L5.5065 6.73748L5.59434 6.6504V6.49457ZM6.16757 6.66873L6.13521 6.71915V6.82457L6.01039 6.71915L6.22304 6.53123L6.39871 6.71915L6.29239 6.82457V6.71915L6.2554 6.68707V6.86123L6.34786 6.91165L6.22304 7.01707L6.09823 6.91165L6.16757 6.8429V6.66873Z" fill="#383739"/>
<path d="M5.03406 6.53126L5.06642 6.46251L5.13576 6.53126C5.13576 6.44417 5.12189 6.37542 5.08953 6.35709C5.08307 6.34855 5.0747 6.34162 5.06507 6.33685C5.05544 6.33207 5.04483 6.32959 5.03406 6.32959C5.02329 6.32959 5.01268 6.33207 5.00305 6.33685C4.99342 6.34162 4.98504 6.34855 4.97859 6.35709C4.94623 6.37542 4.92773 6.44417 4.92773 6.53126L4.99708 6.46251L5.03406 6.53126ZM6.236 6.86126V6.63209L6.30997 6.72376V6.79251L6.37931 6.71917L6.20364 6.54959L6.02797 6.71917L6.12043 6.79251V6.71917L6.18515 6.63667V6.86126L6.11581 6.91167L6.22213 6.99876L6.30997 6.91167L6.236 6.86126Z" fill="white"/>
<path d="M5.64533 6.66884V6.46259L5.73317 6.53134V6.60009L5.80251 6.53134L5.62684 6.35718L5.45117 6.53134L5.52514 6.60009V6.53134L5.59448 6.46259V6.66884L5.52514 6.73759L5.62684 6.80634L5.7193 6.73759L5.64533 6.66884Z" fill="#D22630"/>
<path d="M9.01531 6.33873C9.00694 6.32854 8.99636 6.32037 8.98435 6.31481C8.97234 6.30925 8.95922 6.30646 8.94597 6.30665C8.9321 6.30665 8.91361 6.30665 8.89974 6.33873C8.82577 6.39373 8.82577 6.49457 8.82577 6.5679L8.91361 6.49457L8.94597 6.56332L9.00144 6.49457L9.07078 6.56332C9.07078 6.49457 9.07078 6.39373 9.01993 6.33873H9.01531ZM8.40509 6.49457L8.44208 6.54957V6.63665L8.5484 6.53123L8.37273 6.35707L8.16008 6.53123L8.26641 6.63665V6.54498L8.31726 6.49915V6.66873L8.23405 6.73748L8.35424 6.8429L8.47444 6.73748L8.40509 6.6504V6.49457ZM7.81337 6.66873L7.84573 6.71915V6.82457L7.97055 6.71915L7.77639 6.53123L7.56836 6.71915L7.68855 6.82457V6.71915L7.72554 6.68707V6.86123L7.65619 6.91165L7.77639 7.01707L7.9012 6.91165L7.80875 6.8429L7.81337 6.66873Z" fill="#383739"/>
<path d="M8.94681 6.5313L8.91445 6.46255L8.84511 6.5313C8.84511 6.44421 8.8636 6.37546 8.89596 6.35713C8.90247 6.34942 8.9106 6.34323 8.91979 6.33897C8.92897 6.33472 8.93899 6.33252 8.94912 6.33252C8.95926 6.33252 8.96927 6.33472 8.97846 6.33897C8.98764 6.34323 8.99578 6.34942 9.00228 6.35713C9.03464 6.37546 9.05314 6.44421 9.05314 6.5313L9.00228 6.46255L8.94681 6.5313ZM7.74487 6.8613V6.63213L7.67553 6.7238V6.79255L7.60156 6.71921L7.77723 6.54963L7.9529 6.71921L7.86507 6.79255V6.71921L7.79572 6.63671V6.8613L7.86507 6.91171L7.77723 6.9988L7.67553 6.91171L7.74487 6.8613Z" fill="white"/>
<path d="M8.33595 6.66884V6.46259L8.26661 6.53134V6.60009L8.19727 6.53134L8.37293 6.35718L8.5486 6.53134L8.45614 6.60009V6.53134L8.39142 6.46259V6.66884L8.46077 6.73759L8.35444 6.80634L8.26661 6.73759L8.33595 6.66884Z" fill="#D22630"/>
<path d="M7.21757 6.61841L7.16672 6.70549L7.32389 6.84299L7.16672 6.96216V6.87508L7.11586 6.82924V6.99883L7.25455 7.08591L6.99105 7.27383L6.72755 7.10424L6.86623 6.98049V6.82924L6.82 6.87966V6.97133L6.6582 6.84757L6.83387 6.71007L6.76453 6.61841H7.21757Z" fill="#383739"/>
<path d="M6.79598 6.63672L6.85145 6.70547L6.67578 6.84297L6.8006 6.93005V6.87505L6.88381 6.79255V6.9988L6.76362 7.08589L6.99476 7.26005L7.21665 7.08589L7.09646 6.99422V6.79255L7.18429 6.87505V6.93005L7.30449 6.83839L7.12882 6.70089L7.19816 6.63672H6.79598Z" fill="#D22630"/>
<path d="M6.87109 7.1042L6.99129 6.99878L7.1161 7.08586L6.99129 7.17295L6.87109 7.1042Z" fill="#383739"/>
<path d="M6.99018 7.14993L7.07801 7.08576L6.99018 7.03076L6.90234 7.08576L6.99018 7.14993Z" fill="#00843D"/>
<path d="M9.08889 5.97668H8.84387V5.88959H8.0395L7.48013 5.54126H6.50009L5.94535 5.88959H5.13173V5.99501H4.88672V6.16918H5.13173V6.28834H5.9361L6.49547 6.63668H7.47551L8.03025 6.28834H8.83925V6.18293H9.08426L9.08889 5.97668Z" fill="#383739"/>
<path d="M6.50042 5.54584L5.94567 5.88959H5.15979V5.99501H4.91016V6.15084H5.15517V6.25168H5.94105L6.50042 6.60001H7.48046L8.0352 6.25168H8.83033V6.15084H9.09383V5.99501H8.83033V5.88959H8.04445L7.48508 5.54126L6.50042 5.54584ZM6.50042 5.59168H7.46197L7.98897 5.92626V5.97209H8.54371V6.18293H7.97048V6.23793L7.46197 6.54959H6.51891L5.99652 6.23793V6.18293H5.43716V5.97668H6.01039V5.92626L6.50042 5.59168Z" fill="#D22630"/>
<path d="M7.46139 5.59155L7.95141 5.93989V5.97655H8.52927V6.15072H7.95141V6.21947L7.46139 6.54947H6.51833L6.02831 6.21947V6.16905H5.45508V5.99489H6.03293V5.92614L6.51833 5.59155H7.46139Z" fill="#D22630"/>
<path d="M6.27241 6.25173L6.48044 6.4259L6.61912 6.30673L6.5544 6.25173L6.48044 6.2884L6.43421 6.25173L7.23396 5.64673H7.07679L6.27241 6.25173ZM6.74394 6.49465H6.90112L7.70549 5.88965L7.49746 5.71548L7.35878 5.83923L7.44199 5.88965L7.49746 5.85298L7.54832 5.88965L6.74394 6.49465ZM7.09528 6.49465H7.23396L6.42959 5.88965L6.48044 5.85298L6.5544 5.88965L6.62375 5.83923L6.48506 5.73381L6.27241 5.88965L7.09528 6.49465ZM7.54832 6.25173L7.49746 6.2884L7.44199 6.25173L7.35416 6.30673L7.49284 6.40756L7.70549 6.25173L6.90112 5.64673H6.72545L7.54832 6.25173ZM6.11523 6.08215L6.25392 6.16923L6.39261 6.07756L6.25392 5.97673L6.11523 6.08215ZM6.85027 6.06381L6.98895 6.16923L7.12764 6.07756L6.98895 5.97673L6.85027 6.06381ZM7.86729 6.06381L7.72398 6.16923L7.5853 6.07756L7.72398 5.97673L7.86729 6.06381Z" fill="#383739"/>
<path d="M7.68711 6.25171L7.49758 6.38921L7.37276 6.30671L7.4421 6.27004L7.49758 6.30671L7.56692 6.25171L6.78104 5.66504H6.90123L7.68711 6.25171ZM7.19709 6.48087H7.0769L6.29102 5.88962L6.48055 5.75212L6.60537 5.83921L6.55452 5.87129L6.48055 5.83921L6.41121 5.88962L7.19709 6.48087ZM6.90123 6.48087H6.78104L7.56692 5.88962L7.49758 5.83921L7.4421 5.87129L7.37276 5.83921L7.49758 5.74754L7.67325 5.88962L6.90123 6.48087ZM7.0769 5.66504H7.19709L6.41121 6.25171L6.48055 6.30671L6.55452 6.27004L6.60075 6.30671L6.48055 6.39379L6.30951 6.25629L7.0769 5.66504Z" fill="#FFC72C"/>
<path d="M6.25301 5.99512L6.35933 6.0822L6.25301 6.15095L6.13281 6.0822L6.25301 5.99512ZM6.99266 5.99512L7.11286 6.0822L6.98804 6.15095L6.86785 6.0822L6.99266 5.99512ZM7.72307 5.99512L7.61675 6.0822L7.72307 6.15095L7.84327 6.0822L7.72307 5.99512Z" fill="#00843D"/>
<path d="M4.4571 10.0467L4.40625 10.1338L4.50795 10.2026L4.40625 10.2897L4.4571 10.3584L4.5773 10.3767L4.68362 10.2897L4.97948 10.4638V10.3263L4.80844 10.2026L4.97948 10.0972V9.9459L4.68362 10.1201L4.5773 10.0513L4.4571 10.0467ZM4.4571 9.52882L4.40625 9.6159L4.50795 9.68465L4.40625 9.77173L4.4571 9.84048L4.5773 9.85882L4.68362 9.76715L4.97948 9.94132V9.80382L4.80844 9.68465L4.97948 9.57923V9.4234L4.68362 9.59757L4.5773 9.52882H4.4571ZM4.4571 10.8809L4.40625 10.8076L4.50795 10.7251L4.40625 10.6517L4.4571 10.5692H4.5773L4.68362 10.638L4.97948 10.4638V10.6197L4.80844 10.7251L4.97948 10.8442V10.9817L4.68362 10.8076L4.5773 10.8992L4.4571 10.8809ZM9.52374 10.0467L9.57921 10.1338L9.47289 10.2026L9.57921 10.2897L9.52374 10.3584L9.40354 10.3767L9.29722 10.2897L9.00136 10.4638V10.3263L9.17703 10.2026L9.00136 10.0972V9.9459L9.29722 10.1201L9.40354 10.0513L9.52374 10.0467ZM9.52374 9.52882L9.57921 9.6159L9.47289 9.68465L9.57921 9.77173L9.52374 9.84048L9.40354 9.85882L9.29722 9.76715L9.00136 9.94132V9.80382L9.17703 9.68465L9.00136 9.57923V9.4234L9.29722 9.59757L9.40354 9.52882H9.52374ZM9.52374 10.8809L9.57921 10.8076L9.47289 10.7251L9.57921 10.6517L9.52374 10.5692H9.40354L9.2926 10.6334L8.99674 10.4592V10.6151L9.1724 10.7205L8.99674 10.8397V10.9772L9.2926 10.803L9.39892 10.8947L9.52374 10.8809ZM8.39114 8.66257V8.86882H8.54832V8.97424H8.7055V8.80007H8.56681V8.66257H8.39114ZM8.84418 9.00632V9.18049H9.01985V9.26757H9.15854V9.0934H9.01985V9.00632H8.84418ZM5.59432 8.66257V8.86882H5.43714V8.97424H5.27997V8.80007H5.41865V8.66257H5.59432ZM8.39114 11.7792V11.573H8.54832V11.4813H8.7055V11.6601H8.56681V11.7976L8.39114 11.7792ZM5.59432 11.7792V11.573H5.43714V11.4813H5.27997V11.6601H5.41865V11.7976L5.59432 11.7792ZM8.84418 11.4309V11.2292H9.01985V11.1238H9.15854V11.298H9.01985V11.4355L8.84418 11.4309ZM5.13204 9.00632V9.18049H4.96099V9.26757H4.82231V9.0934H4.96099V9.00632H5.13204ZM5.13204 11.4492V11.243H4.96099V11.1376H4.82231V11.3117H4.96099V11.4492H5.13204ZM7.58214 8.66257L7.45733 8.53882L7.33713 8.64424L7.43884 8.74965L7.30015 8.86882H7.49431L7.56365 8.80007L7.633 8.86882H7.86414L7.72083 8.75423L7.82716 8.64882L7.70234 8.5434L7.58214 8.66257ZM6.9858 8.66257L6.8656 8.53882L6.74079 8.64424L6.84711 8.74965L6.72229 8.86882H6.91646L6.9858 8.80007L7.05514 8.86882H7.2493L7.12448 8.74965L7.23081 8.64424L7.11061 8.53882L6.9858 8.66257ZM6.40794 8.66257L6.53276 8.53882L6.63908 8.64424L6.53276 8.74965L6.67144 8.86882H6.47728L6.40794 8.80007L6.3386 8.86882H6.11208L6.25076 8.74965L6.14906 8.64424L6.26926 8.53882L6.39407 8.66257H6.40794ZM7.56365 11.7792L7.45733 11.9167L7.33713 11.7976L7.43884 11.7105L7.30015 11.573H7.49431L7.56365 11.6417L7.633 11.573H7.86414L7.72083 11.7105L7.82716 11.7976L7.70234 11.9167L7.56365 11.7792ZM6.9858 11.7792L6.8656 11.9167L6.74079 11.7976L6.84711 11.7105L6.72229 11.573H6.91646L6.9858 11.6417L7.05514 11.573H7.2493L7.12448 11.7105L7.23081 11.7976L7.11061 11.9167L6.9858 11.7792ZM6.40794 11.7792L6.53276 11.9167L6.63908 11.7976L6.53276 11.7105L6.67144 11.573H6.47728L6.40794 11.6417L6.3386 11.573H6.11208L6.25076 11.7105L6.14906 11.7976L6.26926 11.9167L6.39407 11.7976L6.40794 11.7792Z" fill="#383739"/>
<path d="M4.96542 10.3263V10.4455L4.68805 10.2713L4.5771 10.363H4.4754L4.41992 10.2896L4.52625 10.2025L4.41992 10.1338L4.4754 10.065H4.5771L4.68342 10.1521L4.96079 9.97796V10.0834L4.77126 10.2025L4.96542 10.3263ZM4.96542 9.8038V9.92755L4.68805 9.75338L4.5771 9.84046H4.4754L4.41992 9.77171L4.52625 9.68005L4.41992 9.61588L4.4754 9.54713H4.5771L4.68342 9.62963L4.96079 9.46005V9.56088L4.77126 9.68463L4.96542 9.8038ZM4.96542 10.6013V10.4959L4.68805 10.67L4.5771 10.5692H4.4754L4.41992 10.638L4.53087 10.725L4.42454 10.8075L4.48002 10.8625H4.5771L4.68342 10.7938L4.96079 10.9634V10.8442L4.77126 10.725L4.96542 10.6013ZM9.01965 10.3263V10.4455L9.29702 10.2713L9.42184 10.363H9.50505L9.56053 10.2896L9.4542 10.2025L9.56053 10.1338L9.50505 10.065H9.43571L9.31551 10.1521L9.03814 9.97796V10.0834L9.22768 10.2025L9.01965 10.3263ZM9.01965 9.8038V9.92755L9.29702 9.75338L9.42184 9.84046H9.50505L9.56053 9.77171L9.4542 9.68005L9.56053 9.61588L9.50505 9.54713H9.43571L9.31551 9.62963L9.03814 9.46005V9.56088L9.22768 9.68463L9.01965 9.8038ZM9.01965 10.6013V10.4959L9.29702 10.67L9.42184 10.5692H9.50505L9.56053 10.638L9.4542 10.725L9.56053 10.8075L9.50505 10.8625H9.43571L9.31551 10.7938L9.03814 10.9634V10.8442L9.22768 10.725L9.01965 10.6013ZM8.56199 8.66255V8.80005H8.70068V8.93755H8.56199V8.83671H8.39095V8.66255H8.56199ZM9.03352 9.0063V9.13005H9.15834V9.26755H9.03352V9.18046H8.87634V9.0063H9.03352ZM5.41846 8.66255V8.80005H5.27977V8.93755H5.39997V8.83671H5.57563V8.66255H5.41846ZM8.56199 11.7609V11.605H8.70068V11.4675H8.56199V11.5546H8.39095V11.7288L8.56199 11.7609ZM5.45082 11.7609V11.605H5.31213V11.4675H5.43695V11.5546H5.60799V11.7288L5.45082 11.7609ZM9.03352 11.4171V11.2796H9.15834V11.1421H9.03352V11.243H8.87634V11.4171H9.03352ZM4.97929 9.0063V9.1438H4.8406V9.2813H4.96542V9.18046H5.12259V9.0063H4.97929ZM4.97929 11.4355V11.298H4.8406V11.1559H4.96542V11.2613H5.12259V11.4309L4.97929 11.4355ZM7.46175 8.55713L7.56808 8.68088L7.68827 8.55713L7.7946 8.64421L7.68827 8.74963L7.81309 8.85046H7.63742L7.56808 8.78171L7.49874 8.85046H7.34156L7.46175 8.74963L7.35543 8.64421L7.46175 8.55713ZM6.87003 8.55713L6.99022 8.68088L7.11504 8.55713L7.19825 8.64421L7.09655 8.74963L7.21674 8.85046H7.05957L6.99022 8.78171L6.92088 8.85046H6.74521L6.8839 8.74963L6.7822 8.64421L6.87003 8.55713ZM6.51869 8.55713L6.41237 8.68088L6.29217 8.55713L6.18585 8.64421L6.29217 8.74963L6.18585 8.85046H6.32453L6.41699 8.78171L6.48171 8.85046H6.64351L6.51869 8.75421L6.62502 8.6488L6.51869 8.55713ZM7.46175 11.8846L7.56808 11.7792L7.68827 11.8846L7.7946 11.793L7.68827 11.7105L7.81309 11.5913H7.63742L7.56808 11.66L7.49874 11.5913H7.34156L7.46175 11.7105L7.35543 11.7975L7.46175 11.8846ZM6.87003 11.8846L6.99022 11.7792L7.11504 11.8846L7.19825 11.793L7.09655 11.7105L7.21674 11.5913H7.05957L6.99022 11.66L6.92088 11.5913H6.74521L6.8839 11.7105L6.7822 11.7975L6.87003 11.8846ZM6.51869 11.8846L6.41237 11.7792L6.29217 11.8846L6.18585 11.793L6.29217 11.7105L6.18585 11.5913H6.32453L6.41699 11.66L6.48171 11.5913H6.64351L6.51869 11.7105L6.62502 11.7975L6.51869 11.8846Z" fill="#00843D"/>
<path d="M5.41788 11.2429V11.5913H8.56142V11.2429H9.01908V9.18042H8.56142V8.83667H5.41788V9.18042H4.96484V11.2429H5.41788Z" fill="#383739"/>
<path d="M5.43618 8.85042V9.19875H4.97852V11.2246H5.41769V11.5729H8.56122V11.2246H9.01888V9.18042H8.56122V8.83667H5.41769L5.43618 8.85042ZM5.64421 8.98792H8.3347V9.31792L8.45952 9.39125H8.87557V11.0183H8.45952L8.3347 11.1054V11.4308H5.64421V11.0917L5.52401 11.0229H5.10333V9.39584H5.51939L5.64421 9.3225V8.97875V8.98792Z" fill="#FFC72C"/>
<path d="M5.66268 9.00635V9.30426L6.06487 9.00635H5.66268ZM7.9325 9.00635L8.3162 9.30426V9.00635H7.9325ZM5.13568 9.4051V9.70301L5.50551 9.42801L5.13568 9.4051ZM8.47337 9.4051L8.86169 9.70301V9.4051H8.47337ZM8.86169 10.7251L8.47337 11.0001H8.86169V10.7251ZM5.11719 10.7251V11.0001H5.50551L5.11719 10.7251ZM5.64419 11.1193V11.4172H6.06025L5.64419 11.1193ZM8.3162 11.1193L7.91401 11.4172H8.3162V11.1193Z" fill="#D22630"/>
<path d="M7.90138 9.00618L8.86293 9.70285V10.7066L7.90138 11.3941H6.0846L5.12305 10.7066V9.69827L6.0846 8.99243L7.90138 9.00618Z" fill="#00843D"/>
<path d="M5.34851 10.8076L5.24219 10.6884L5.34851 10.5692L5.24219 10.4455L5.34851 10.3263L5.24219 10.2026L5.34851 10.0834L5.24219 9.95964L5.34851 9.84047L5.24219 9.73505L5.34851 9.59755H8.63073L8.73706 9.73505L8.63073 9.84047L8.73706 9.95964L8.63073 10.0834L8.73706 10.2026L8.63073 10.3263L8.73706 10.4455L8.63073 10.5692L8.73706 10.6884L8.63073 10.8076H5.34851ZM7.61833 9.16214L7.47964 9.04297L7.35483 9.14839L7.23463 9.04297L7.11444 9.14839L6.98962 9.04297L6.86943 9.14839L6.74461 9.04297L6.62442 9.14839L6.4996 9.04297L6.37941 9.16214V11.243L6.4996 11.3621L6.62442 11.2613L6.74461 11.3621L6.86943 11.2613L6.98962 11.3621L7.11444 11.2613L7.23463 11.3621L7.35483 11.2613L7.47964 11.3621L7.59984 11.2613L7.61833 9.16214Z" fill="#383739"/>
<path d="M7.34063 9.18037L7.2343 9.07495L7.11411 9.16662V11.2429L7.2343 11.3483L7.34063 11.2429V9.18037ZM6.8691 9.18037L6.74428 9.07495L6.64258 9.16662V11.2429L6.74428 11.3483L6.8691 11.2429V9.18037Z" fill="#FFC72C"/>
<path d="M5.36218 10.8074L5.26048 10.6882L5.36681 10.5828H8.61667L8.71837 10.6882L8.61667 10.8074H5.36218ZM8.61667 10.097L8.71837 10.2024L8.61667 10.3261H5.36218L5.25586 10.2024L5.36218 10.097H8.61667ZM8.61667 9.84031L8.71837 9.73489L8.61667 9.61572H5.36218L5.25586 9.73489L5.36218 9.84031H8.61667Z" fill="#FFC72C"/>
<path d="M7.58169 9.18037L7.47999 9.07495L7.35517 9.16662V11.2429L7.47999 11.3483L7.58631 11.2429L7.58169 9.18037ZM6.64325 9.18037L6.51843 9.07495L6.41211 9.16662V11.2429L6.51843 11.3483L6.64325 11.2429V9.18037Z" fill="#D22630"/>
<path d="M5.36342 10.5691L5.26172 10.4453L5.36804 10.3399H8.6179L8.71961 10.4453L8.6179 10.5691H5.36342ZM5.36342 10.0832L5.26172 9.95948L5.36804 9.85864H8.6179L8.71961 9.95948L8.6179 10.0832H5.36342Z" fill="#D22630"/>
<path d="M7.11591 11.2612L6.99109 11.3483L6.88477 11.2428V9.18035L6.99109 9.09326L7.11591 9.18493V11.2612Z" fill="#D22630"/>
<path d="M8.09009 9.19873H5.88961V9.3729H5.59375V11.0366H5.87112V11.2062H8.0716V11.0366H8.39057V9.3729H8.10858V9.19873H8.09009Z" fill="#383739"/>
<path d="M5.90823 9.21248V9.39123H5.63086V11.0183H5.90823V11.1925H6.11626L5.66322 10.8075V9.59748L6.11626 9.21706H5.88974L5.90823 9.21248ZM7.84982 9.21248L8.30286 9.61581V10.8258L7.86369 11.1741H8.09484V11H8.37221V9.3729H8.09484V9.19873H7.86369L7.84982 9.21248Z" fill="#D22630"/>
<path d="M6.14835 9.2124L5.69531 9.61574V10.8074L6.15297 11.1924H7.83107L8.28411 10.8074V9.5974L7.83107 9.21699L6.14835 9.2124ZM6.18533 9.28574H7.79408L8.23325 9.62949V10.7753L7.79408 11.1191H6.18533L5.75079 10.7753V9.64782L6.18533 9.28574Z" fill="#00843D"/>
<path d="M6.60627 10.7937L6.67561 10.8258L6.6941 10.9174L6.60164 10.9816L6.74495 11.1053H6.60627L6.51843 11.0137L6.4306 11.1053H6.29191L6.41211 10.9816L6.32427 10.9128V10.8258L6.41673 10.7937L6.49994 10.8624L6.60627 10.7937ZM7.0778 10.7937L7.14714 10.8258L7.16563 10.9174L7.0778 10.9816L7.21648 11.1053H7.0778L6.98996 11.0137L6.90213 11.1053H6.78193L6.90213 10.9816L6.81429 10.9128V10.8258L6.90675 10.7937L6.98996 10.8624L7.0778 10.7937ZM7.37366 10.7937L7.30432 10.8258L7.28582 10.9174L7.37828 10.9816L7.25346 11.1053H7.37366L7.46612 11.0137L7.54933 11.1053H7.68801L7.54933 10.9816L7.63716 10.9128V10.8258L7.54933 10.7937L7.46149 10.8624L7.37366 10.7937ZM6.61089 9.62492L6.68023 9.59284L6.69872 9.50575L6.60627 9.41867L6.74957 9.2995H6.61089L6.52306 9.38659L6.43522 9.29492H6.29654L6.41673 9.41867L6.3289 9.50575V9.59284L6.42135 9.62492L6.50456 9.54242L6.61089 9.62492ZM7.08242 9.62492L7.15176 9.59284L7.17025 9.50575L7.08242 9.41867L7.2211 9.2995H7.08242L6.99459 9.38659L6.90675 9.29492H6.78656L6.90675 9.41867L6.81892 9.50575V9.59284L6.91137 9.62492L6.99459 9.54242L7.08242 9.62492ZM7.37828 9.62492L7.30894 9.59284L7.29045 9.50575L7.3829 9.41867L7.25809 9.2995H7.37828L7.47074 9.38659L7.55395 9.29492H7.69263L7.55395 9.41867L7.64178 9.50575V9.59284L7.55395 9.62492L7.46612 9.54242L7.37828 9.62492ZM8.21964 9.74867L8.1503 9.81742L8.21964 9.86784V9.97326L8.09482 9.88617L8.02548 9.95492H7.93765L7.90529 9.88617L7.97463 9.81742L7.90529 9.74867L7.93765 9.67992H8.0301L8.09482 9.74867L8.21964 9.66159V9.74867ZM8.21964 10.1474L8.1503 10.1978L8.21964 10.2666V10.3583L8.09482 10.2666L8.02548 10.3353H7.93765L7.90529 10.2666L7.97463 10.1978L7.90529 10.1291L7.93765 10.0787H8.0301L8.09482 10.1291L8.21964 10.042V10.1474ZM8.21964 10.6653L8.1503 10.5966L8.21964 10.5278V10.4408L8.09482 10.5278L8.02548 10.4591H7.93765L7.90529 10.5278L7.97463 10.5966L7.90529 10.6653L7.93765 10.7203H8.0301L8.09482 10.6653L8.21964 10.757V10.6653ZM5.76953 9.74867L5.86199 9.81742L5.76953 9.86784V9.97326L5.89435 9.88617L5.96369 9.95492H6.05152L6.08851 9.88617L6.01454 9.81742L6.08851 9.74867L6.05152 9.67992H5.96369L5.89435 9.74867L5.76953 9.66159V9.74867ZM5.76953 10.1474L5.86199 10.1978L5.76953 10.2666V10.3583L5.89435 10.2666L5.96369 10.3353H6.05152L6.08851 10.2666L6.01454 10.1978L6.08851 10.1291L6.05152 10.0787H5.96369L5.89435 10.1291L5.76953 10.042V10.1474ZM5.76953 10.6653L5.86199 10.5966L5.76953 10.5278V10.4408L5.89435 10.5278L5.96369 10.4591H6.05152L6.08851 10.5278L6.01454 10.5966L6.08851 10.6653L6.05152 10.7203H5.96369L5.89435 10.6653L5.76953 10.757V10.6653Z" fill="#00843D"/>
<path d="M6.18455 9.3042L5.78236 9.64795L5.88869 9.73962L5.95803 9.66628H6.06435L6.09671 9.75337L6.02737 9.82212L6.09671 9.89087L6.06435 9.95962H5.93954L5.87019 9.9092L5.75 9.99628V10.0284L5.87019 10.12L5.93954 10.0467L6.04586 10.065L6.08285 10.1338L6.00888 10.2025L6.08285 10.2713L6.04586 10.3629H5.93954L5.87019 10.2896L5.75 10.395V10.4088L5.87019 10.5142L5.93954 10.4454H6.04586L6.08285 10.5325L6.00888 10.6013L6.08285 10.67L6.04586 10.7388H5.93954L5.87019 10.6884L5.76387 10.7754L6.16606 11.1192H6.25851L6.3972 10.9817L6.30474 10.9129V10.8075L6.41107 10.7754L6.50352 10.8442L6.58673 10.7754L6.67919 10.8075L6.69306 10.9129L6.6006 10.9817L6.74391 11.1054L6.86873 10.9817L6.77627 10.9129V10.8075L6.8826 10.7754L6.97505 10.8442L7.05826 10.7754L7.15072 10.8075L7.16459 10.9129L7.07676 10.9817L7.19695 11.1054L7.33564 10.9817L7.25242 10.9129V10.8075L7.35413 10.7754L7.44658 10.8442L7.52979 10.7754L7.62225 10.8075L7.63612 10.9129L7.54829 10.9817L7.68697 11.1054H7.77943L8.17699 10.7571L8.07067 10.6884L8.00133 10.7571L7.89962 10.7388L7.86264 10.67L7.93198 10.6013L7.86264 10.5325L7.89962 10.4638L8.00133 10.4454L8.07067 10.5142L8.19548 10.4088V10.395L8.07067 10.2896L8.00133 10.3584H7.90425L7.86726 10.2713L7.93661 10.2025L7.86726 10.1338L7.90425 10.065H8.00595L8.07529 10.1154L8.20011 10.0284V9.99628L8.07529 9.90462L8.00595 9.97795L7.90425 9.95962L7.86726 9.89087L7.93661 9.82212L7.86726 9.75337L7.90425 9.68462L8.00595 9.66628L8.07529 9.73503L8.18162 9.64795L7.77943 9.3042H7.69159L7.55291 9.42337L7.64074 9.51045V9.61587L7.53442 9.64795L7.44658 9.5792L7.35875 9.64795L7.27554 9.61587L7.25705 9.51045L7.34488 9.42337L7.22006 9.3042L7.08138 9.42337L7.16921 9.51045V9.61587L7.06289 9.64795L6.97505 9.5792L6.88722 9.64795L6.80401 9.61587L6.78552 9.51045L6.87335 9.42337L6.74853 9.3042L6.60985 9.42337L6.69768 9.51045V9.61587L6.59136 9.64795L6.50352 9.5792L6.41569 9.64795L6.32786 9.61587L6.31399 9.51045L6.40182 9.42337L6.26314 9.3042H6.18455ZM5.76849 10.1704V10.2529L5.81472 10.2071L5.76849 10.1704Z" fill="#D22630"/>
<path d="M6.51915 11.0504L6.44981 11.1054H6.58849L6.51915 11.0504ZM6.99068 11.0504L6.92134 11.1054H7.06002L6.99068 11.0504ZM7.46221 11.0504L7.39287 11.1054H7.53155L7.46221 11.0504ZM6.44518 9.31795L6.51915 9.37295L6.58849 9.3042L6.44518 9.31795ZM6.92134 9.31795L6.99068 9.37295L7.06002 9.3042L6.92134 9.31795ZM7.39287 9.31795L7.46221 9.37295L7.53155 9.3042L7.39287 9.31795ZM8.21573 9.78545L8.16026 9.82212L8.21573 9.85878V9.78545ZM8.21573 10.1704L8.16026 10.2025L8.21573 10.2529V10.1704ZM8.21573 10.5692L8.16026 10.6013L8.21573 10.6379V10.5692ZM5.76562 9.7717V9.85878L5.8211 9.82212L5.76562 9.7717ZM5.76562 10.1704V10.2529L5.8211 10.2071L5.76562 10.1704ZM5.76562 10.5509V10.6379L5.8211 10.6013L5.76562 10.5509Z" fill="white"/>
<path d="M7.39697 10.0833V9.94582H7.25366V9.7854H6.72666V9.94123H6.58797V10.0787H6.39844V10.34H6.58797V10.4775H6.72666V10.6379H7.25829V10.4637H7.39697V10.34H7.59113V10.0833H7.39697Z" fill="#383739"/>
<path d="M6.98996 9.80832V9.95957L6.76345 10.0833V10.2025H6.41211V10.0971H6.58778V9.95957H6.74495V9.7854L6.98996 9.80832ZM6.98996 10.6196V10.4454L7.22111 10.3262V10.2208H7.56782V10.3262H7.39215V10.4637H7.23498V10.6196H6.98996Z" fill="#FFC72C"/>
<path d="M7.21648 10.2025V10.0833L6.98996 9.95957V9.7854H7.23498V9.95957H7.37366V10.0971H7.56782V10.2025H7.21648ZM6.41211 10.2025H6.76345V10.3262L6.99459 10.4637V10.6196H6.74495V10.4454H6.60627V10.3262H6.41211V10.2025Z" fill="white"/>
<path d="M6.78125 10.2209V10.3263L6.98928 10.4455V10.2163L6.78125 10.2209Z" fill="#D22630"/>
<path d="M6.98928 9.97778L6.78125 10.097V10.2024H6.98928V9.97778Z" fill="#00843D"/>
<path d="M7.19826 10.2024V10.097L6.99023 9.97778V10.2069L7.19826 10.2024Z" fill="#D22630"/>
<path d="M6.99023 10.4499L7.19826 10.3261V10.2207H6.99023V10.4499Z" fill="#00843D"/>
<path d="M5.08582 12.9709V13.4063H4.68363V13.7913H4.26758V14.8959H4.68363V15.2946H5.06733V15.7117H6.56975L6.83326 15.8859L6.71306 15.9546H6.18606L6.13521 15.9042H6.64372L6.50503 15.7667H5.80236L6.11672 16.0921H6.76391L6.99506 15.9363L7.21695 16.0738H7.86415L8.1785 15.7484H7.48046L7.34177 15.8859H7.83179L7.79481 15.9363H7.25394L7.12912 15.8492L7.39262 15.6934H8.89505V15.2809H9.29723V14.8959H9.71329V13.7959H9.29723V13.4109H8.91354V12.98H7.41111L7.14761 12.8059L7.27243 12.7371H7.79481L7.84566 12.7875H7.33715L7.48046 12.925H8.1785L7.86415 12.5996H7.21695L6.99043 12.7371L6.76391 12.5996H6.11672L5.80236 12.9434H6.50041L6.6391 12.7875H6.1537L6.18606 12.7371H6.72693L6.85175 12.8242L6.58825 12.98L5.08582 12.9709Z" fill="#D22630"/>
<path d="M7.39613 15.6934H8.87544V15.2809H9.26376V14.8822H9.67982V13.8051H9.26376V13.4063H8.86158V12.9938H7.37302L6.74894 12.6042H6.12023L5.84286 12.9022H6.49006L6.59176 12.7967H6.12023L6.18957 12.7097H6.73044L7.43312 13.1451H8.73676V13.5576H9.15281V13.9563H9.57812V14.7217H9.15281V15.1205H8.73676V15.5513H7.45623L6.75818 15.9638H6.19882L6.12947 15.8813H6.601L6.49468 15.7759H5.84748L6.12485 16.0692H6.77205L7.39613 15.6934ZM6.53628 15.5559H5.26038V15.1251H4.85357V14.7263H4.43751V13.9609H4.85357V13.5667H5.23727V13.168H6.51779L7.21584 12.7372H7.77521L7.84455 12.8242H7.37302L7.47935 12.9297H8.12654L7.85842 12.6042H7.21122L6.601 12.9892H5.09858V13.4017H4.71488V13.8005H4.29883V14.8776H4.71488V15.2763H5.12169V15.6888H6.62412L7.23433 16.0692H7.86304L8.14041 15.7759H7.49321L7.39151 15.8813H7.86304L7.7937 15.9684H7.25283L6.53628 15.5559Z" fill="#FFC72C"/>
<path d="M8.59916 15.0013V15.4138H7.41109L6.99503 15.675L6.56973 15.4184H5.38166V15.0059H4.97947V14.6025H4.54492V14.0846H4.96098V13.6859H5.36779V13.2734H6.55586L6.97192 13.0259L7.39259 13.2688H8.58067V13.6813H8.98285V14.0846H9.43589V14.6025H9.01984V15.0013H8.59916Z" fill="#00843D"/>
<path d="M5.53906 14.85V15.2442H6.20475L5.53906 14.8088V14.85ZM5.53906 13.8417V13.4292H6.20475L5.53906 13.86V13.8417ZM8.44221 14.85V15.2442H7.77652L8.44221 14.8088V14.85ZM8.44221 13.8417V13.4292H7.77652L8.44221 13.86V13.8417Z" fill="#383739"/>
<path d="M5.55664 14.8637L6.15299 15.2441H5.55664V14.8637ZM5.55664 13.8233L6.15299 13.4429H5.55664V13.8233ZM8.4228 14.8637L7.83108 15.2441H8.4228V14.8637ZM8.4228 13.8233L7.83108 13.4429H8.4228V13.8233Z" fill="#D22630"/>
<path d="M6.37959 14.222V14.0295H6.31025L5.95891 13.8232L5.60758 14.0295H5.53823V14.2403H5.36719V14.4832H5.53823V14.6895H5.60758L5.95891 14.8957L6.31025 14.6895H6.37959V14.4832H6.6246V14.2082L6.37959 14.222Z" fill="#383739"/>
<path d="M5.94131 13.8232L6.29264 14.0157H5.62695L5.94131 13.8232ZM6.29264 14.6712L5.94131 14.8637L5.62695 14.6712H6.29264ZM6.20481 14.2403V14.4466H5.80262V14.2403H6.20481Z" fill="#D22630"/>
<path d="M6.3609 14.465V14.6529H5.95871V14.465H6.3609ZM5.94485 14.465V14.6529H5.53804V14.465H5.94485ZM6.60591 14.2358V14.4466H6.22222V14.2404L6.60591 14.2358ZM5.78305 14.2358V14.4466H5.38086V14.2404L5.78305 14.2358ZM6.3609 14.0295V14.222H5.95871V14.0479L6.3609 14.0295ZM5.94485 14.0295V14.222H5.53804V14.0479L5.94485 14.0295Z" fill="#FFC72C"/>
<path d="M5.68224 14.2907V14.3961H5.50195V14.2907H5.68224ZM5.83942 14.0845V14.1853H5.66375V14.0845H5.83942ZM6.25548 14.0845V14.1853H6.08443V14.0845H6.25548ZM6.08443 14.2907V14.3961H5.90876V14.2907H6.08443ZM6.50049 14.2907V14.3961H6.32482V14.2907H6.50049ZM6.25548 14.497V14.6024H6.08443V14.497H6.25548ZM5.83942 14.497V14.6024H5.66375V14.497H5.83942Z" fill="#383739"/>
<path d="M5.66375 14.309H5.50195V14.3778H5.65913L5.66375 14.309ZM5.83942 14.1028H5.66375V14.1715H5.83942V14.1028ZM6.24161 14.1028H6.08443V14.1715H6.24161V14.1028ZM6.06594 14.309H5.94112V14.3778H6.07981L6.06594 14.309ZM6.482 14.309H6.34331V14.3778H6.482V14.309ZM6.24161 14.5153H6.08443V14.584H6.24161V14.5153ZM5.82093 14.5153H5.68224V14.584H5.82093V14.5153Z" fill="white"/>
<path d="M7.59957 14.222V14.0295H7.67353L8.02025 13.8232L8.37158 14.0295H8.45942V14.2403H8.61659V14.4832H8.44092V14.6895H8.39007L8.03874 14.8957L7.6874 14.6895H7.61806V14.4832H7.37305V14.2082L7.59957 14.222Z" fill="#383739"/>
<path d="M8.03884 13.8232L7.6875 14.0157H8.3347L8.03884 13.8232ZM7.6875 14.6712L8.00185 14.8637L8.3347 14.6712H7.6875ZM7.75684 14.2403V14.4466H8.15903V14.2403H7.75684Z" fill="#D22630"/>
<path d="M7.61806 14.465V14.6529H8.02025V14.465H7.61806ZM8.03411 14.465V14.6529H8.44092V14.465H8.03411ZM7.37305 14.2358V14.4466H7.77523V14.2404L7.37305 14.2358ZM8.19591 14.2358V14.4466H8.5981V14.2404L8.19591 14.2358ZM7.61806 14.0295V14.222H8.02025V14.0479L7.61806 14.0295ZM8.03411 14.0295V14.222H8.44092V14.0479L8.03411 14.0295Z" fill="#FFC72C"/>
<path d="M8.31987 14.2907V14.3961H8.49092V14.2907H8.31987ZM8.1442 14.0845V14.1853H8.31525V14.0845H8.1442ZM7.72353 14.0845V14.1853H7.89919V14.0845H7.72353ZM7.89919 14.2907V14.3961H8.07024V14.2907H7.89919ZM7.47852 14.2907V14.3961H7.65418V14.2907H7.47852ZM7.72353 14.497V14.6024H7.89919V14.497H7.72353ZM8.13958 14.497V14.6024H8.31525V14.497H8.13958Z" fill="#383739"/>
<path d="M8.32091 14.309H8.47347V14.3778H8.32091V14.309ZM8.15911 14.1028H8.2978V14.1715H8.15911V14.1028ZM7.74306 14.1028H7.90023V14.1715H7.74306V14.1028ZM7.9141 14.309H8.05279V14.3778H7.9141V14.309ZM7.49805 14.309H7.63673V14.3778H7.51654L7.49805 14.309ZM7.74306 14.5153H7.90023V14.584H7.74306V14.5153ZM8.15911 14.5153H8.2978V14.584H8.15911V14.5153Z" fill="white"/>
<path d="M7.40948 13.8739V14.0847H7.34013L6.9888 14.3093L6.64208 14.0801H6.5635V13.8739H6.35547V13.6493H6.5635V13.443H6.63746L6.98418 13.2139L7.33551 13.443H7.40485V13.6493H7.61288V13.8601L7.40948 13.8739Z" fill="#383739"/>
<path d="M6.98818 14.291L7.30254 14.0847H6.67383L6.98818 14.291ZM7.30254 13.4293L6.98818 13.2551L6.67383 13.4293H7.30254Z" fill="#FFC72C"/>
<path d="M7.39593 13.6494V13.4431H7.00761V13.6494H7.39593ZM6.98912 13.6494V13.4431H6.58693V13.6494H6.98912ZM7.59934 13.8602V13.686H7.19715V13.8602H7.59934ZM7.18328 13.8602V13.686H6.81345V13.8602H7.18328ZM6.78109 13.8602V13.686H6.37891V13.8602H6.78109ZM7.39131 14.0664V13.8739H7.00761V14.0664H7.39131ZM6.98912 14.0664V13.8739H6.58693V14.0664H6.98912Z" fill="#D22630"/>
<path d="M6.86879 13.4934V13.5988H6.69312V13.5117L6.86879 13.4934ZM7.28484 13.4934V13.5988H7.11842V13.5117L7.28484 13.4934ZM6.65614 13.7042V13.8234H6.48047V13.6859L6.65614 13.7042ZM7.07682 13.7042V13.8234H6.90115V13.6859L7.07682 13.7042ZM7.49287 13.7042V13.8234H7.32183V13.6859L7.49287 13.7042ZM6.86879 13.9288V14.0297H6.69312V13.9334L6.86879 13.9288ZM7.28484 13.9288V14.0297H7.11842V13.9334L7.28484 13.9288Z" fill="#383739"/>
<path d="M6.85062 13.5117H6.71193V13.5805H6.85062V13.5117ZM7.26668 13.5117H7.12799V13.5805H7.26668V13.5117ZM6.64259 13.718H6.50391V13.8096H6.64259V13.718ZM7.05865 13.718H6.91996V13.8096H7.05865V13.718ZM7.47933 13.718H7.34064V13.8096H7.47933V13.718ZM6.85062 13.9288H6.71193V14.0159H6.85062V13.9288ZM7.26668 13.9288H7.12799V14.0159H7.26668V13.9288Z" fill="white"/>
<path d="M7.40948 15.0333V15.2625H7.34013L6.9888 15.4688L6.64208 15.2625H6.5635V15.0333H6.35547V14.8088H6.5635V14.6025H6.63746L6.98418 14.3779L7.33551 14.6071H7.40485V14.8088H7.61288V15.0379L7.40948 15.0333Z" fill="#383739"/>
<path d="M6.98818 15.4504L7.30254 15.2625H6.67383L6.98818 15.4504ZM7.30254 14.5841L6.98818 14.4146L6.67383 14.5841H7.30254Z" fill="#FFC72C"/>
<path d="M7.39593 14.8088V14.6208H7.00761V14.8088H7.39593ZM6.98912 14.8088V14.6208H6.58693V14.8088H6.98912ZM7.59934 15.0196V14.8271H7.19715V15.0196H7.59934ZM7.18328 15.0196V14.8271H6.81345V15.0196H7.18328ZM6.78109 15.0196V14.8271H6.37891V15.0196H6.78109ZM7.39131 15.2442V15.0379H7.00761V15.2442H7.39131ZM6.98912 15.2442V15.0379H6.58693V15.2442H6.98912Z" fill="#D22630"/>
<path d="M6.86879 14.6528V14.7766H6.69312V14.6528H6.86879ZM7.28484 14.6528V14.7766H7.11842V14.6528H7.28484ZM6.65614 14.8957V15.0012H6.48047V14.8957H6.65614ZM7.07682 14.8957V15.0012H6.90115V14.8957H7.07682ZM7.49287 14.8957V15.0012H7.32183V14.8957H7.49287ZM6.86879 15.0699V15.1753H6.69312V15.0699H6.86879ZM7.28484 15.0699V15.1753H7.11842V15.0699H7.28484Z" fill="#383739"/>
<path d="M6.85062 14.6711H6.71193V14.7628H6.85062V14.6711ZM7.26668 14.6711H7.12799V14.7628H7.26668V14.6711ZM6.64259 14.9003H6.50391V14.9691H6.64259V14.9003ZM7.05865 14.9003H6.91996V14.9691H7.05865V14.9003ZM7.47933 14.9003H7.34064V14.9691H7.47933V14.9003ZM6.85062 15.1066H6.71193V15.1753H6.85062V15.1066ZM7.26668 15.1066H7.12799V15.1753H7.26668V15.1066Z" fill="white"/>
<path d="M4.71484 17.5818L6.28661 16.7522H7.68733L9.2591 17.5818V18.9522L7.68733 19.7634H6.29123L4.71947 18.9522L4.71484 17.5818Z" fill="#383739"/>
<path d="M6.28765 16.7705L4.73438 17.5818V18.9338L6.29227 19.7634H7.68837L9.24627 18.9338V17.5818L7.70686 16.7751L6.28765 16.7705ZM6.31076 16.8713H7.68837L9.15844 17.6505V18.8651L7.68837 19.6443H6.32463L4.85919 18.8651V17.6459L6.31076 16.8713Z" fill="#00843D"/>
<path d="M6.98947 18.2601V19.6442H7.68752L9.13909 18.8651V18.2738H6.98947V16.8896H6.29142L4.83984 17.6505V18.2601H6.98947Z" fill="#FFC72C"/>
<path d="M6.98947 18.2601V19.6442H6.29142L4.83984 18.8651V18.2738H6.98947V16.8896H7.68752L9.13909 17.6505V18.2601H6.98947Z" fill="white"/>
<path d="M7.11495 19.557V19.1583L6.99013 19.2499L6.86994 19.1583V19.557H6.44926L6.72663 19.3508V19.0758L6.31057 18.8145H6.0332V17.7053H6.29208L6.70814 17.4441V17.1691L6.47237 16.9583H6.88843V17.357L7.01325 17.2883L7.13344 17.357V16.9766H7.55412L7.27675 17.1828V17.4578L7.6928 17.7191H7.99329V18.8283H7.6928L7.27675 19.0895V19.3645L7.55412 19.5753L7.11495 19.557Z" fill="#383739"/>
<path d="M7.12862 16.9766V17.3891L6.98994 17.3066V17.4257L7.63713 17.8245H7.84516V18.2599H7.95149V17.7374H7.67412L7.23495 17.4624V17.1507L7.47996 16.9766H7.12862ZM6.04688 18.2736V18.7961H6.29189L6.72643 19.0711V19.3691L6.48142 19.5386H6.83276V19.1261L6.97144 19.2086V19.0895L6.32425 18.6907H6.11622V18.2782L6.04688 18.2736Z" fill="#FFC72C"/>
<path d="M6.49991 16.9766L6.74492 17.1507V17.4624L6.31038 17.7191H6.04688V18.2416H6.13471V17.8428H6.34274L6.98994 17.4441V17.3249L6.85125 17.4074V16.9766H6.49991ZM7.84516 18.2736V18.6907H7.63713L6.98994 19.0895V19.2086L7.12862 19.1261V19.5386H7.47996L7.23495 19.3691V19.0528L7.67412 18.7778H7.95149V18.2599L7.84516 18.2736Z" fill="white"/>
<path d="M6.14844 18.6724H6.3426L6.9898 19.0895L7.63699 18.677H7.83115V17.8428H7.63699L6.9898 17.4441L6.3426 17.8428H6.16693L6.14844 18.6724Z" fill="#D22630"/>
<path d="M7.42824 18.4663H7.56692V18.3975H7.46059V18.2738H7.69174V18.5717H7.47909V18.778H7.03992V18.4846H7.23408V18.6038H7.16473V18.6588H7.3404V18.5534L6.53603 18.0675H6.39734V18.118H6.49904V18.2417H6.29102V17.9484H6.49904V17.7375H6.93821V18.0309H6.76255V17.9117H6.8134V17.8613H6.64235V17.9621L7.42824 18.4663ZM7.35427 17.9621V17.8613H7.16473V17.9117H7.23408V18.0309H7.03992V17.7375H7.47909V17.9484H7.68711V18.2417H7.46059V18.118H7.56692V18.0675H7.42824L6.64235 18.535V18.6405H6.8134V18.5855H6.74868V18.4709H6.94284V18.7642H6.50367V18.558H6.29564V18.2646H6.52216V18.3838H6.41583V18.4525H6.55452L7.35427 17.9621Z" fill="#383739"/>
<path d="M7.3736 18.535V18.6725H7.16558V18.5854H7.23492V18.5029H7.07774V18.7596H7.47993V18.5533H7.68796V18.2875H7.51691V18.3791H7.60012V18.48H7.44295L6.6247 17.9575V17.8383H6.85122V17.9254H6.78188V18.0125H6.95755V17.7512H6.53687V17.9575H6.32422V18.2187H6.49989V18.1316H6.41205V18.0446H6.56923L7.3736 18.535ZM7.42908 18.0491H7.60012V18.1408H7.47993V18.2233H7.68796V17.9666H7.47993V17.7604H7.07774V18.0216H7.23492V17.93H7.16558V17.8475H7.39672V17.985L6.56923 18.4891H6.41205V18.3791H6.51838V18.2921H6.34271V18.5533H6.53687V18.7596H6.93906V18.5029H6.78188V18.5854H6.85122V18.6771H6.62008V18.5396L7.42908 18.0491Z" fill="white"/>
<path d="M8.80745 18.3287V18.7595H8.63179V18.6083H8.44225V18.7641H8.24809V18.3333H8.42376V18.4891H8.61792V18.3333L8.80745 18.3287ZM8.14639 18.897V19.3324H7.97072V19.1766H7.77656V19.3324H7.60089V18.897H7.77656V19.0529H7.95223V18.897H8.14639ZM8.80745 18.2095V17.7558H8.63179V17.9116H8.44225V17.7558H8.24809V18.1912H8.42376V18.0308H8.61792V18.2049L8.80745 18.2095ZM5.1739 18.3287V18.7595H5.34957V18.6083H5.5391V18.7641H5.73326V18.3333H5.55759V18.4891H5.36806V18.3333L5.1739 18.3287ZM5.1739 18.1912V17.7558H5.34957V17.9116H5.5391V17.7558H5.73326V18.1912H5.55759V18.0308H5.36806V18.2049L5.1739 18.1912ZM8.14639 17.6183V17.1829H7.97072V17.3387H7.77656V17.1874H7.60089V17.6229H7.77656V17.4624H7.95223V17.6366L8.14639 17.6183ZM5.83496 18.9016V19.3324H6.01063V19.1766H6.20479V19.3324H6.39895V18.897H6.22328V19.0529H6.02912V18.897L5.83496 18.9016ZM5.83496 17.6183V17.1829H6.01063V17.3387H6.20479V17.1874H6.39895V17.6229H6.22328V17.4624H6.02912V17.6366L5.83496 17.6183ZM8.24809 17.3249V17.6504H8.86293L8.24809 17.3249ZM5.73326 19.2041V18.8604H5.12305L5.73326 19.2041ZM5.73326 17.302V17.6458H5.12305L5.73326 17.302ZM8.24809 19.2041V18.8604H8.86293L8.24809 19.2041Z" fill="#383739"/>
<path d="M8.6308 18.5853V18.7595H8.78798V18.347H8.6308V18.5028H8.42277V18.347H8.24711V18.7412H8.42277V18.5853H8.6308ZM7.96974 19.1583V19.3324H8.12691V18.9199H7.96974V19.0712H7.75709V18.9153H7.59991V19.3141H7.75709V19.1583H7.96974ZM8.6308 17.9299V17.7741H8.78798V18.1728H8.6308V18.0124H8.42277V18.1866H8.24711V17.7695H8.42277V17.9253L8.6308 17.9299ZM5.34858 18.5853V18.7595H5.19141V18.347H5.34858V18.5028H5.55661V18.347H5.73228V18.7412H5.55661V18.5853H5.34858ZM5.34858 17.9299V17.7741H5.19141V18.1728H5.34858V18.0124H5.55661V18.1866H5.73228V17.7695H5.55661V17.9253L5.34858 17.9299ZM7.96974 17.357V17.2012H8.12691V17.5999H7.96974V17.4441H7.75709V17.6183H7.59991V17.2058H7.75709V17.357H7.96974ZM6.00965 19.1583V19.3324H5.85247V18.9199H6.00965V19.0712H6.2223V18.9153H6.39797V19.3141H6.2223V19.1583H6.00965ZM6.00965 17.357V17.2012H5.85247V17.5999H6.00965V17.4441H6.2223V17.6183H6.39797V17.2058H6.2223V17.357H6.00965Z" fill="#D22630"/>
<path d="M8.26651 17.3389V17.6368H8.78889L8.26651 17.3389ZM5.17383 18.8972L5.69621 19.1722V18.8972H5.17383Z" fill="#FFC72C"/>
<path d="M5.71379 17.3389L5.19141 17.6368H5.71379V17.3389ZM8.2656 18.8972V19.1722L8.78798 18.8972H8.2656Z" fill="white"/>
<path d="M9.50493 19.47C9.47257 19.5937 9.36625 19.6808 9.34776 19.8183C9.30153 19.6808 9.26454 19.5571 9.30153 19.4196C9.30153 19.3141 9.40323 19.2454 9.42172 19.1262C9.50493 19.2087 9.52342 19.3325 9.50493 19.47ZM9.52342 19.9925C9.44198 20.1028 9.33389 20.191 9.20907 20.2491C9.22756 20.1483 9.17671 20.075 9.12124 19.9925C9.07039 19.9008 9.0334 19.8183 9.08888 19.6946C9.1109 19.7502 9.14045 19.8026 9.17671 19.8504C9.22756 19.9191 9.27841 19.9879 9.27841 20.0933C9.34776 20.0429 9.37087 19.9741 9.40323 19.9054C9.45885 19.8022 9.54412 19.7176 9.64824 19.6625C9.61126 19.7816 9.59277 19.8871 9.52342 19.9925ZM9.07038 20.3362L9.08888 20.5104L9.27841 20.3729C9.37087 20.2812 9.47257 20.2491 9.54191 20.1437C9.53965 20.2081 9.52269 20.2712 9.49229 20.3283C9.46189 20.3854 9.41882 20.4351 9.36625 20.4737L9.01953 20.7029C9.01953 20.5791 8.98255 20.4737 8.92708 20.3546C8.91887 20.3047 8.92299 20.2537 8.9391 20.2057C8.9552 20.1578 8.98281 20.1145 9.01953 20.0796C9.01953 20.1621 9.0334 20.2491 9.07038 20.3179V20.3362ZM8.80688 20.735L8.6682 20.9779C8.78839 20.9412 8.89934 20.8725 9.01953 20.8037C9.13973 20.735 9.27841 20.7029 9.40323 20.5975C9.34776 20.8221 9.19058 20.9412 8.98717 21.01C8.84387 21.0466 8.70518 21.0283 8.52489 21.1016C8.54833 20.9799 8.59042 20.8624 8.64971 20.7533L8.77452 20.5104C8.80688 20.5791 8.82537 20.6479 8.80688 20.7396V20.735ZM8.35384 21.065C8.30937 21.1353 8.24932 21.1948 8.17818 21.2391C8.35384 21.2391 8.49253 21.1475 8.6682 21.1337C8.77452 21.1337 8.87623 21.1704 8.98255 21.1521C8.86236 21.2391 8.71905 21.3262 8.5665 21.3262C8.37234 21.3583 8.17818 21.3262 7.96553 21.3262C8.07185 21.2529 8.12732 21.1521 8.17818 21.065C8.27063 20.9275 8.35384 20.8358 8.51102 20.8221C8.44168 20.8908 8.4047 20.9962 8.35384 21.065ZM7.74363 21.34C8.03949 21.395 8.33535 21.4637 8.64971 21.4637C8.32092 21.5996 7.9523 21.6061 7.61881 21.4821C7.44314 21.4271 7.28597 21.3766 7.14728 21.3904C6.95775 21.3904 6.69424 21.4958 6.41225 21.7754L6.31055 21.6883C6.71273 21.34 7.23512 21.2529 7.74363 21.34Z" fill="#FFC72C"/>
</g>
</g>
<defs>
<clipPath id="clip0_19514_55556">
<rect width="22" height="22" rx="11" fill="white"/>
</clipPath>
<clipPath id="clip1_19514_55556">
<rect width="29.5862" height="22" fill="white"/>
</clipPath>
</defs>
</svg>
