<svg width="22" height="22" viewBox="0 0 22 22" fill="none" xmlns="http://www.w3.org/2000/svg">
<circle cx="11" cy="11" r="11" fill="#0052B4"/>
<g clip-path="url(#clip0_172_32149)">
<path d="M21.4247 14.5195H0.575317C0.625316 14.6677 0.678403 14.8143 0.734579 14.9595H21.2654C21.3214 14.8143 21.3745 14.6676 21.4247 14.5195Z" fill="#CD2028"/>
<path d="M21.2655 7.03906H0.734578C0.678518 7.18429 0.625431 7.33095 0.575317 7.47906H21.4247C21.3747 7.33094 21.3216 7.18427 21.2655 7.03906Z" fill="#CD2028"/>
<path d="M11 0C6.32091 0 2.32434 2.9216 0.734558 7.04001H21.2654C19.6757 2.9216 15.6791 0 11 0Z" fill="#0098B4"/>
<path d="M22 11.0004C22.0012 9.80362 21.8069 8.61463 21.4247 7.48047H0.575304C-0.191768 9.76443 -0.191768 12.2365 0.575303 14.5204H21.4247C21.8069 13.3863 22.0012 12.1973 22 11.0004Z" fill="white"/>
<path d="M21.2653 14.9609H0.734375C2.32416 19.0793 6.32072 22.0009 10.9998 22.0009C15.6789 22.0009 19.6755 19.0793 21.2653 14.9609Z" fill="#28B24B"/>
<path d="M11.912 3.85156C11.8825 3.94307 11.8526 4.02873 11.828 4.11589C11.8182 4.1504 11.8011 4.15725 11.7692 4.1566C11.6788 4.15476 11.5884 4.15595 11.4865 4.15595C11.5685 4.21581 11.6404 4.27088 11.7153 4.32148C11.7451 4.34162 11.7497 4.3599 11.7383 4.39241C11.7081 4.4779 11.6814 4.56461 11.6507 4.65887C11.7348 4.59769 11.8121 4.54257 11.8879 4.48547C11.9074 4.47077 11.9204 4.47135 11.9395 4.48568C12.0144 4.54198 12.0905 4.59663 12.1747 4.65815C12.1617 4.61622 12.1515 4.58262 12.1409 4.5492C12.1232 4.49384 12.1068 4.438 12.0866 4.38356C12.077 4.35762 12.0817 4.34312 12.104 4.32752C12.1732 4.279 12.241 4.22847 12.3092 4.1786C12.3162 4.17352 12.3225 4.16762 12.3365 4.15595C12.2358 4.15595 12.1441 4.15465 12.0525 4.15669C12.0222 4.15736 12.009 4.14803 12.0003 4.11842C11.9766 4.03734 11.949 3.9574 11.9228 3.87707C11.9204 3.86997 11.917 3.86324 11.912 3.85156Z" fill="white"/>
<path d="M11.4865 5.95193C11.5595 6.00538 11.6314 6.06037 11.706 6.11146C11.7331 6.13003 11.7371 6.14671 11.7268 6.17622C11.6965 6.26308 11.669 6.35095 11.638 6.44586C11.7202 6.38604 11.7966 6.33231 11.8707 6.27553C11.8946 6.25725 11.9098 6.25967 11.9321 6.2767C11.995 6.32478 12.0597 6.37046 12.1238 6.41694C12.1329 6.42355 12.1426 6.42936 12.1615 6.44176C12.1379 6.36779 12.1178 6.30408 12.0972 6.24058C12.0632 6.13643 12.063 6.13644 12.1505 6.07228C12.2047 6.0325 12.259 5.99278 12.3133 5.95312C12.3141 5.95247 12.3143 5.95082 12.3168 5.94463H12.0726C12.0006 5.94463 12.0008 5.94456 11.9781 5.87361C11.9536 5.79731 11.9287 5.72115 11.9008 5.63477C11.8691 5.73273 11.8395 5.8203 11.8131 5.90883C11.8048 5.93671 11.7922 5.94589 11.7634 5.94531C11.6725 5.94347 11.5815 5.94463 11.4905 5.94463L11.4865 5.95193Z" fill="white"/>
<path d="M11.6488 2.87087C11.7319 2.81024 11.808 2.75619 11.8822 2.69966C11.9041 2.68295 11.9185 2.68347 11.9401 2.69984C12.0147 2.75642 12.091 2.81078 12.1733 2.87084C12.1427 2.77559 12.1157 2.68697 12.0853 2.59958C12.0753 2.57081 12.079 2.55533 12.1047 2.53757C12.1785 2.48666 12.25 2.43238 12.3302 2.37373C12.3114 2.37201 12.3008 2.37023 12.2902 2.3702C12.2083 2.36996 12.1264 2.36898 12.0446 2.37069C12.0185 2.37123 12.0073 2.36095 12.0001 2.33754C11.974 2.253 11.9466 2.16887 11.9195 2.08465C11.9167 2.07772 11.9134 2.07098 11.9098 2.06445C11.8811 2.15264 11.8506 2.23554 11.8279 2.32055C11.8164 2.36341 11.7959 2.37231 11.7559 2.37096C11.6695 2.36806 11.583 2.37007 11.4865 2.37007C11.5662 2.42802 11.636 2.48157 11.7088 2.53049C11.7423 2.55294 11.7478 2.57305 11.7338 2.61086C11.7031 2.69329 11.6787 2.77805 11.6488 2.87087Z" fill="white"/>
<path d="M14.1084 4.15473C14.0163 4.15473 13.9241 4.1538 13.8319 4.15529C13.8042 4.15575 13.791 4.14891 13.7824 4.11963C13.7565 4.0312 13.726 3.94412 13.6943 3.84766C13.6633 3.94334 13.6338 4.02999 13.6075 4.11763C13.5987 4.14705 13.585 4.15618 13.5548 4.15549C13.4629 4.15339 13.371 4.15473 13.2677 4.15473L13.5317 4.34788C13.4995 4.44817 13.4674 4.54809 13.4322 4.65732C13.5142 4.59747 13.5892 4.54442 13.6621 4.48866C13.6862 4.47016 13.7028 4.47041 13.7268 4.48875C13.7997 4.54445 13.8746 4.59755 13.9566 4.65735C13.9255 4.56063 13.8986 4.47246 13.8683 4.3855C13.8583 4.35676 13.863 4.3414 13.888 4.32406C13.9636 4.27159 14.0372 4.21624 14.1116 4.16201C14.1105 4.15958 14.1095 4.15716 14.1084 4.15473Z" fill="white"/>
<path d="M13.5292 6.13674C13.4968 6.23725 13.4649 6.33605 13.4295 6.44586C13.5 6.39452 13.5619 6.34959 13.6237 6.30439C13.6914 6.25482 13.6912 6.25482 13.7606 6.30535C13.8223 6.35032 13.8842 6.39502 13.9541 6.44575C13.9245 6.35447 13.9005 6.27107 13.87 6.19011C13.8546 6.14937 13.8617 6.12719 13.8976 6.10327C13.9694 6.0553 14.0379 6.00234 14.1166 5.94501C14.014 5.94501 13.9223 5.94376 13.8307 5.94572C13.8003 5.94638 13.788 5.93642 13.7793 5.907C13.7535 5.8198 13.7237 5.73382 13.6919 5.63672C13.6647 5.71987 13.6401 5.79333 13.6165 5.86709C13.5916 5.94489 13.592 5.94502 13.5111 5.94502H13.2677C13.3595 6.01229 13.4437 6.07406 13.5292 6.13674Z" fill="white"/>
<path d="M13.43 2.87087C13.5131 2.81024 13.5892 2.75619 13.6634 2.69966C13.6854 2.68295 13.6998 2.68347 13.7214 2.69984C13.796 2.75642 13.8722 2.81078 13.9545 2.87084C13.9239 2.77559 13.897 2.68697 13.8666 2.59958C13.8566 2.57081 13.8602 2.55533 13.886 2.53757C13.9598 2.48666 14.0313 2.43238 14.1115 2.37373C14.0926 2.37201 14.082 2.37023 14.0714 2.3702C13.9896 2.36996 13.9077 2.36898 13.8259 2.37069C13.7997 2.37123 13.7886 2.36095 13.7813 2.33754C13.7553 2.253 13.7279 2.16887 13.7008 2.08465C13.6979 2.07772 13.6947 2.07098 13.691 2.06445C13.6623 2.15264 13.6318 2.23554 13.6091 2.32055C13.5977 2.36341 13.5771 2.37231 13.5371 2.37096C13.4508 2.36806 13.3643 2.37007 13.2677 2.37007C13.3474 2.42802 13.4172 2.48157 13.4901 2.53049C13.5235 2.55294 13.5291 2.57305 13.515 2.61086C13.4844 2.69329 13.4599 2.77805 13.43 2.87087Z" fill="white"/>
<path d="M15.9081 4.15473C15.8159 4.15473 15.7238 4.1538 15.6316 4.15529C15.6039 4.15575 15.5907 4.14891 15.5821 4.11963C15.5562 4.0312 15.5257 3.94412 15.494 3.84766C15.463 3.94334 15.4335 4.02999 15.4072 4.11763C15.3984 4.14705 15.3847 4.15618 15.3544 4.15549C15.2626 4.15339 15.1707 4.15473 15.0674 4.15473C15.1604 4.22276 15.2448 4.28449 15.3314 4.34788C15.2992 4.44817 15.267 4.54809 15.2319 4.65732C15.3139 4.59747 15.3889 4.54442 15.4617 4.48866C15.4859 4.47016 15.5024 4.47041 15.5265 4.48875C15.5994 4.54445 15.6743 4.59755 15.7563 4.65735C15.7252 4.56063 15.6983 4.47246 15.668 4.3855C15.6579 4.35676 15.6627 4.3414 15.6877 4.32406C15.7633 4.27159 15.8369 4.21624 15.9113 4.16201L15.9081 4.15473Z" fill="white"/>
<path d="M15.3291 6.13674C15.2967 6.23725 15.2648 6.33605 15.2294 6.44586C15.2999 6.39452 15.3618 6.34959 15.4236 6.30439C15.4913 6.25482 15.4911 6.25482 15.5605 6.30535C15.6222 6.35032 15.6841 6.39502 15.754 6.44575C15.7244 6.35447 15.7003 6.27107 15.6698 6.19011C15.6545 6.14937 15.6616 6.12719 15.6974 6.10327C15.7693 6.0553 15.8378 6.00234 15.9165 5.94501C15.8139 5.94501 15.7222 5.94376 15.6306 5.94572C15.6002 5.94638 15.5878 5.93642 15.5792 5.907C15.5534 5.8198 15.5235 5.73382 15.4918 5.63672C15.4645 5.71987 15.44 5.79333 15.4164 5.86709C15.3915 5.94489 15.3919 5.94502 15.3109 5.94502H15.0676C15.1593 6.01229 15.2436 6.07406 15.3291 6.13674Z" fill="white"/>
<path d="M15.2297 2.87087C15.3128 2.81024 15.3889 2.75619 15.4631 2.69966C15.485 2.68295 15.4995 2.68347 15.521 2.69984C15.5956 2.75642 15.6719 2.81078 15.7542 2.87084C15.7236 2.77559 15.6967 2.68697 15.6662 2.59958C15.6562 2.57081 15.6599 2.55533 15.6857 2.53757C15.7595 2.48666 15.831 2.43238 15.9112 2.37373C15.8923 2.37201 15.8817 2.37023 15.8711 2.3702C15.7893 2.36996 15.7074 2.36898 15.6255 2.37069C15.5994 2.37123 15.5883 2.36095 15.581 2.33754C15.555 2.253 15.5276 2.16887 15.5005 2.08465C15.4976 2.07772 15.4944 2.07098 15.4907 2.06445C15.462 2.15264 15.4315 2.23554 15.4088 2.32055C15.3974 2.36341 15.3768 2.37231 15.3368 2.37096C15.2505 2.36806 15.164 2.37007 15.0674 2.37007C15.1471 2.42802 15.2169 2.48157 15.2898 2.53049C15.3232 2.55294 15.3288 2.57305 15.3147 2.61086C15.2841 2.69329 15.2596 2.77805 15.2297 2.87087Z" fill="white"/>
<path d="M9.70508 5.95193C9.77809 6.00538 9.85004 6.06037 9.92465 6.11146C9.95176 6.13003 9.95571 6.14671 9.94541 6.17622C9.91509 6.26308 9.88761 6.35095 9.85659 6.44586C9.93884 6.38604 10.0152 6.33231 10.0893 6.27553C10.1132 6.25725 10.1284 6.25967 10.1507 6.2767C10.2136 6.32478 10.2783 6.37046 10.3424 6.41694C10.3515 6.42355 10.3612 6.42936 10.3802 6.44176C10.3565 6.36779 10.3365 6.30408 10.3158 6.24058C10.2819 6.13643 10.2817 6.13644 10.3691 6.07228C10.4233 6.0325 10.4776 5.99278 10.5319 5.95312C10.5328 5.95247 10.5329 5.95082 10.5354 5.94463H10.2912C10.2192 5.94463 10.2194 5.94456 10.1967 5.87361C10.1723 5.79731 10.1474 5.72115 10.1194 5.63477C10.0878 5.73273 10.0582 5.8203 10.0317 5.90883C10.0234 5.93671 10.0108 5.94589 9.98204 5.94531C9.89111 5.94347 9.80011 5.94463 9.70914 5.94463L9.70508 5.95193Z" fill="white"/>
<path d="M7.92383 5.95193C7.99683 6.00538 8.06879 6.06037 8.1434 6.11146C8.17051 6.13003 8.17446 6.14671 8.16416 6.17622C8.13384 6.26308 8.10636 6.35095 8.07534 6.44586C8.15759 6.38604 8.234 6.33231 8.30809 6.27553C8.33193 6.25725 8.34719 6.25967 8.36947 6.2767C8.43236 6.32478 8.49706 6.37046 8.56116 6.41694C8.57027 6.42355 8.57997 6.42936 8.5989 6.44176C8.57526 6.36779 8.5552 6.30408 8.53453 6.24058C8.50062 6.13643 8.50042 6.13644 8.58787 6.07228C8.64208 6.0325 8.69634 5.99278 8.75063 5.95312C8.75151 5.95247 8.75165 5.95082 8.75418 5.94463H8.50998C8.43797 5.94463 8.43817 5.94456 8.41544 5.87361C8.391 5.79731 8.36612 5.72115 8.33813 5.63477C8.30652 5.73273 8.27692 5.8203 8.25049 5.90883C8.24217 5.93671 8.22957 5.94589 8.20079 5.94531C8.10986 5.94347 8.01886 5.94463 7.92789 5.94463L7.92383 5.95193Z" fill="white"/>
<path d="M9.70508 4.16873C9.77809 4.22218 9.85004 4.27717 9.92465 4.32826C9.95176 4.34683 9.95571 4.36351 9.94541 4.39301C9.91509 4.47988 9.88761 4.56774 9.85659 4.66266C9.93884 4.60284 10.0152 4.5491 10.0893 4.49232C10.1132 4.47405 10.1284 4.47646 10.1507 4.4935C10.2136 4.54157 10.2783 4.58726 10.3424 4.63374C10.3515 4.64035 10.3612 4.64615 10.3802 4.65855C10.3565 4.58459 10.3365 4.52088 10.3158 4.45737C10.2819 4.35323 10.2817 4.35324 10.3691 4.28908C10.4233 4.2493 10.4776 4.20958 10.5319 4.16991C10.5328 4.16927 10.5329 4.16762 10.5354 4.16143H10.2912C10.2192 4.16143 10.2194 4.16136 10.1967 4.0904C10.1723 4.01411 10.1474 3.93795 10.1194 3.85156C10.0878 3.94952 10.0582 4.0371 10.0317 4.12562C10.0234 4.15351 10.0108 4.16268 9.98204 4.1621C9.89111 4.16026 9.80011 4.16142 9.70914 4.16142L9.70508 4.16873Z" fill="white"/>
<path d="M7.35228 6.49559C6.24931 6.2766 5.56717 5.36257 5.51993 4.40884C5.46338 3.26711 6.27109 2.28683 7.34863 2.09159C6.66777 1.96741 5.74871 2.20449 5.18231 3.00818C4.91343 3.38814 4.77045 3.84284 4.77348 4.3083C4.77652 4.77376 4.92542 5.22656 5.19924 5.60298C5.78062 6.40416 6.6976 6.61266 7.35228 6.49559Z" fill="white"/>
</g>
<defs>
<clipPath id="clip0_172_32149">
<rect width="22" height="22" fill="white"/>
</clipPath>
</defs>
</svg>
