<svg width="24" height="24" viewBox="0 0 24 24" fill="none" xmlns="http://www.w3.org/2000/svg">
<path d="M18.5027 6.95098L16.1369 3.79657C15.4997 2.94704 14.3099 2.74323 13.4263 3.33227L7.9281 6.99776" stroke="#A73AFD" stroke-width="1.5" stroke-linecap="round" stroke-linejoin="round"/>
<path fill-rule="evenodd" clip-rule="evenodd" d="M18.5028 11.5H21.0038C21.5563 11.5 22.0042 11.9479 22.0042 12.5004V15.5017C22.0042 16.0542 21.5563 16.5021 21.0038 16.5021H18.5028C17.1215 16.5021 16.0017 15.3823 16.0017 14.001V14.001C16.0017 12.6198 17.1215 11.5 18.5028 11.5V11.5Z" stroke="#A73AFD" stroke-width="1.5" stroke-linecap="round" stroke-linejoin="round"/>
<path d="M21.0037 11.4999V9.49909C21.0037 8.1178 19.884 6.99805 18.5027 6.99805H5.49726C4.11597 6.99805 2.99622 8.1178 2.99622 9.49909V18.5028C2.99622 19.8841 4.11597 21.0039 5.49726 21.0039H18.5027C19.884 21.0039 21.0037 19.8841 21.0037 18.5028V16.502" stroke="#A73AFD" stroke-width="1.5" stroke-linecap="round" stroke-linejoin="round"/>
</svg>
