<svg width="371" height="175" viewBox="0 0 371 175" fill="none" xmlns="http://www.w3.org/2000/svg">
<g filter="url(#filter0_b_60_365)">
<path d="M0 81.9435C0 53.2606 0 38.9191 5.58206 27.9637C10.4922 18.327 18.327 10.4922 27.9637 5.58206C38.9191 0 53.2606 0 81.9435 0H92.6045C121.287 0 135.629 0 146.584 5.58206C156.221 10.4922 164.056 18.327 168.966 27.9637C174.548 38.9191 174.548 53.2606 174.548 81.9435V92.6045C174.548 121.287 174.548 135.629 168.966 146.584C164.056 156.221 156.221 164.056 146.584 168.966C135.629 174.548 121.287 174.548 92.6045 174.548H81.9435C53.2606 174.548 38.9191 174.548 27.9637 168.966C18.327 164.056 10.4922 156.221 5.58206 146.584C0 135.629 0 121.287 0 92.6045V81.9435Z" fill="url(#paint0_linear_60_365)"/>
</g>
<path d="M132.828 61.5896C126.576 61.5896 120.931 63.4803 116.111 66.7158V37.1834H102.776V91.6479C102.776 108.218 116.257 121.553 132.754 121.553C149.252 121.553 162.886 108.298 162.886 91.4948C162.886 74.6914 149.551 61.5896 132.828 61.5896ZM72.3115 95.4959L60.1085 63.7067H50.7681L38.4918 95.4959L26.2154 63.7067H11.6689L33.1392 119.603H42.4796L55.3617 86.3087L68.3171 119.603H77.6575L99.0545 63.7067H84.5879L72.3115 95.4959ZM132.761 108.225C123.72 108.225 116.111 100.995 116.111 91.5747C116.111 82.1544 123.268 75.0043 132.834 75.0043C142.401 75.0043 149.558 82.4607 149.558 91.5747C149.558 100.689 141.948 108.225 132.761 108.225Z" fill="white"/>
<path d="M345.967 121.273C333.112 121.273 323.415 115.86 318.341 109.771L326.798 100.299C330.18 104.471 337.397 108.982 345.629 108.982C351.831 108.982 356.679 106.727 356.679 102.442C356.679 98.2696 353.522 96.1272 347.546 96.1272H331.308V85.4148H345.629C351.718 85.4148 354.762 83.2724 354.762 79.213C354.762 74.7025 350.59 73.1239 346.08 73.1239C338.412 73.1239 332.548 76.394 328.151 80.3406L320.37 70.3049C324.542 66.2455 334.578 60.7202 346.531 60.7202C359.611 60.7202 369.196 66.5837 369.196 76.1684C369.196 82.4831 365.926 86.9935 360.175 89.587C367.279 91.7295 371 96.4654 371 103.908C371 113.492 360.513 121.273 345.967 121.273Z" fill="black"/>
<path d="M266.46 119.243V62.8626H296.003C305.926 62.8626 315.06 67.2603 315.06 76.7323C315.06 82.9341 311.677 87.1063 306.49 89.3615C312.805 91.6167 316.977 96.1272 316.977 102.893C316.977 114.394 307.054 119.243 295.665 119.243H266.46ZM279.878 108.193H295.214C299.612 108.193 302.205 105.486 302.205 101.991C302.205 98.3824 299.273 95.6761 294.876 95.6761H279.878V108.193ZM279.878 85.3021H293.974C297.695 85.3021 300.852 83.0469 300.852 79.213C300.852 75.8302 298.033 73.4622 293.974 73.4622H279.878V85.3021Z" fill="black"/>
<path d="M205.234 119.243V62.8626H259.247V119.243H245.828V75.8302H218.653V119.243H205.234Z" fill="black"/>
<defs>
<filter id="filter0_b_60_365" x="-3" y="-3" width="180.548" height="180.548" filterUnits="userSpaceOnUse" color-interpolation-filters="sRGB">
<feFlood flood-opacity="0" result="BackgroundImageFix"/>
<feGaussianBlur in="BackgroundImageFix" stdDeviation="1.5"/>
<feComposite in2="SourceAlpha" operator="in" result="effect1_backgroundBlur_60_365"/>
<feBlend mode="normal" in="SourceGraphic" in2="effect1_backgroundBlur_60_365" result="shape"/>
</filter>
<linearGradient id="paint0_linear_60_365" x1="58.7116" y1="189.623" x2="165.821" y2="11.1076" gradientUnits="userSpaceOnUse">
<stop stop-color="#6F01FB"/>
<stop offset="1" stop-color="#FF49D7"/>
</linearGradient>
</defs>
</svg>
